{
.appVersion = "3151";
classes = (
{
code = "q v w x z C E F G H I J K M N O Q T";
name = aalt;
},
{
code = "q.baja v.7 w.7 x.9 z.9 C.big E.big F.big G.big H.big I.big J.big K.big M.big N.big O.big Q.big T.big";
name = aalt2;
},
{
code = "h.9 h.6 h.3 h.baja h.7 h.99 h.7.baja h.6.9 h.55 h.77.baja h.77.baja.6 h.77.6";
name = aalt3;
},
{
code = "l.9 l.5 l.7 l.baja l.44 l.444 l.7.baja l.55 l.55.7 l.9.7";
name = aalt4;
},
{
code = "a c d e f g h i j k l m n o p r s t u x y z";
name = fina;
},
{
code = "a.9 c.9 d.99 e.9 f.999 g.999 h.99 i.9 j.999 k.9 l.9 m.9 n.9 o.999 p.9 r.99 s.9 t.9 u.9 x.9 y.999 z.9";
name = fina2;
},
{
code = "a d h i l m n r t u B D L P R S s";
name = salt;
},
{
code = "a.555 d.55 h.55 i.55 l.55 m.55 n.55 r.55 t.5 u.55 B.001 D.001 L.7 P.001 R.001 S.001 s.salt";
name = salt2;
},
{
code = "b d f g h j k l p q r s y";
name = ss01;
},
{
code = "b.baja d.baja f.baja g.baja h.baja j.baja k.baja l.baja p.baja q.baja r.baja s.3 y.baja";
name = ss012;
},
{
code = "b f g h k l t v w y n";
name = ss02;
},
{
code = "b.7 f.7 g.7 h.7 k.7 l.7 t.7 v.7 w.7 y.7 n.777";
name = ss022;
},
{
code = "A B C D E F G H I J K L M N O P Q R S T U V W Y Z";
name = ss14;
},
{
code = "A.big B.big C.big D.big E.big F.big G.big H.big I.big J.big K.big L.big M.big N.big O.big P.big Q.big R.big S.big T.big U.big V.big W.big Y.big Z.big";
name = ss142;
},
{
code = "b f g h k l r s y n t";
name = swsh;
},
{
code = "b.7.baja f.7.baja g.7.baja h.7.baja k.7.baja l.7.baja r.7 s.3.7 y.7.baja n.7 t.77";
name = swsh2;
},
{

glyphs = (
{
color = (153,255,154,255);
glyphname = a;
layers = (
{
associatedMasterId = "16A2D4D5-7122-496F-87E2-41E3467D9F6F";
hints = (
{
horizontal = 1;
place = "{0, -20}";
target = down;
type = TopGhost;
},
{
horizontal = 1;
place = "{-12, 21}";
type = Stem;
},
{
horizontal = 1;
place = "{563, -20}";
target = down;
type = TopGhost;
}
);
layerId = "F6B66510-6D57-4CCF-9874-51AD274B4C15";
name = Regular.1;
paths = (
{
closed = 1;
nodes = (
"310 558 OFFCURVE",
"324 524 OFFCURVE",
"318 485 CURVE SMOOTH",
"313 449 OFFCURVE",
"293 408 OFFCURVE",
"266 382 CURVE",
"267 379 LINE",
"297 407 OFFCURVE",
"321 449 OFFCURVE",
"326 485 CURVE SMOOTH",
"332 527 OFFCURVE",
"312 563 OFFCURVE",
"261 563 CURVE SMOOTH",
"183 563 OFFCURVE",
"65 438 OFFCURVE",
"-1 280 CURVE",
"-21 227 OFFCURVE",
"-36 181 OFFCURVE",
"-43 131 CURVE SMOOTH",
"-54 46 OFFCURVE",
"-28 -12 OFFCURVE",
"18 -12 CURVE SMOOTH",
"64 -12 OFFCURVE",
"142 50 OFFCURVE",
"193 136 CURVE",
"167 59 OFFCURVE",
"186 0 OFFCURVE",
"224 0 CURVE SMOOTH",
"293 0 OFFCURVE",
"388 146 OFFCURVE",
"449 280 CURVE",
"449 282 OFFCURVE",
"449 283 OFFCURVE",
"446 282 CURVE",
"387 154 OFFCURVE",
"291 4 OFFCURVE",
"224 4 CURVE SMOOTH",
"185 4 OFFCURVE",
"175 72 OFFCURVE",
"212 152 CURVE SMOOTH",
"403 550 LINE",
"382 550 LINE",
"215 187 LINE SMOOTH",
"161 69 OFFCURVE",
"71 -6 OFFCURVE",
"20 -6 CURVE SMOOTH",
"-23 -6 OFFCURVE",
"-37 45 OFFCURVE",
"-27 123 CURVE SMOOTH",
"-20 174 OFFCURVE",
"-8 220 OFFCURVE",
"14 275 CURVE",
"82 430 OFFCURVE",
"192 558 OFFCURVE",
"261 558 CURVE SMOOTH"
);
}
);
width = 446;
},
{
anchors = (
{
name = top;
position = "{307, 638}";
}
);
hints = (
{
horizontal = 1;
place = "{4, -20}";
target = down;
type = TopGhost;
},
{
horizontal = 1;
place = "{-16, 29}";
type = Stem;
},
{
horizontal = 1;
place = "{567, -20}";
target = down;
type = TopGhost;
}
);
layerId = "12538090-4C57-4FAF-B923-C9DF6C947DDF";
paths = (
{
closed = 1;
nodes = (
"294.811 550.133 OFFCURVE",
"309.598 532.389 OFFCURVE",
"309.598 501.829 CURVE SMOOTH",
"309.598 464.369 OFFCURVE",
"285.939 415.079 OFFCURVE",
"257.351 387.476 CURVE",
"253.407 382.547 OFFCURVE",
"254.393 377.618 OFFCURVE",
"260.308 374.661 CURVE",
"292.839 406.206 OFFCURVE",
"325.371 456.482 OFFCURVE",
"325.371 500.843 CURVE SMOOTH",
"325.371 538.304 OFFCURVE",
"301.712 562.949 OFFCURVE",
"266.223 562.949 CURVE SMOOTH",
"177.501 562.949 OFFCURVE",
"60.191 421.979 OFFCURVE",
"0.057 281.996 CURVE SMOOTH",
"-26.56 218.904 OFFCURVE",
"-40.361 159.756 OFFCURVE",
"-40.361 106.523 CURVE SMOOTH",
"-40.361 41.46 OFFCURVE",
"-15.716 0.057 OFFCURVE",
"24.702 0.057 CURVE SMOOTH",
"98.637 0.057 OFFCURVE",
"173.558 95.679 OFFCURVE",
"218.904 185.387 CURVE",
"217.919 197.217 LINE",
"190.316 142.012 OFFCURVE",
"181.444 99.623 OFFCURVE",
"181.444 70.049 CURVE SMOOTH",
"181.444 22.73 OFFCURVE",
"206.089 0.057 OFFCURVE",
"237.635 0.057 CURVE SMOOTH",
"304.669 0.057 OFFCURVE",
"378.604 108.495 OFFCURVE",
"441.695 276.081 CURVE",
"441.695 281.996 OFFCURVE",
"437.752 285.939 OFFCURVE",
"431.837 281.996 CURVE",
"370.718 124.268 OFFCURVE",
"298.754 11.886 OFFCURVE",
"237.635 11.886 CURVE SMOOTH",
"212.004 11.886 OFFCURVE",
"198.203 32.588 OFFCURVE",
"198.203 67.091 CURVE SMOOTH",
"198.203 94.694 OFFCURVE",
"208.061 135.111 OFFCURVE",
"228.762 177.501 CURVE SMOOTH",
"407.192 550.133 LINE",
"378.604 550.133 LINE",
"235.663 244.535 LINE SMOOTH",
"184.401 133.14 OFFCURVE",
"103.566 13.858 OFFCURVE",
"26.673 13.858 CURVE SMOOTH",
"-4.872 13.858 OFFCURVE",
"-18.673 43.432 OFFCURVE",
"-18.673 93.708 CURVE SMOOTH",
"-18.673 145.955 OFFCURVE",
"-1.915 210.032 OFFCURVE",
"23.716 270.166 CURVE SMOOTH",
"83.85 410.15 OFFCURVE",
"195.245 550.133 OFFCURVE",
"268.194 550.133 CURVE SMOOTH"
);
}
);
width = 436;
},
{
anchors = (
{
name = top;
position = "{307, 638}";
}
);
hints = (
{
horizontal = 1;
place = "{0, -20}";
target = down;
type = TopGhost;
},
{
horizontal = 1;
place = "{563, -20}";
target = down;
type = TopGhost;
}
);
layerId = "71F17050-D056-48DB-A6EA-6AFC75FA62B4";
paths = (
{
closed = 1;
nodes = (
"296.862 553.997 OFFCURVE",
"313.739 534.141 OFFCURVE",
"313.739 501.378 CURVE SMOOTH",
"313.739 462.659 OFFCURVE",
"289.912 413.019 OFFCURVE",
"261.121 385.221 CURVE",
"259.135 382.242 OFFCURVE",
"260.128 378.271 OFFCURVE",
"263.106 376.286 CURVE",
"294.876 407.062 OFFCURVE",
"325.653 456.702 OFFCURVE",
"325.653 500.386 CURVE SMOOTH",
"325.653 538.112 OFFCURVE",
"301.826 562.932 OFFCURVE",
"266.085 562.932 CURVE SMOOTH",
"177.726 562.932 OFFCURVE",
"60.575 422.947 OFFCURVE",
"0.014 281.97 CURVE SMOOTH",
"-26.791 218.43 OFFCURVE",
"-40.69 158.862 OFFCURVE",
"-40.69 105.251 CURVE SMOOTH",
"-40.69 40.719 OFFCURVE",
"-16.863 0.014 OFFCURVE",
"22.849 0.014 CURVE SMOOTH",
"97.309 0.014 OFFCURVE",
"172.762 96.316 OFFCURVE",
"218.43 187.654 CURVE",
"218.43 194.603 LINE",
"191.625 139.999 OFFCURVE",
"182.69 98.302 OFFCURVE",
"182.69 68.518 CURVE SMOOTH",
"182.69 21.856 OFFCURVE",
"206.517 0.014 OFFCURVE",
"237.294 0.014 CURVE SMOOTH",
"303.811 0.014 OFFCURVE",
"377.278 110.215 OFFCURVE",
"440.818 277.998 CURVE",
"440.818 281.97 OFFCURVE",
"438.832 284.948 OFFCURVE",
"433.868 281.97 CURVE",
"372.314 122.129 OFFCURVE",
"299.84 7.957 OFFCURVE",
"237.294 7.957 CURVE SMOOTH",
"210.488 7.957 OFFCURVE",
"195.596 29.798 OFFCURVE",
"195.596 65.539 CURVE SMOOTH",
"195.596 94.33 OFFCURVE",
"205.524 134.042 OFFCURVE",
"226.373 177.726 CURVE SMOOTH",
"405.077 550.026 LINE",
"380.257 550.026 LINE",
"237.294 243.25 LINE SMOOTH",
"185.668 131.064 OFFCURVE",
"103.266 9.942 OFFCURVE",
"24.834 9.942 CURVE SMOOTH",
"-7.928 9.942 OFFCURVE",
"-22.82 40.719 OFFCURVE",
"-22.82 92.345 CURVE SMOOTH",
"-22.82 145.956 OFFCURVE",
"-5.942 210.488 OFFCURVE",
"19.87 272.042 CURVE SMOOTH",
"80.431 415.005 OFFCURVE",
"192.618 553.997 OFFCURVE",
"268.07 553.997 CURVE SMOOTH"
);
}
);
width = 434;
},
{
anchors = (
{
name = top;
position = "{307, 638}";
}
);
hints = (
{
horizontal = 1;
place = "{0, -20}";
target = down;
type = TopGhost;
},
{
horizontal = 1;
place = "{-12, 21}";
type = Stem;
},
{
horizontal = 1;
place = "{563, -20}";
target = down;
type = TopGhost;
}
);
layerId = "16A2D4D5-7122-496F-87E2-41E3467D9F6F";
paths = (
{
closed = 1;
nodes = (
"300 558 OFFCURVE",
"319 536 OFFCURVE",
"319 500 CURVE SMOOTH",
"319 460 OFFCURVE",
"295 410 OFFCURVE",
"266 382 CURVE",
"266 381 OFFCURVE",
"267 380 OFFCURVE",
"267 379 CURVE",
"297 407 OFFCURVE",
"327 456 OFFCURVE",
"327 499 CURVE SMOOTH",
"327 538 OFFCURVE",
"303 563 OFFCURVE",
"266 563 CURVE SMOOTH",
"178 563 OFFCURVE",
"61 424 OFFCURVE",
"0 282 CURVE SMOOTH",
"-27 218 OFFCURVE",
"-41 158 OFFCURVE",
"-41 104 CURVE SMOOTH",
"-41 40 OFFCURVE",
"-18 0 OFFCURVE",
"21 0 CURVE SMOOTH",
"96 0 OFFCURVE",
"171 98 OFFCURVE",
"217 191 CURVE",
"219 191 LINE",
"193 138 OFFCURVE",
"184 97 OFFCURVE",
"184 67 CURVE SMOOTH",
"184 21 OFFCURVE",
"207 0 OFFCURVE",
"237 0 CURVE SMOOTH",
"303 0 OFFCURVE",
"375 112 OFFCURVE",
"439 280 CURVE",
"439 282 OFFCURVE",
"439 283 OFFCURVE",
"436 282 CURVE",
"374 120 OFFCURVE",
"301 4 OFFCURVE",
"237 4 CURVE SMOOTH",
"209 4 OFFCURVE",
"193 27 OFFCURVE",
"193 64 CURVE SMOOTH",
"193 94 OFFCURVE",
"203 133 OFFCURVE",
"224 178 CURVE SMOOTH",
"403 550 LINE",
"382 550 LINE",
"239 242 LINE SMOOTH",
"187 129 OFFCURVE",
"103 6 OFFCURVE",
"23 6 CURVE SMOOTH",
"-11 6 OFFCURVE",
"-27 38 OFFCURVE",
"-27 91 CURVE SMOOTH",
"-27 146 OFFCURVE",
"-10 211 OFFCURVE",
"16 274 CURVE SMOOTH",
"77 420 OFFCURVE",
"190 558 OFFCURVE",
"268 558 CURVE SMOOTH"
);
}
);
width = 436;
}
);
unicode = 0061;
},
{
color = (255,153,254,255);
glyphname = a.999;
layers = (
{
hints = (
{
horizontal = 1;
place = "{-227, 225}";
type = Stem;
},
{
horizontal = 1;
place = "{567, -20}";
target = down;
type = TopGhost;
}
);
layerId = "12538090-4C57-4FAF-B923-C9DF6C947DDF";
paths = (
{
closed = 1;
nodes = (
"210 177 LINE",
"188 122 OFFCURVE",
"171 78 OFFCURVE",
"171 13 CURVE SMOOTH",
"171 -122 OFFCURVE",
"283 -220 OFFCURVE",
"414 -220 CURVE SMOOTH",
"657 -220 OFFCURVE",
"872 35 OFFCURVE",
"872 252 CURVE SMOOTH",
"872 336 OFFCURVE",
"836 422 OFFCURVE",
"740 422 CURVE SMOOTH",
"597 422 OFFCURVE",
"473 257 OFFCURVE",
"473 127 CURVE SMOOTH",
"473 72 OFFCURVE",
"491 26 OFFCURVE",
"526 1 CURVE",
"532 3 OFFCURVE",
"533 7 OFFCURVE",
"529 13 CURVE",
"506 33 OFFCURVE",
"492 70 OFFCURVE",
"492 116 CURVE SMOOTH",
"492 241 OFFCURVE",
"606 410 OFFCURVE",
"739 410 CURVE SMOOTH",
"824 410 OFFCURVE",
"852 343 OFFCURVE",
"852 270 CURVE SMOOTH",
"852 55 OFFCURVE",
"661 -208 OFFCURVE",
"414 -208 CURVE SMOOTH",
"301 -208 OFFCURVE",
"191 -124 OFFCURVE",
"191 10 CURVE SMOOTH",
"191 77 OFFCURVE",
"208 133 OFFCURVE",
"236 189 CURVE SMOOTH",
"408 550 LINE",
"379 550 LINE",
"237 245 LINE SMOOTH",
"186 134 OFFCURVE",
"105 14 OFFCURVE",
"28 14 CURVE SMOOTH",
"-3 14 OFFCURVE",
"-18 44 OFFCURVE",
"-18 94 CURVE SMOOTH",
"-18 147 OFFCURVE",
"-2 210 OFFCURVE",
"24 270 CURVE SMOOTH",
"84 411 OFFCURVE",
"195 550 OFFCURVE",
"269 550 CURVE SMOOTH",
"296 550 OFFCURVE",
"311 532 OFFCURVE",
"311 502 CURVE SMOOTH",
"311 464 OFFCURVE",
"287 415 OFFCURVE",
"258 387 CURVE SMOOTH",
"254 383 OFFCURVE",
"255 378 OFFCURVE",
"261 375 CURVE",
"294 406 OFFCURVE",
"326 456 OFFCURVE",
"326 501 CURVE SMOOTH",
"326 538 OFFCURVE",
"303 563 OFFCURVE",
"267 563 CURVE SMOOTH",
"178 563 OFFCURVE",
"61 423 OFFCURVE",
"0 282 CURVE SMOOTH",
"-27 218 OFFCURVE",
"-39 161 OFFCURVE",
"-39 107 CURVE SMOOTH",
"-39 41 OFFCURVE",
"-16 0 OFFCURVE",
"26 0 CURVE SMOOTH",
"102 0 OFFCURVE",
"177 98 OFFCURVE",
"223 190 CURVE"
);
}
);
width = 898;
},
{
hints = (
{
horizontal = 1;
place = "{563, -20}";
target = down;
type = TopGhost;
}
);
layerId = "71F17050-D056-48DB-A6EA-6AFC75FA62B4";
paths = (
{
closed = 1;
nodes = (
"214 184 LINE",
"191 125 OFFCURVE",
"171 79 OFFCURVE",
"171 11 CURVE SMOOTH",
"171 -124 OFFCURVE",
"283 -221 OFFCURVE",
"414 -221 CURVE SMOOTH",
"658 -221 OFFCURVE",
"873 34 OFFCURVE",
"873 252 CURVE SMOOTH",
"873 336 OFFCURVE",
"838 421 OFFCURVE",
"743 421 CURVE SMOOTH",
"600 421 OFFCURVE",
"476 256 OFFCURVE",
"476 126 CURVE SMOOTH",
"476 67 OFFCURVE",
"497 17 OFFCURVE",
"537 -9 CURVE",
"541 -8 OFFCURVE",
"542 -4 OFFCURVE",
"539 -1 CURVE",
"509 22 OFFCURVE",
"491 63 OFFCURVE",
"491 115 CURVE SMOOTH",
"491 241 OFFCURVE",
"607 413 OFFCURVE",
"742 413 CURVE SMOOTH",
"829 413 OFFCURVE",
"857 344 OFFCURVE",
"857 270 CURVE SMOOTH",
"857 53 OFFCURVE",
"664 -213 OFFCURVE",
"414 -213 CURVE SMOOTH",
"300 -213 OFFCURVE",
"188 -128 OFFCURVE",
"188 8 CURVE SMOOTH",
"188 76 OFFCURVE",
"205 133 OFFCURVE",
"233 189 CURVE SMOOTH",
"406 550 LINE",
"380 550 LINE",
"238 244 LINE SMOOTH",
"186 132 OFFCURVE",
"104 10 OFFCURVE",
"26 10 CURVE SMOOTH",
"-7 10 OFFCURVE",
"-22 41 OFFCURVE",
"-22 93 CURVE SMOOTH",
"-22 147 OFFCURVE",
"-6 210 OFFCURVE",
"20 272 CURVE SMOOTH",
"81 415 OFFCURVE",
"193 554 OFFCURVE",
"269 554 CURVE SMOOTH",
"298 554 OFFCURVE",
"315 534 OFFCURVE",
"315 501 CURVE SMOOTH",
"315 462 OFFCURVE",
"291 413 OFFCURVE",
"262 385 CURVE SMOOTH",
"259 382 OFFCURVE",
"260 378 OFFCURVE",
"264 377 CURVE",
"295 406 OFFCURVE",
"326 456 OFFCURVE",
"326 500 CURVE SMOOTH",
"326 538 OFFCURVE",
"303 563 OFFCURVE",
"267 563 CURVE SMOOTH",
"178 563 OFFCURVE",
"61 423 OFFCURVE",
"0 282 CURVE SMOOTH",
"-27 218 OFFCURVE",
"-40 160 OFFCURVE",
"-40 106 CURVE SMOOTH",
"-40 41 OFFCURVE",
"-17 0 OFFCURVE",
"24 0 CURVE SMOOTH",
"99 0 OFFCURVE",
"174 98 OFFCURVE",
"220 190 CURVE"
);
}
);
width = 896;
},
{
hints = (
{
horizontal = 1;
place = "{-223, 217}";
type = Stem;
},
{
horizontal = 1;
place = "{563, -20}";
target = down;
type = TopGhost;
}
);
layerId = "16A2D4D5-7122-496F-87E2-41E3467D9F6F";
paths = (
{
closed = 1;
nodes = (
"219 191 LINE",
"194 128 OFFCURVE",
"172 81 OFFCURVE",
"172 9 CURVE SMOOTH",
"172 -126 OFFCURVE",
"284 -223 OFFCURVE",
"415 -223 CURVE SMOOTH",
"659 -223 OFFCURVE",
"875 33 OFFCURVE",
"875 252 CURVE SMOOTH",
"875 335 OFFCURVE",
"840 420 OFFCURVE",
"746 420 CURVE SMOOTH",
"603 420 OFFCURVE",
"479 255 OFFCURVE",
"479 125 CURVE SMOOTH",
"479 61 OFFCURVE",
"503 8 OFFCURVE",
"549 -19 CURVE",
"551 -19 OFFCURVE",
"552 -16 OFFCURVE",
"550 -15 CURVE",
"512 10 OFFCURVE",
"490 56 OFFCURVE",
"490 114 CURVE SMOOTH",
"490 242 OFFCURVE",
"608 416 OFFCURVE",
"745 416 CURVE SMOOTH",
"834 416 OFFCURVE",
"863 346 OFFCURVE",
"863 270 CURVE SMOOTH",
"863 50 OFFCURVE",
"667 -219 OFFCURVE",
"415 -219 CURVE SMOOTH",
"298 -219 OFFCURVE",
"185 -132 OFFCURVE",
"185 6 CURVE SMOOTH",
"185 75 OFFCURVE",
"202 132 OFFCURVE",
"230 190 CURVE SMOOTH",
"403 550 LINE",
"382 550 LINE",
"239 242 LINE SMOOTH",
"187 129 OFFCURVE",
"103 6 OFFCURVE",
"23 6 CURVE SMOOTH",
"-11 6 OFFCURVE",
"-27 38 OFFCURVE",
"-27 91 CURVE SMOOTH",
"-27 146 OFFCURVE",
"-10 211 OFFCURVE",
"16 274 CURVE SMOOTH",
"77 420 OFFCURVE",
"190 558 OFFCURVE",
"268 558 CURVE SMOOTH",
"300 558 OFFCURVE",
"319 536 OFFCURVE",
"319 500 CURVE SMOOTH",
"319 460 OFFCURVE",
"295 410 OFFCURVE",
"266 382 CURVE",
"264 380 OFFCURVE",
"265 378 OFFCURVE",
"267 379 CURVE",
"297 407 OFFCURVE",
"327 456 OFFCURVE",
"327 499 CURVE SMOOTH",
"327 538 OFFCURVE",
"303 563 OFFCURVE",
"266 563 CURVE SMOOTH",
"178 563 OFFCURVE",
"61 424 OFFCURVE",
"0 282 CURVE SMOOTH",
"-27 218 OFFCURVE",
"-41 158 OFFCURVE",
"-41 104 CURVE SMOOTH",
"-41 40 OFFCURVE",
"-18 0 OFFCURVE",
"21 0 CURVE SMOOTH",
"96 0 OFFCURVE",
"171 98 OFFCURVE",
"217 191 CURVE"
);
}
);
width = 898;
}
);
},
{
color = (255,153,254,255);
glyphname = a.999.1;
layers = (
{
hints = (
{
horizontal = 1;
place = "{-227, 225}";
type = Stem;
}
);
layerId = "12538090-4C57-4FAF-B923-C9DF6C947DDF";
paths = (
{
closed = 1;
nodes = (
"207 174 LINE",
"178 116 OFFCURVE",
"166 64 OFFCURVE",
"166 17 CURVE SMOOTH",
"166 -127 OFFCURVE",
"283 -220 OFFCURVE",
"412 -220 CURVE SMOOTH",
"632 -220 OFFCURVE",
"870 35 OFFCURVE",
"870 252 CURVE SMOOTH",
"870 336 OFFCURVE",
"834 422 OFFCURVE",
"738 422 CURVE SMOOTH",
"597 422 OFFCURVE",
"475 255 OFFCURVE",
"475 124 CURVE SMOOTH",
"475 61 OFFCURVE",
"500 7 OFFCURVE",
"547 -21 CURVE",
"553 -18 OFFCURVE",
"554 -14 OFFCURVE",
"550 -9 CURVE",
"512 16 OFFCURVE",
"490 60 OFFCURVE",
"490 116 CURVE SMOOTH",
"490 241 OFFCURVE",
"604 410 OFFCURVE",
"737 410 CURVE SMOOTH",
"822 410 OFFCURVE",
"850 343 OFFCURVE",
"850 270 CURVE SMOOTH",
"850 55 OFFCURVE",
"636 -208 OFFCURVE",
"412 -208 CURVE SMOOTH",
"297 -208 OFFCURVE",
"185 -126 OFFCURVE",
"185 15 CURVE SMOOTH",
"185 61 OFFCURVE",
"198 115 OFFCURVE",
"227 175 CURVE SMOOTH",
"299 325 LINE",
"368 353 OFFCURVE",
"421 429 OFFCURVE",
"425 492 CURVE",
"425 549 OFFCURVE",
"387 583 OFFCURVE",
"330 583 CURVE SMOOTH",
"171 583 OFFCURVE",
"-43 311 OFFCURVE",
"-43 108 CURVE SMOOTH",
"-43 43 OFFCURVE",
"-17 0 OFFCURVE",
"24 0 CURVE SMOOTH",
"75 0 OFFCURVE",
"160 82 OFFCURVE",
"210 168 CURVE"
);
},
{
closed = 1;
nodes = (
"383 571 OFFCURVE",
"406 541 OFFCURVE",
"406 493 CURVE",
"401 441 OFFCURVE",
"364 379 OFFCURVE",
"310 347 CURVE",
"368 470 LINE",
"338 470 LINE",
"276 332 LINE",
"263 329 OFFCURVE",
"250 327 OFFCURVE",
"238 327 CURVE SMOOTH",
"207 327 OFFCURVE",
"173 343 OFFCURVE",
"171 386 CURVE",
"159 386 LINE",
"161 334 OFFCURVE",
"208 315 OFFCURVE",
"245 315 CURVE SMOOTH",
"252 315 OFFCURVE",
"260 315 OFFCURVE",
"268 316 CURVE",
"221 214 LINE",
"166 110 OFFCURVE",
"79 14 OFFCURVE",
"26 14 CURVE SMOOTH",
"-5 14 OFFCURVE",
"-20 44 OFFCURVE",
"-20 94 CURVE SMOOTH",
"-20 295 OFFCURVE",
"183 571 OFFCURVE",
"332 571 CURVE SMOOTH"
);
}
);
width = 918;
},
{
layerId = "71F17050-D056-48DB-A6EA-6AFC75FA62B4";
paths = (
{
closed = 1;
nodes = (
"209 172 LINE",
"180 115 OFFCURVE",
"167 62 OFFCURVE",
"167 15 CURVE SMOOTH",
"167 -128 OFFCURVE",
"284 -221 OFFCURVE",
"413 -221 CURVE SMOOTH",
"634 -221 OFFCURVE",
"872 34 OFFCURVE",
"872 252 CURVE SMOOTH",
"872 336 OFFCURVE",
"837 421 OFFCURVE",
"742 421 CURVE SMOOTH",
"601 421 OFFCURVE",
"479 254 OFFCURVE",
"479 123 CURVE SMOOTH",
"479 60 OFFCURVE",
"503 7 OFFCURVE",
"548 -20 CURVE",
"553 -19 OFFCURVE",
"553 -15 OFFCURVE",
"550 -12 CURVE",
"512 13 OFFCURVE",
"490 58 OFFCURVE",
"490 115 CURVE SMOOTH",
"490 241 OFFCURVE",
"606 413 OFFCURVE",
"741 413 CURVE SMOOTH",
"828 413 OFFCURVE",
"856 344 OFFCURVE",
"856 270 CURVE SMOOTH",
"856 53 OFFCURVE",
"640 -213 OFFCURVE",
"413 -213 CURVE SMOOTH",
"297 -213 OFFCURVE",
"183 -130 OFFCURVE",
"183 13 CURVE SMOOTH",
"183 60 OFFCURVE",
"196 115 OFFCURVE",
"225 175 CURVE SMOOTH",
"298 327 LINE",
"368 354 OFFCURVE",
"421 430 OFFCURVE",
"425 493 CURVE",
"426 547 OFFCURVE",
"389 583 OFFCURVE",
"331 583 CURVE SMOOTH",
"171 583 OFFCURVE",
"-43 310 OFFCURVE",
"-43 107 CURVE SMOOTH",
"-43 43 OFFCURVE",
"-17 0 OFFCURVE",
"23 0 CURVE SMOOTH",
"74 0 OFFCURVE",
"159 82 OFFCURVE",
"209 169 CURVE"
);
},
{
closed = 1;
nodes = (
"386 575 OFFCURVE",
"411 542 OFFCURVE",
"409 494 CURVE",
"405 440 OFFCURVE",
"364 374 OFFCURVE",
"306 343 CURVE",
"366 470 LINE",
"340 470 LINE",
"278 331 LINE",
"264 328 OFFCURVE",
"251 326 OFFCURVE",
"238 326 CURVE SMOOTH",
"206 326 OFFCURVE",
"171 342 OFFCURVE",
"169 385 CURVE",
"160 385 LINE",
"162 335 OFFCURVE",
"209 317 OFFCURVE",
"245 317 CURVE SMOOTH",
"253 317 OFFCURVE",
"263 317 OFFCURVE",
"272 319 CURVE",
"223 213 LINE",
"167 107 OFFCURVE",
"79 10 OFFCURVE",
"25 10 CURVE SMOOTH",
"-8 10 OFFCURVE",
"-23 41 OFFCURVE",
"-23 93 CURVE SMOOTH",
"-23 296 OFFCURVE",
"182 575 OFFCURVE",
"333 575 CURVE SMOOTH"
);
}
);
width = 915;
},
{
hints = (
{
horizontal = 1;
place = "{-223, 217}";
type = Stem;
}
);
layerId = "16A2D4D5-7122-496F-87E2-41E3467D9F6F";
paths = (
{
closed = 1;
nodes = (
"211 170 LINE",
"182 113 OFFCURVE",
"169 60 OFFCURVE",
"169 13 CURVE SMOOTH",
"169 -130 OFFCURVE",
"285 -223 OFFCURVE",
"415 -223 CURVE SMOOTH",
"636 -223 OFFCURVE",
"875 33 OFFCURVE",
"875 252 CURVE SMOOTH",
"875 335 OFFCURVE",
"840 420 OFFCURVE",
"746 420 CURVE SMOOTH",
"605 420 OFFCURVE",
"483 253 OFFCURVE",
"483 122 CURVE SMOOTH",
"483 59 OFFCURVE",
"506 7 OFFCURVE",
"549 -19 CURVE",
"552 -20 OFFCURVE",
"552 -16 OFFCURVE",
"550 -15 CURVE",
"512 10 OFFCURVE",
"490 56 OFFCURVE",
"490 114 CURVE SMOOTH",
"490 242 OFFCURVE",
"608 416 OFFCURVE",
"745 416 CURVE SMOOTH",
"834 416 OFFCURVE",
"863 346 OFFCURVE",
"863 270 CURVE SMOOTH",
"863 50 OFFCURVE",
"644 -219 OFFCURVE",
"415 -219 CURVE SMOOTH",
"296 -219 OFFCURVE",
"181 -135 OFFCURVE",
"181 11 CURVE SMOOTH",
"181 59 OFFCURVE",
"194 114 OFFCURVE",
"223 175 CURVE SMOOTH",
"297 329 LINE",
"367 356 OFFCURVE",
"420 432 OFFCURVE",
"424 495 CURVE SMOOTH",
"427 545 OFFCURVE",
"391 583 OFFCURVE",
"332 583 CURVE SMOOTH",
"172 583 OFFCURVE",
"-43 309 OFFCURVE",
"-43 106 CURVE SMOOTH",
"-43 42 OFFCURVE",
"-18 0 OFFCURVE",
"21 0 CURVE SMOOTH",
"72 0 OFFCURVE",
"157 83 OFFCURVE",
"208 170 CURVE"
);
},
{
closed = 1;
nodes = (
"389 579 OFFCURVE",
"416 543 OFFCURVE",
"413 496 CURVE SMOOTH",
"409 438 OFFCURVE",
"364 369 OFFCURVE",
"302 339 CURVE",
"364 469 LINE",
"343 469 LINE",
"280 330 LINE",
"266 326 OFFCURVE",
"252 324 OFFCURVE",
"238 324 CURVE SMOOTH",
"205 324 OFFCURVE",
"168 340 OFFCURVE",
"166 383 CURVE",
"162 383 LINE",
"164 337 OFFCURVE",
"210 319 OFFCURVE",
"245 319 CURVE SMOOTH",
"255 319 OFFCURVE",
"266 320 OFFCURVE",
"276 323 CURVE",
"225 211 LINE",
"168 103 OFFCURVE",
"79 6 OFFCURVE",
"23 6 CURVE SMOOTH",
"-11 6 OFFCURVE",
"-27 38 OFFCURVE",
"-27 91 CURVE SMOOTH",
"-27 297 OFFCURVE",
"181 579 OFFCURVE",
"334 579 CURVE SMOOTH"
);
}
);
width = 918;
}
);
},
{
color = (255,153,254,255);
glyphname = a.5;
layers = (
{
hints = (
{
horizontal = 1;
place = "{-133, 131}";
type = Stem;
},
{
horizontal = 1;
place = "{567, -20}";
target = down;
type = TopGhost;
},
{
place = "{-50, 251}";
type = Stem;
}
);
layerId = "12538090-4C57-4FAF-B923-C9DF6C947DDF";
paths = (
{
closed = 1;
nodes = (
"216 194 LINE",
"190 134 OFFCURVE",
"181 88 OFFCURVE",
"181 54 CURVE SMOOTH",
"181 -26 OFFCURVE",
"223 -127 OFFCURVE",
"346 -127 CURVE SMOOTH",
"477 -127 OFFCURVE",
"556 -16 OFFCURVE",
"556 74 CURVE SMOOTH",
"556 143 OFFCURVE",
"505 193 OFFCURVE",
"454 193 CURVE SMOOTH",
"437 193 OFFCURVE",
"420 187 OFFCURVE",
"406 177 CURVE",
"398 171 OFFCURVE",
"406 161 OFFCURVE",
"412 166 CURVE",
"425 176 OFFCURVE",
"441 181 OFFCURVE",
"454 181 CURVE SMOOTH",
"499 181 OFFCURVE",
"542 142 OFFCURVE",
"542 80 CURVE SMOOTH",
"542 -4 OFFCURVE",
"469 -115 OFFCURVE",
"346 -115 CURVE SMOOTH",
"239 -115 OFFCURVE",
"202 -28 OFFCURVE",
"202 42 CURVE SMOOTH",
"202 78 OFFCURVE",
"216 148 OFFCURVE",
"244 204 CURVE SMOOTH",
"407 550 LINE",
"378 550 LINE",
"236 245 LINE SMOOTH",
"185 134 OFFCURVE",
"104 14 OFFCURVE",
"27 14 CURVE SMOOTH",
"-4 14 OFFCURVE",
"-19 44 OFFCURVE",
"-19 94 CURVE SMOOTH",
"-19 147 OFFCURVE",
"-2 210 OFFCURVE",
"24 270 CURVE SMOOTH",
"84 411 OFFCURVE",
"194 550 OFFCURVE",
"268 550 CURVE SMOOTH",
"295 550 OFFCURVE",
"310 532 OFFCURVE",
"310 502 CURVE SMOOTH",
"310 464 OFFCURVE",
"286 415 OFFCURVE",
"257 387 CURVE SMOOTH",
"253 383 OFFCURVE",
"254 378 OFFCURVE",
"260 375 CURVE",
"293 406 OFFCURVE",
"325 456 OFFCURVE",
"325 501 CURVE SMOOTH",
"325 538 OFFCURVE",
"302 563 OFFCURVE",
"266 563 CURVE SMOOTH",
"177 563 OFFCURVE",
"61 423 OFFCURVE",
"0 282 CURVE SMOOTH",
"-27 218 OFFCURVE",
"-40 161 OFFCURVE",
"-40 107 CURVE SMOOTH",
"-40 41 OFFCURVE",
"-17 0 OFFCURVE",
"25 0 CURVE SMOOTH",
"101 0 OFFCURVE",
"176 98 OFFCURVE",
"222 190 CURVE"
);
}
);
width = 403;
},
{
hints = (
{
horizontal = 1;
place = "{563, -20}";
target = down;
type = TopGhost;
}
);
layerId = "71F17050-D056-48DB-A6EA-6AFC75FA62B4";
paths = (
{
closed = 1;
nodes = (
"217 193 LINE",
"191 133 OFFCURVE",
"182 87 OFFCURVE",
"182 53 CURVE SMOOTH",
"182 -27 OFFCURVE",
"224 -128 OFFCURVE",
"346 -128 CURVE SMOOTH",
"477 -128 OFFCURVE",
"556 -17 OFFCURVE",
"556 73 CURVE SMOOTH",
"556 141 OFFCURVE",
"505 191 OFFCURVE",
"455 191 CURVE SMOOTH",
"438 191 OFFCURVE",
"422 185 OFFCURVE",
"409 176 CURVE",
"404 171 OFFCURVE",
"409 165 OFFCURVE",
"413 168 CURVE SMOOTH",
"426 177 OFFCURVE",
"441 182 OFFCURVE",
"455 182 CURVE SMOOTH",
"501 182 OFFCURVE",
"546 142 OFFCURVE",
"546 79 CURVE SMOOTH",
"546 -7 OFFCURVE",
"472 -120 OFFCURVE",
"346 -120 CURVE SMOOTH",
"237 -120 OFFCURVE",
"200 -31 OFFCURVE",
"200 41 CURVE SMOOTH",
"200 77 OFFCURVE",
"214 148 OFFCURVE",
"242 204 CURVE",
"405 550 LINE",
"380 550 LINE",
"237 244 LINE SMOOTH",
"186 132 OFFCURVE",
"104 10 OFFCURVE",
"25 10 CURVE SMOOTH",
"-7 10 OFFCURVE",
"-23 41 OFFCURVE",
"-23 93 CURVE SMOOTH",
"-23 147 OFFCURVE",
"-6 210 OFFCURVE",
"20 272 CURVE SMOOTH",
"81 415 OFFCURVE",
"192 554 OFFCURVE",
"268 554 CURVE SMOOTH",
"297 554 OFFCURVE",
"314 534 OFFCURVE",
"314 501 CURVE SMOOTH",
"314 462 OFFCURVE",
"290 413 OFFCURVE",
"261 385 CURVE SMOOTH",
"258 382 OFFCURVE",
"259 378 OFFCURVE",
"263 377 CURVE",
"295 406 OFFCURVE",
"326 456 OFFCURVE",
"326 500 CURVE SMOOTH",
"326 538 OFFCURVE",
"302 563 OFFCURVE",
"266 563 CURVE SMOOTH",
"177 563 OFFCURVE",
"61 423 OFFCURVE",
"0 282 CURVE SMOOTH",
"-27 218 OFFCURVE",
"-40 160 OFFCURVE",
"-40 106 CURVE SMOOTH",
"-40 41 OFFCURVE",
"-17 0 OFFCURVE",
"23 0 CURVE SMOOTH",
"99 0 OFFCURVE",
"174 98 OFFCURVE",
"220 190 CURVE"
);
}
);
width = 403;
},
{
hints = (
{
horizontal = 1;
place = "{-129, 123}";
type = Stem;
},
{
horizontal = 1;
place = "{563, -20}";
target = down;
type = TopGhost;
},
{
place = "{-46, 243}";
type = Stem;
}
);
layerId = "16A2D4D5-7122-496F-87E2-41E3467D9F6F";
paths = (
{
closed = 1;
nodes = (
"219 191 LINE",
"193 131 OFFCURVE",
"184 85 OFFCURVE",
"184 51 CURVE SMOOTH",
"184 -28 OFFCURVE",
"225 -129 OFFCURVE",
"347 -129 CURVE SMOOTH",
"477 -129 OFFCURVE",
"556 -18 OFFCURVE",
"556 71 CURVE SMOOTH",
"556 139 OFFCURVE",
"506 188 OFFCURVE",
"456 188 CURVE SMOOTH",
"440 188 OFFCURVE",
"425 183 OFFCURVE",
"413 174 CURVE",
"411 172 OFFCURVE",
"413 169 OFFCURVE",
"415 170 CURVE",
"427 179 OFFCURVE",
"442 184 OFFCURVE",
"456 184 CURVE SMOOTH",
"504 184 OFFCURVE",
"550 143 OFFCURVE",
"550 77 CURVE SMOOTH",
"550 -10 OFFCURVE",
"475 -125 OFFCURVE",
"347 -125 CURVE SMOOTH",
"235 -125 OFFCURVE",
"197 -34 OFFCURVE",
"197 39 CURVE SMOOTH",
"197 75 OFFCURVE",
"211 147 OFFCURVE",
"239 205 CURVE SMOOTH",
"403 550 LINE",
"382 550 LINE",
"239 242 LINE SMOOTH",
"187 129 OFFCURVE",
"103 6 OFFCURVE",
"23 6 CURVE SMOOTH",
"-11 6 OFFCURVE",
"-27 38 OFFCURVE",
"-27 91 CURVE SMOOTH",
"-27 146 OFFCURVE",
"-10 211 OFFCURVE",
"16 274 CURVE SMOOTH",
"77 420 OFFCURVE",
"190 558 OFFCURVE",
"268 558 CURVE SMOOTH",
"300 558 OFFCURVE",
"319 536 OFFCURVE",
"319 500 CURVE SMOOTH",
"319 460 OFFCURVE",
"295 410 OFFCURVE",
"266 382 CURVE",
"264 380 OFFCURVE",
"265 378 OFFCURVE",
"267 379 CURVE",
"297 407 OFFCURVE",
"327 456 OFFCURVE",
"327 499 CURVE SMOOTH",
"327 538 OFFCURVE",
"303 563 OFFCURVE",
"266 563 CURVE SMOOTH",
"178 563 OFFCURVE",
"61 424 OFFCURVE",
"0 282 CURVE SMOOTH",
"-27 218 OFFCURVE",
"-41 158 OFFCURVE",
"-41 104 CURVE SMOOTH",
"-41 40 OFFCURVE",
"-18 0 OFFCURVE",
"21 0 CURVE SMOOTH",
"96 0 OFFCURVE",
"171 98 OFFCURVE",
"217 191 CURVE"
);
}
);
width = 403;
}
);
},
{
color = (255,153,254,255);
glyphname = a.55;
layers = (
{
hints = (
{
place = "{-50, 254}";
type = Stem;
},
{
place = "{186, 111}";
type = Stem;
},
{
place = "{285, 182}";
type = Stem;
},
{
horizontal = 1;
place = "{-78, 76}";
type = Stem;
},
{
horizontal = 1;
place = "{-78, 252}";
type = Stem;
},
{
horizontal = 1;
place = "{567, -20}";
target = down;
type = TopGhost;
}
);
layerId = "12538090-4C57-4FAF-B923-C9DF6C947DDF";
paths = (
{
closed = 1;
nodes = (
"307 52 LINE",
"301 63 OFFCURVE",
"297 73 OFFCURVE",
"297 82 CURVE SMOOTH",
"297 119 OFFCURVE",
"330 164 OFFCURVE",
"383 164 CURVE SMOOTH",
"417 164 OFFCURVE",
"451 134 OFFCURVE",
"451 86 CURVE SMOOTH",
"451 24 OFFCURVE",
"404 -61 OFFCURVE",
"314 -61 CURVE SMOOTH",
"233 -61 OFFCURVE",
"205 5 OFFCURVE",
"205 67 CURVE SMOOTH",
"205 97 OFFCURVE",
"220 155 OFFCURVE",
"244 204 CURVE SMOOTH",
"407 550 LINE",
"378 550 LINE",
"236 245 LINE SMOOTH",
"185 134 OFFCURVE",
"104 14 OFFCURVE",
"27 14 CURVE SMOOTH",
"-4 14 OFFCURVE",
"-19 44 OFFCURVE",
"-19 94 CURVE SMOOTH",
"-19 146 OFFCURVE",
"-1 211 OFFCURVE",
"24 270 CURVE SMOOTH",
"85 412 OFFCURVE",
"194 550 OFFCURVE",
"268 550 CURVE SMOOTH",
"295 550 OFFCURVE",
"310 532 OFFCURVE",
"310 502 CURVE SMOOTH",
"310 464 OFFCURVE",
"286 415 OFFCURVE",
"257 387 CURVE SMOOTH",
"253 383 OFFCURVE",
"254 378 OFFCURVE",
"260 375 CURVE",
"293 406 OFFCURVE",
"325 456 OFFCURVE",
"325 501 CURVE SMOOTH",
"325 538 OFFCURVE",
"302 563 OFFCURVE",
"266 563 CURVE SMOOTH",
"177 563 OFFCURVE",
"61 424 OFFCURVE",
"0 282 CURVE SMOOTH",
"-27 219 OFFCURVE",
"-40 160 OFFCURVE",
"-40 107 CURVE SMOOTH",
"-40 41 OFFCURVE",
"-17 0 OFFCURVE",
"25 0 CURVE SMOOTH",
"101 0 OFFCURVE",
"176 98 OFFCURVE",
"222 190 CURVE",
"216 194 LINE",
"193 143 OFFCURVE",
"186 108 OFFCURVE",
"186 78 CURVE SMOOTH",
"186 4 OFFCURVE",
"224 -73 OFFCURVE",
"314 -73 CURVE SMOOTH",
"410 -73 OFFCURVE",
"464 13 OFFCURVE",
"464 80 CURVE SMOOTH",
"464 134 OFFCURVE",
"428 176 OFFCURVE",
"383 176 CURVE SMOOTH",
"324 176 OFFCURVE",
"285 125 OFFCURVE",
"285 82 CURVE SMOOTH",
"285 69 OFFCURVE",
"289 58 OFFCURVE",
"295 47 CURVE"
);
}
);
width = 403;
},
{
hints = (
{
horizontal = 1;
place = "{-73, 247}";
type = Stem;
},
{
horizontal = 1;
place = "{564, -20}";
target = down;
type = TopGhost;
},
{
place = "{287, 177}";
type = Stem;
}
);
layerId = "71F17050-D056-48DB-A6EA-6AFC75FA62B4";
paths = (
{
closed = 1;
nodes = (
"304 52 LINE",
"299 62 OFFCURVE",
"295 72 OFFCURVE",
"295 81 CURVE SMOOTH",
"295 120 OFFCURVE",
"330 166 OFFCURVE",
"384 166 CURVE SMOOTH",
"419 166 OFFCURVE",
"454 135 OFFCURVE",
"454 85 CURVE SMOOTH",
"454 22 OFFCURVE",
"407 -65 OFFCURVE",
"314 -65 CURVE SMOOTH",
"231 -65 OFFCURVE",
"203 3 OFFCURVE",
"203 66 CURVE SMOOTH",
"203 97 OFFCURVE",
"218 155 OFFCURVE",
"242 205 CURVE SMOOTH",
"405 551 LINE",
"380 551 LINE",
"238 244 LINE SMOOTH",
"186 132 OFFCURVE",
"104 11 OFFCURVE",
"25 11 CURVE SMOOTH",
"-7 11 OFFCURVE",
"-23 42 OFFCURVE",
"-23 93 CURVE SMOOTH",
"-23 147 OFFCURVE",
"-5 212 OFFCURVE",
"20 273 CURVE SMOOTH",
"81 417 OFFCURVE",
"192 555 OFFCURVE",
"268 555 CURVE SMOOTH",
"298 555 OFFCURVE",
"315 535 OFFCURVE",
"315 502 CURVE SMOOTH",
"315 463 OFFCURVE",
"290 413 OFFCURVE",
"261 385 CURVE SMOOTH",
"258 382 OFFCURVE",
"259 379 OFFCURVE",
"263 378 CURVE",
"295 407 OFFCURVE",
"326 457 OFFCURVE",
"326 501 CURVE SMOOTH",
"326 539 OFFCURVE",
"303 564 OFFCURVE",
"266 564 CURVE SMOOTH",
"178 564 OFFCURVE",
"61 425 OFFCURVE",
"0 283 CURVE SMOOTH",
"-27 219 OFFCURVE",
"-40 160 OFFCURVE",
"-40 106 CURVE SMOOTH",
"-40 41 OFFCURVE",
"-17 1 OFFCURVE",
"23 1 CURVE SMOOTH",
"99 1 OFFCURVE",
"174 99 OFFCURVE",
"220 191 CURVE",
"218 193 LINE",
"195 142 OFFCURVE",
"188 107 OFFCURVE",
"188 77 CURVE SMOOTH",
"188 4 OFFCURVE",
"225 -73 OFFCURVE",
"314 -73 CURVE SMOOTH",
"410 -73 OFFCURVE",
"464 13 OFFCURVE",
"464 79 CURVE SMOOTH",
"464 133 OFFCURVE",
"428 174 OFFCURVE",
"384 174 CURVE SMOOTH",
"326 174 OFFCURVE",
"287 124 OFFCURVE",
"287 81 CURVE SMOOTH",
"287 69 OFFCURVE",
"291 59 OFFCURVE",
"296 49 CURVE"
);
}
);
width = 404;
},
{
hints = (
{
place = "{-46, 246}";
type = Stem;
},
{
place = "{190, 103}";
type = Stem;
},
{
place = "{289, 174}";
type = Stem;
},
{
horizontal = 1;
place = "{-74, 68}";
type = Stem;
},
{
horizontal = 1;
place = "{-74, 244}";
type = Stem;
},
{
horizontal = 1;
place = "{563, -20}";
target = down;
type = TopGhost;
}
);
layerId = "16A2D4D5-7122-496F-87E2-41E3467D9F6F";
paths = (
{
closed = 1;
nodes = (
"301 51 LINE",
"296 60 OFFCURVE",
"293 69 OFFCURVE",
"293 79 CURVE SMOOTH",
"293 119 OFFCURVE",
"329 166 OFFCURVE",
"384 166 CURVE SMOOTH",
"421 166 OFFCURVE",
"457 135 OFFCURVE",
"457 83 CURVE SMOOTH",
"457 18 OFFCURVE",
"409 -70 OFFCURVE",
"314 -70 CURVE SMOOTH",
"229 -70 OFFCURVE",
"200 -1 OFFCURVE",
"200 64 CURVE SMOOTH",
"200 95 OFFCURVE",
"215 154 OFFCURVE",
"239 205 CURVE SMOOTH",
"403 550 LINE",
"382 550 LINE",
"239 242 LINE SMOOTH",
"187 129 OFFCURVE",
"103 6 OFFCURVE",
"23 6 CURVE SMOOTH",
"-11 6 OFFCURVE",
"-27 38 OFFCURVE",
"-27 91 CURVE SMOOTH",
"-27 146 OFFCURVE",
"-10 211 OFFCURVE",
"16 274 CURVE SMOOTH",
"77 420 OFFCURVE",
"190 558 OFFCURVE",
"268 558 CURVE SMOOTH",
"300 558 OFFCURVE",
"319 536 OFFCURVE",
"319 500 CURVE SMOOTH",
"319 460 OFFCURVE",
"295 410 OFFCURVE",
"266 382 CURVE",
"264 380 OFFCURVE",
"265 378 OFFCURVE",
"267 379 CURVE",
"297 407 OFFCURVE",
"327 456 OFFCURVE",
"327 499 CURVE SMOOTH",
"327 538 OFFCURVE",
"303 563 OFFCURVE",
"266 563 CURVE SMOOTH",
"178 563 OFFCURVE",
"61 424 OFFCURVE",
"0 282 CURVE SMOOTH",
"-27 218 OFFCURVE",
"-41 158 OFFCURVE",
"-41 104 CURVE SMOOTH",
"-41 40 OFFCURVE",
"-18 0 OFFCURVE",
"21 0 CURVE SMOOTH",
"96 0 OFFCURVE",
"171 98 OFFCURVE",
"217 191 CURVE",
"219 191 LINE",
"196 140 OFFCURVE",
"189 105 OFFCURVE",
"189 75 CURVE SMOOTH",
"189 2 OFFCURVE",
"226 -74 OFFCURVE",
"314 -74 CURVE SMOOTH",
"409 -74 OFFCURVE",
"463 11 OFFCURVE",
"463 77 CURVE SMOOTH",
"463 130 OFFCURVE",
"428 170 OFFCURVE",
"384 170 CURVE SMOOTH",
"327 170 OFFCURVE",
"289 121 OFFCURVE",
"289 79 CURVE SMOOTH",
"289 67 OFFCURVE",
"292 58 OFFCURVE",
"297 49 CURVE"
);
}
);
width = 403;
}
);
},
{
color = (255,153,254,255);
glyphname = a.555;
layers = (
{
hints = (
{
horizontal = 1;
place = "{-185, 29}";
type = Stem;
},
{
horizontal = 1;
place = "{567, -20}";
target = down;
type = TopGhost;
}
);
layerId = "12538090-4C57-4FAF-B923-C9DF6C947DDF";
paths = (
{
closed = 1;
nodes = (
"376 -118 LINE",
"364 -154 OFFCURVE",
"318 -164 OFFCURVE",
"291 -164 CURVE SMOOTH",
"233 -164 OFFCURVE",
"180 -104 OFFCURVE",
"180 -2 CURVE SMOOTH",
"180 55 OFFCURVE",
"212 139 OFFCURVE",
"244 204 CURVE SMOOTH",
"407 550 LINE",
"378 550 LINE",
"236 245 LINE SMOOTH",
"185 134 OFFCURVE",
"104 14 OFFCURVE",
"27 14 CURVE SMOOTH",
"-4 14 OFFCURVE",
"-19 44 OFFCURVE",
"-19 94 CURVE SMOOTH",
"-19 147 OFFCURVE",
"-1 211 OFFCURVE",
"24 270 CURVE SMOOTH",
"85 412 OFFCURVE",
"194 550 OFFCURVE",
"268 550 CURVE SMOOTH",
"295 550 OFFCURVE",
"310 532 OFFCURVE",
"310 502 CURVE SMOOTH",
"310 464 OFFCURVE",
"286 415 OFFCURVE",
"257 387 CURVE SMOOTH",
"253 383 OFFCURVE",
"254 378 OFFCURVE",
"260 375 CURVE",
"293 406 OFFCURVE",
"325 456 OFFCURVE",
"325 501 CURVE SMOOTH",
"325 538 OFFCURVE",
"302 563 OFFCURVE",
"266 563 CURVE SMOOTH",
"177 563 OFFCURVE",
"61 424 OFFCURVE",
"0 282 CURVE SMOOTH",
"-27 219 OFFCURVE",
"-40 160 OFFCURVE",
"-40 107 CURVE SMOOTH",
"-40 41 OFFCURVE",
"-17 0 OFFCURVE",
"25 0 CURVE SMOOTH",
"101 0 OFFCURVE",
"176 98 OFFCURVE",
"222 190 CURVE",
"216 194 LINE",
"181 123 OFFCURVE",
"168 58 OFFCURVE",
"168 -2 CURVE SMOOTH",
"168 -112 OFFCURVE",
"229 -178 OFFCURVE",
"297 -178 CURVE SMOOTH",
"327 -178 OFFCURVE",
"372 -164 OFFCURVE",
"387 -121 CURVE"
);
}
);
width = 408;
},
{
hints = (
{
horizontal = 1;
place = "{563, -20}";
target = down;
type = TopGhost;
}
);
layerId = "71F17050-D056-48DB-A6EA-6AFC75FA62B4";
paths = (
{
closed = 1;
nodes = (
"378 -123 LINE",
"366 -159 OFFCURVE",
"319 -169 OFFCURVE",
"291 -169 CURVE SMOOTH",
"232 -169 OFFCURVE",
"178 -108 OFFCURVE",
"178 -4 CURVE SMOOTH",
"178 54 OFFCURVE",
"210 139 OFFCURVE",
"242 204 CURVE SMOOTH",
"405 550 LINE",
"380 550 LINE",
"237 244 LINE SMOOTH",
"186 132 OFFCURVE",
"104 10 OFFCURVE",
"25 10 CURVE SMOOTH",
"-7 10 OFFCURVE",
"-23 41 OFFCURVE",
"-23 93 CURVE SMOOTH",
"-23 147 OFFCURVE",
"-5 211 OFFCURVE",
"20 272 CURVE SMOOTH",
"81 416 OFFCURVE",
"192 554 OFFCURVE",
"268 554 CURVE SMOOTH",
"297 554 OFFCURVE",
"314 534 OFFCURVE",
"314 501 CURVE SMOOTH",
"314 462 OFFCURVE",
"290 413 OFFCURVE",
"261 385 CURVE SMOOTH",
"258 382 OFFCURVE",
"259 378 OFFCURVE",
"263 377 CURVE",
"295 406 OFFCURVE",
"326 456 OFFCURVE",
"326 500 CURVE SMOOTH",
"326 538 OFFCURVE",
"302 563 OFFCURVE",
"266 563 CURVE SMOOTH",
"177 563 OFFCURVE",
"61 424 OFFCURVE",
"0 282 CURVE SMOOTH",
"-27 219 OFFCURVE",
"-40 159 OFFCURVE",
"-40 106 CURVE SMOOTH",
"-40 41 OFFCURVE",
"-17 0 OFFCURVE",
"23 0 CURVE SMOOTH",
"99 0 OFFCURVE",
"174 98 OFFCURVE",
"220 190 CURVE",
"217 193 LINE",
"182 122 OFFCURVE",
"169 56 OFFCURVE",
"169 -4 CURVE SMOOTH",
"169 -113 OFFCURVE",
"229 -179 OFFCURVE",
"297 -179 CURVE SMOOTH",
"327 -179 OFFCURVE",
"371 -166 OFFCURVE",
"386 -125 CURVE"
);
}
);
width = 410;
},
{
hints = (
{
horizontal = 1;
place = "{-181, 21}";
type = Stem;
},
{
horizontal = 1;
place = "{563, -20}";
target = down;
type = TopGhost;
}
);
layerId = "16A2D4D5-7122-496F-87E2-41E3467D9F6F";
paths = (
{
closed = 1;
nodes = (
"380 -129 LINE",
"368 -164 OFFCURVE",
"320 -174 OFFCURVE",
"291 -174 CURVE SMOOTH",
"230 -174 OFFCURVE",
"175 -113 OFFCURVE",
"175 -6 CURVE SMOOTH",
"175 53 OFFCURVE",
"207 138 OFFCURVE",
"239 205 CURVE SMOOTH",
"403 550 LINE",
"382 550 LINE",
"239 242 LINE SMOOTH",
"187 129 OFFCURVE",
"103 6 OFFCURVE",
"23 6 CURVE SMOOTH",
"-11 6 OFFCURVE",
"-27 38 OFFCURVE",
"-27 91 CURVE SMOOTH",
"-27 146 OFFCURVE",
"-10 211 OFFCURVE",
"16 274 CURVE SMOOTH",
"77 420 OFFCURVE",
"190 558 OFFCURVE",
"268 558 CURVE SMOOTH",
"300 558 OFFCURVE",
"319 536 OFFCURVE",
"319 500 CURVE SMOOTH",
"319 460 OFFCURVE",
"295 410 OFFCURVE",
"266 382 CURVE",
"264 380 OFFCURVE",
"265 378 OFFCURVE",
"267 379 CURVE",
"297 407 OFFCURVE",
"327 456 OFFCURVE",
"327 499 CURVE SMOOTH",
"327 538 OFFCURVE",
"303 563 OFFCURVE",
"266 563 CURVE SMOOTH",
"178 563 OFFCURVE",
"61 424 OFFCURVE",
"0 282 CURVE SMOOTH",
"-27 218 OFFCURVE",
"-41 158 OFFCURVE",
"-41 104 CURVE SMOOTH",
"-41 40 OFFCURVE",
"-18 0 OFFCURVE",
"21 0 CURVE SMOOTH",
"96 0 OFFCURVE",
"171 98 OFFCURVE",
"217 191 CURVE",
"219 191 LINE",
"184 120 OFFCURVE",
"170 54 OFFCURVE",
"170 -6 CURVE SMOOTH",
"170 -115 OFFCURVE",
"230 -181 OFFCURVE",
"297 -181 CURVE SMOOTH",
"327 -181 OFFCURVE",
"370 -168 OFFCURVE",
"384 -130 CURVE"
);
}
);
width = 408;
}
);
},
{
color = (255,153,254,255);
glyphname = a.9;
layers = (
{
hints = (
{
horizontal = 1;
place = "{-145, 29}";
type = Stem;
},
{
horizontal = 1;
place = "{567, -20}";
target = down;
type = TopGhost;
}
);
layerId = "12538090-4C57-4FAF-B923-C9DF6C947DDF";
paths = (
{
closed = 1;
nodes = (
"216 194 LINE",
"190 134 OFFCURVE",
"181 88 OFFCURVE",
"181 54 CURVE SMOOTH",
"181 -30 OFFCURVE",
"231 -139 OFFCURVE",
"363 -139 CURVE SMOOTH",
"491 -139 OFFCURVE",
"616 -27 OFFCURVE",
"616 107 CURVE SMOOTH",
"616 182 OFFCURVE",
"554 237 OFFCURVE",
"485 237 CURVE SMOOTH",
"397 237 OFFCURVE",
"329 164 OFFCURVE",
"329 91 CURVE SMOOTH",
"329 68 OFFCURVE",
"334 46 OFFCURVE",
"347 27 CURVE",
"354 24 OFFCURVE",
"357 26 OFFCURVE",
"358 33 CURVE",
"350 52 OFFCURVE",
"347 70 OFFCURVE",
"347 88 CURVE SMOOTH",
"347 157 OFFCURVE",
"401 224 OFFCURVE",
"484 224 CURVE SMOOTH",
"542 224 OFFCURVE",
"594 187 OFFCURVE",
"594 108 CURVE SMOOTH",
"594 -20 OFFCURVE",
"479 -127 OFFCURVE",
"363 -127 CURVE SMOOTH",
"247 -127 OFFCURVE",
"202 -31 OFFCURVE",
"202 42 CURVE SMOOTH",
"202 78 OFFCURVE",
"216 148 OFFCURVE",
"244 204 CURVE SMOOTH",
"407 550 LINE",
"378 550 LINE",
"236 245 LINE SMOOTH",
"185 134 OFFCURVE",
"104 14 OFFCURVE",
"27 14 CURVE SMOOTH",
"-4 14 OFFCURVE",
"-19 44 OFFCURVE",
"-19 94 CURVE SMOOTH",
"-19 146 OFFCURVE",
"-1 211 OFFCURVE",
"24 270 CURVE SMOOTH",
"85 412 OFFCURVE",
"194 550 OFFCURVE",
"268 550 CURVE SMOOTH",
"295 550 OFFCURVE",
"310 532 OFFCURVE",
"310 502 CURVE SMOOTH",
"310 464 OFFCURVE",
"286 415 OFFCURVE",
"257 387 CURVE SMOOTH",
"253 383 OFFCURVE",
"254 378 OFFCURVE",
"260 375 CURVE",
"293 406 OFFCURVE",
"325 456 OFFCURVE",
"325 501 CURVE SMOOTH",
"325 538 OFFCURVE",
"302 563 OFFCURVE",
"266 563 CURVE SMOOTH",
"177 563 OFFCURVE",
"61 424 OFFCURVE",
"0 282 CURVE SMOOTH",
"-27 219 OFFCURVE",
"-40 160 OFFCURVE",
"-40 107 CURVE SMOOTH",
"-40 41 OFFCURVE",
"-17 0 OFFCURVE",
"25 0 CURVE SMOOTH",
"101 0 OFFCURVE",
"176 98 OFFCURVE",
"222 190 CURVE"
);
}
);
width = 687;
},
{
hints = (
{
horizontal = 1;
place = "{563, -20}";
target = down;
type = TopGhost;
}
);
layerId = "71F17050-D056-48DB-A6EA-6AFC75FA62B4";
paths = (
{
closed = 1;
nodes = (
"217 193 LINE",
"191 133 OFFCURVE",
"182 87 OFFCURVE",
"182 53 CURVE SMOOTH",
"182 -31 OFFCURVE",
"232 -140 OFFCURVE",
"363 -140 CURVE SMOOTH",
"491 -140 OFFCURVE",
"616 -28 OFFCURVE",
"616 106 CURVE SMOOTH",
"616 181 OFFCURVE",
"555 235 OFFCURVE",
"486 235 CURVE SMOOTH",
"399 235 OFFCURVE",
"331 162 OFFCURVE",
"331 90 CURVE SMOOTH",
"331 67 OFFCURVE",
"337 47 OFFCURVE",
"348 28 CURVE",
"353 25 OFFCURVE",
"356 27 OFFCURVE",
"356 32 CURVE",
"349 51 OFFCURVE",
"346 68 OFFCURVE",
"346 87 CURVE SMOOTH",
"346 157 OFFCURVE",
"401 225 OFFCURVE",
"485 225 CURVE SMOOTH",
"545 225 OFFCURVE",
"598 188 OFFCURVE",
"598 107 CURVE SMOOTH",
"598 -23 OFFCURVE",
"481 -132 OFFCURVE",
"363 -132 CURVE SMOOTH",
"245 -132 OFFCURVE",
"200 -34 OFFCURVE",
"200 41 CURVE SMOOTH",
"200 77 OFFCURVE",
"214 148 OFFCURVE",
"242 204 CURVE",
"405 550 LINE",
"380 550 LINE",
"237 244 LINE SMOOTH",
"186 132 OFFCURVE",
"104 10 OFFCURVE",
"25 10 CURVE SMOOTH",
"-7 10 OFFCURVE",
"-23 41 OFFCURVE",
"-23 93 CURVE SMOOTH",
"-23 146 OFFCURVE",
"-5 211 OFFCURVE",
"20 272 CURVE SMOOTH",
"81 416 OFFCURVE",
"192 554 OFFCURVE",
"268 554 CURVE SMOOTH",
"297 554 OFFCURVE",
"314 534 OFFCURVE",
"314 501 CURVE SMOOTH",
"314 462 OFFCURVE",
"290 413 OFFCURVE",
"261 385 CURVE SMOOTH",
"258 382 OFFCURVE",
"259 378 OFFCURVE",
"263 377 CURVE",
"295 406 OFFCURVE",
"326 456 OFFCURVE",
"326 500 CURVE SMOOTH",
"326 538 OFFCURVE",
"302 563 OFFCURVE",
"266 563 CURVE SMOOTH",
"177 563 OFFCURVE",
"61 424 OFFCURVE",
"0 282 CURVE SMOOTH",
"-27 219 OFFCURVE",
"-40 159 OFFCURVE",
"-40 106 CURVE SMOOTH",
"-40 41 OFFCURVE",
"-17 0 OFFCURVE",
"23 0 CURVE SMOOTH",
"99 0 OFFCURVE",
"174 98 OFFCURVE",
"220 190 CURVE"
);
}
);
width = 686;
},
{
hints = (
{
horizontal = 1;
place = "{-141, 21}";
type = Stem;
},
{
horizontal = 1;
place = "{563, -20}";
target = down;
type = TopGhost;
}
);
layerId = "16A2D4D5-7122-496F-87E2-41E3467D9F6F";
paths = (
{
closed = 1;
nodes = (
"219 191 LINE",
"193 131 OFFCURVE",
"184 85 OFFCURVE",
"184 51 CURVE SMOOTH",
"184 -32 OFFCURVE",
"233 -141 OFFCURVE",
"364 -141 CURVE SMOOTH",
"492 -141 OFFCURVE",
"617 -29 OFFCURVE",
"617 104 CURVE SMOOTH",
"617 179 OFFCURVE",
"556 232 OFFCURVE",
"488 232 CURVE SMOOTH",
"401 232 OFFCURVE",
"334 160 OFFCURVE",
"334 88 CURVE SMOOTH",
"334 66 OFFCURVE",
"341 49 OFFCURVE",
"350 29 CURVE",
"352 27 OFFCURVE",
"354 28 OFFCURVE",
"354 31 CURVE",
"347 49 OFFCURVE",
"344 66 OFFCURVE",
"344 85 CURVE SMOOTH",
"344 157 OFFCURVE",
"401 227 OFFCURVE",
"487 227 CURVE SMOOTH",
"548 227 OFFCURVE",
"603 189 OFFCURVE",
"603 105 CURVE SMOOTH",
"603 -26 OFFCURVE",
"484 -137 OFFCURVE",
"364 -137 CURVE SMOOTH",
"243 -137 OFFCURVE",
"197 -38 OFFCURVE",
"197 39 CURVE SMOOTH",
"197 75 OFFCURVE",
"211 147 OFFCURVE",
"239 205 CURVE SMOOTH",
"403 550 LINE",
"382 550 LINE",
"239 242 LINE SMOOTH",
"187 129 OFFCURVE",
"103 6 OFFCURVE",
"23 6 CURVE SMOOTH",
"-11 6 OFFCURVE",
"-27 38 OFFCURVE",
"-27 91 CURVE SMOOTH",
"-27 146 OFFCURVE",
"-10 211 OFFCURVE",
"16 274 CURVE SMOOTH",
"77 420 OFFCURVE",
"190 558 OFFCURVE",
"268 558 CURVE SMOOTH",
"300 558 OFFCURVE",
"319 536 OFFCURVE",
"319 500 CURVE SMOOTH",
"319 460 OFFCURVE",
"295 410 OFFCURVE",
"266 382 CURVE",
"264 380 OFFCURVE",
"265 378 OFFCURVE",
"267 379 CURVE",
"297 407 OFFCURVE",
"327 456 OFFCURVE",
"327 499 CURVE SMOOTH",
"327 538 OFFCURVE",
"303 563 OFFCURVE",
"266 563 CURVE SMOOTH",
"178 563 OFFCURVE",
"61 424 OFFCURVE",
"0 282 CURVE SMOOTH",
"-27 218 OFFCURVE",
"-41 158 OFFCURVE",
"-41 104 CURVE SMOOTH",
"-41 40 OFFCURVE",
"-18 0 OFFCURVE",
"21 0 CURVE SMOOTH",
"96 0 OFFCURVE",
"171 98 OFFCURVE",
"217 191 CURVE"
);
}
);
width = 687;
}
);
},
{
color = (153,255,154,255);
glyphname = b;
layers = (
{
hints = (
{
horizontal = 1;
place = "{975, -20}";
target = down;
type = TopGhost;
}
);
layerId = "12538090-4C57-4FAF-B923-C9DF6C947DDF";
paths = (
{
closed = 1;
nodes = (
"82 0 OFFCURVE",
"157 102 OFFCURVE",
"202 174 CURVE",
"214 168 OFFCURVE",
"229 165 OFFCURVE",
"245 165 CURVE SMOOTH",
"303 165 OFFCURVE",
"353 207 OFFCURVE",
"388 276 CURVE",
"388 281 OFFCURVE",
"384 283 OFFCURVE",
"378 282 CURVE",
"346 219 OFFCURVE",
"300 177 OFFCURVE",
"247 177 CURVE SMOOTH",
"233 177 OFFCURVE",
"220 179 OFFCURVE",
"210 184 CURVE",
"263 269 OFFCURVE",
"329 393 OFFCURVE",
"329 497 CURVE SMOOTH",
"329 536 OFFCURVE",
"318 563 OFFCURVE",
"296 563 CURVE SMOOTH",
"240 563 OFFCURVE",
"149 385 OFFCURVE",
"149 276 CURVE SMOOTH",
"149 239 OFFCURVE",
"159 203 OFFCURVE",
"183 184 CURVE",
"119 77 OFFCURVE",
"50 13 OFFCURVE",
"-12 13 CURVE SMOOTH",
"-35 13 OFFCURVE",
"-54 41 OFFCURVE",
"-54 82 CURVE SMOOTH",
"-54 103 OFFCURVE",
"-49 127 OFFCURVE",
"-37 152 CURVE SMOOTH",
"341 965 LINE",
"313 965 LINE",
"0 282 LINE",
"-54 165 LINE",
"-66 137 OFFCURVE",
"-71 111 OFFCURVE",
"-71 89 CURVE SMOOTH",
"-71 39 OFFCURVE",
"-47 0 OFFCURVE",
"-13 0 CURVE SMOOTH"
);
},
{
closed = 1;
nodes = (
"163 376 OFFCURVE",
"247 550 OFFCURVE",
"296 550 CURVE SMOOTH",
"308 550 OFFCURVE",
"314 534 OFFCURVE",
"314 512 CURVE SMOOTH",
"314 422 OFFCURVE",
"235 272 OFFCURVE",
"189 196 CURVE",
"170 213 OFFCURVE",
"163 243 OFFCURVE",
"163 273 CURVE SMOOTH"
);
}
);
width = 376;
},
{
hints = (
{
horizontal = 1;
place = "{968, -20}";
target = down;
type = TopGhost;
}
);
layerId = "71F17050-D056-48DB-A6EA-6AFC75FA62B4";
paths = (
{
closed = 1;
nodes = (
"67 -3 OFFCURVE",
"145 87 OFFCURVE",
"201 175 CURVE",
"213 169 OFFCURVE",
"228 166 OFFCURVE",
"245 166 CURVE SMOOTH",
"301 166 OFFCURVE",
"350 208 OFFCURVE",
"384 278 CURVE",
"384 281 OFFCURVE",
"381 283 OFFCURVE",
"377 282 CURVE",
"346 217 OFFCURVE",
"300 174 OFFCURVE",
"247 174 CURVE SMOOTH",
"231 174 OFFCURVE",
"218 177 OFFCURVE",
"207 183 CURVE",
"260 268 OFFCURVE",
"328 394 OFFCURVE",
"328 498 CURVE SMOOTH",
"328 537 OFFCURVE",
"317 563 OFFCURVE",
"296 563 CURVE SMOOTH",
"240 563 OFFCURVE",
"150 385 OFFCURVE",
"150 276 CURVE SMOOTH",
"150 239 OFFCURVE",
"160 203 OFFCURVE",
"185 184 CURVE",
"119 73 OFFCURVE",
"50 7 OFFCURVE",
"-14 9 CURVE SMOOTH",
"-38 10 OFFCURVE",
"-58 39 OFFCURVE",
"-58 81 CURVE SMOOTH",
"-58 102 OFFCURVE",
"-53 126 OFFCURVE",
"-41 152 CURVE SMOOTH",
"339 968 LINE",
"314 968 LINE",
"0 282 LINE",
"-54 163 LINE SMOOTH",
"-66 135 OFFCURVE",
"-71 110 OFFCURVE",
"-71 88 CURVE SMOOTH",
"-71 38 OFFCURVE",
"-47 1 OFFCURVE",
"-15 0 CURVE SMOOTH"
);
},
{
closed = 1;
nodes = (
"160 377 OFFCURVE",
"246 554 OFFCURVE",
"296 554 CURVE SMOOTH",
"309 554 OFFCURVE",
"316 537 OFFCURVE",
"316 513 CURVE SMOOTH",
"316 422 OFFCURVE",
"236 270 OFFCURVE",
"189 193 CURVE",
"168 210 OFFCURVE",
"160 241 OFFCURVE",
"160 273 CURVE SMOOTH"
);
}
);
width = 377;
},
{
hints = (
{
horizontal = 1;
place = "{971, -20}";
target = down;
type = TopGhost;
}
);
layerId = "16A2D4D5-7122-496F-87E2-41E3467D9F6F";
paths = (
{
closed = 1;
nodes = (
"52 -7 OFFCURVE",
"132 71 OFFCURVE",
"200 177 CURVE",
"212 171 OFFCURVE",
"227 167 OFFCURVE",
"244 167 CURVE SMOOTH",
"299 167 OFFCURVE",
"347 210 OFFCURVE",
"379 280 CURVE SMOOTH",
"380 282 OFFCURVE",
"378 283 OFFCURVE",
"376 282 CURVE",
"346 215 OFFCURVE",
"300 171 OFFCURVE",
"247 171 CURVE SMOOTH",
"229 171 OFFCURVE",
"215 175 OFFCURVE",
"203 181 CURVE",
"257 267 OFFCURVE",
"326 396 OFFCURVE",
"326 500 CURVE SMOOTH",
"326 538 OFFCURVE",
"316 563 OFFCURVE",
"296 563 CURVE SMOOTH",
"241 563 OFFCURVE",
"151 384 OFFCURVE",
"151 276 CURVE SMOOTH",
"151 238 OFFCURVE",
"161 202 OFFCURVE",
"187 184 CURVE",
"119 69 OFFCURVE",
"51 1 OFFCURVE",
"-16 5 CURVE SMOOTH",
"-42 6 OFFCURVE",
"-63 36 OFFCURVE",
"-63 79 CURVE SMOOTH",
"-63 100 OFFCURVE",
"-58 125 OFFCURVE",
"-46 152 CURVE SMOOTH",
"336 971 LINE",
"316 971 LINE",
"0 282 LINE",
"-55 161 LINE SMOOTH",
"-67 133 OFFCURVE",
"-72 108 OFFCURVE",
"-72 86 CURVE SMOOTH",
"-72 36 OFFCURVE",
"-46 2 OFFCURVE",
"-17 0 CURVE"
);
},
{
closed = 1;
nodes = (
"157 378 OFFCURVE",
"245 558 OFFCURVE",
"296 558 CURVE SMOOTH",
"311 558 OFFCURVE",
"318 541 OFFCURVE",
"318 515 CURVE SMOOTH",
"318 421 OFFCURVE",
"237 268 OFFCURVE",
"189 189 CURVE",
"165 206 OFFCURVE",
"157 239 OFFCURVE",
"157 273 CURVE SMOOTH"
);
}
);
width = 376;
}
);
unicode = 0062;
},
{
color = (255,153,254,255);
glyphname = b.baja;
layers = (
{
associatedMasterId = "16A2D4D5-7122-496F-87E2-41E3467D9F6F";
layerId = "E2C39D0A-5B42-4E5B-94C5-696579E2657D";
name = public.background;
paths = (
{
closed = 1;
nodes = (
"55 -7 OFFCURVE",
"135 71 OFFCURVE",
"203 177 CURVE",
"212 173 OFFCURVE",
"224 171 OFFCURVE",
"237 171 CURVE SMOOTH",
"277 171 OFFCURVE",
"350 214 OFFCURVE",
"392 280 CURVE",
"389 282 LINE",
"349 219 OFFCURVE",
"277 175 OFFCURVE",
"240 175 CURVE SMOOTH",
"226 175 OFFCURVE",
"215 177 OFFCURVE",
"206 181 CURVE",
"247 246 OFFCURVE",
"283 320 OFFCURVE",
"311 392 CURVE SMOOTH",
"339 461 OFFCURVE",
"343 548 OFFCURVE",
"303 548 CURVE SMOOTH",
"251 548 OFFCURVE",
"168 414 OFFCURVE",
"156 305 CURVE SMOOTH",
"151 257 OFFCURVE",
"157 207 OFFCURVE",
"190 184 CURVE",
"122 69 OFFCURVE",
"54 1 OFFCURVE",
"-13 5 CURVE SMOOTH",
"-52 7 OFFCURVE",
"-80 72 OFFCURVE",
"-43 152 CURVE SMOOTH",
"277 837 LINE",
"257 837 LINE",
"-52 161 LINE SMOOTH",
"-92 72 OFFCURVE",
"-56 4 OFFCURVE",
"-14 0 CURVE SMOOTH"
);
},
{
closed = 1;
nodes = (
"174 412 OFFCURVE",
"256 543 OFFCURVE",
"303 543 CURVE SMOOTH",
"340 543 OFFCURVE",
"322 459 OFFCURVE",
"287 377 CURVE",
"255 306 OFFCURVE",
"224 242 OFFCURVE",
"192 189 CURVE",
"162 211 OFFCURVE",
"157 258 OFFCURVE",
"162 301 CURVE SMOOTH"
);
}
);
width = 379;
},
{
hints = (
{
horizontal = 1;
place = "{841, -20}";
target = down;
type = TopGhost;
}
);
layerId = "12538090-4C57-4FAF-B923-C9DF6C947DDF";
paths = (
{
closed = 1;
nodes = (
"252 833 LINE",
"0 282 LINE",
"-53 165 LINE SMOOTH",
"-65 137 OFFCURVE",
"-70 111 OFFCURVE",
"-70 89 CURVE SMOOTH",
"-70 53 OFFCURVE",
"-52 0 OFFCURVE",
"-8 0 CURVE SMOOTH",
"85 0 OFFCURVE",
"159 103 OFFCURVE",
"203 174 CURVE",
"215 168 OFFCURVE",
"230 165 OFFCURVE",
"246 165 CURVE SMOOTH",
"304 165 OFFCURVE",
"355 207 OFFCURVE",
"389 276 CURVE",
"388 281 OFFCURVE",
"384 283 OFFCURVE",
"379 282 CURVE",
"348 219 OFFCURVE",
"301 177 OFFCURVE",
"248 177 CURVE SMOOTH",
"234 177 OFFCURVE",
"221 179 OFFCURVE",
"211 184 CURVE",
"236 223 OFFCURVE",
"263 270 OFFCURVE",
"285 320 CURVE SMOOTH",
"311 378 OFFCURVE",
"330 440 OFFCURVE",
"330 497 CURVE SMOOTH",
"330 536 OFFCURVE",
"319 563 OFFCURVE",
"297 563 CURVE SMOOTH",
"241 563 OFFCURVE",
"150 385 OFFCURVE",
"150 276 CURVE SMOOTH",
"150 239 OFFCURVE",
"160 203 OFFCURVE",
"184 184 CURVE",
"120 77 OFFCURVE",
"51 13 OFFCURVE",
"-11 13 CURVE SMOOTH",
"-34 13 OFFCURVE",
"-53 41 OFFCURVE",
"-53 82 CURVE SMOOTH",
"-53 103 OFFCURVE",
"-48 127 OFFCURVE",
"-36 152 CURVE SMOOTH",
"281 833 LINE"
);
},
{
closed = 1;
nodes = (
"171 213 OFFCURVE",
"164 243 OFFCURVE",
"164 273 CURVE SMOOTH",
"164 376 OFFCURVE",
"248 550 OFFCURVE",
"297 550 CURVE SMOOTH",
"309 550 OFFCURVE",
"315 534 OFFCURVE",
"315 512 CURVE SMOOTH",
"315 463 OFFCURVE",
"292 397 OFFCURVE",
"263 334 CURVE SMOOTH",
"239 281 OFFCURVE",
"211 231 OFFCURVE",
"190 196 CURVE"
);
}
);
width = 376;
},
{
hints = (
{
horizontal = 1;
place = "{835, -20}";
target = down;
type = TopGhost;
}
);
layerId = "71F17050-D056-48DB-A6EA-6AFC75FA62B4";
paths = (
{
closed = 1;
nodes = (
"253 835 LINE",
"0 282 LINE",
"-54 163 LINE SMOOTH",
"-66 135 OFFCURVE",
"-71 110 OFFCURVE",
"-71 88 CURVE SMOOTH",
"-71 51 OFFCURVE",
"-53 0 OFFCURVE",
"-9 0 CURVE SMOOTH",
"71 0 OFFCURVE",
"147 89 OFFCURVE",
"202 175 CURVE",
"214 169 OFFCURVE",
"229 166 OFFCURVE",
"245 166 CURVE SMOOTH",
"302 166 OFFCURVE",
"352 208 OFFCURVE",
"385 278 CURVE",
"385 281 OFFCURVE",
"381 283 OFFCURVE",
"378 282 CURVE",
"347 217 OFFCURVE",
"301 174 OFFCURVE",
"248 174 CURVE SMOOTH",
"232 174 OFFCURVE",
"218 177 OFFCURVE",
"207 183 CURVE",
"240 234 OFFCURVE",
"271 295 OFFCURVE",
"290 340 CURVE SMOOTH",
"313 395 OFFCURVE",
"328 451 OFFCURVE",
"328 498 CURVE SMOOTH",
"328 537 OFFCURVE",
"318 563 OFFCURVE",
"297 563 CURVE",
"241 563 OFFCURVE",
"150 385 OFFCURVE",
"150 276 CURVE SMOOTH",
"150 239 OFFCURVE",
"160 203 OFFCURVE",
"185 184 CURVE",
"120 75 OFFCURVE",
"53 9 OFFCURVE",
"-11 9 CURVE SMOOTH",
"-42 9 OFFCURVE",
"-58 43 OFFCURVE",
"-58 81 CURVE SMOOTH",
"-58 102 OFFCURVE",
"-53 126 OFFCURVE",
"-41 152 CURVE SMOOTH",
"278 835 LINE"
);
},
{
closed = 1;
nodes = (
"168 210 OFFCURVE",
"161 241 OFFCURVE",
"161 273 CURVE SMOOTH",
"161 377 OFFCURVE",
"247 554 OFFCURVE",
"297 554 CURVE SMOOTH",
"310 554 OFFCURVE",
"316 537 OFFCURVE",
"316 513 CURVE SMOOTH",
"316 471 OFFCURVE",
"298 411 OFFCURVE",
"273 355 CURVE SMOOTH",
"246 293 OFFCURVE",
"216 236 OFFCURVE",
"190 193 CURVE"
);
}
);
width = 378;
},
{
hints = (
{
horizontal = 1;
place = "{837, -20}";
target = down;
type = TopGhost;
}
);
layerId = "16A2D4D5-7122-496F-87E2-41E3467D9F6F";
paths = (
{
closed = 1;
nodes = (
"254 837 LINE",
"0 282 LINE",
"-55 161 LINE SMOOTH",
"-67 133 OFFCURVE",
"-72 108 OFFCURVE",
"-72 86 CURVE SMOOTH",
"-72 49 OFFCURVE",
"-55 0 OFFCURVE",
"-11 0 CURVE SMOOTH",
"57 0 OFFCURVE",
"134 74 OFFCURVE",
"200 177 CURVE",
"212 171 OFFCURVE",
"227 167 OFFCURVE",
"244 167 CURVE SMOOTH",
"299 167 OFFCURVE",
"347 210 OFFCURVE",
"379 280 CURVE SMOOTH",
"380 282 OFFCURVE",
"378 283 OFFCURVE",
"376 282 CURVE",
"346 215 OFFCURVE",
"300 171 OFFCURVE",
"247 171 CURVE SMOOTH",
"229 171 OFFCURVE",
"215 175 OFFCURVE",
"203 181 CURVE",
"244 246 OFFCURVE",
"280 320 OFFCURVE",
"296 361 CURVE SMOOTH",
"316 412 OFFCURVE",
"326 462 OFFCURVE",
"326 500 CURVE SMOOTH",
"326 538 OFFCURVE",
"316 564 OFFCURVE",
"296 563 CURVE SMOOTH",
"241 563 OFFCURVE",
"151 384 OFFCURVE",
"151 276 CURVE SMOOTH",
"151 238 OFFCURVE",
"161 202 OFFCURVE",
"187 184 CURVE",
"121 72 OFFCURVE",
"55 5 OFFCURVE",
"-10 5 CURVE SMOOTH",
"-50 5 OFFCURVE",
"-63 46 OFFCURVE",
"-63 79 CURVE SMOOTH",
"-63 100 OFFCURVE",
"-58 125 OFFCURVE",
"-46 152 CURVE SMOOTH",
"274 837 LINE"
);
},
{
closed = 1;
nodes = (
"165 206 OFFCURVE",
"157 239 OFFCURVE",
"157 273 CURVE SMOOTH",
"157 378 OFFCURVE",
"245 558 OFFCURVE",
"296 558 CURVE SMOOTH",
"311 558 OFFCURVE",
"318 541 OFFCURVE",
"318 515 CURVE SMOOTH",
"318 479 OFFCURVE",
"305 425 OFFCURVE",
"284 377 CURVE SMOOTH",
"253 306 OFFCURVE",
"221 242 OFFCURVE",
"189 189 CURVE"
);
}
);
width = 376;
}
);
},
{
color = (255,153,254,255);
glyphname = b.7;
layers = (
{
associatedMasterId = "16A2D4D5-7122-496F-87E2-41E3467D9F6F";
hints = (
{
horizontal = 1;
place = "{1134, -20}";
target = down;
type = TopGhost;
}
);
layerId = "F6B66510-6D57-4CCF-9874-51AD274B4C15";
name = Regular.1;
paths = (
{
closed = 1;
nodes = (
"61 380 LINE SMOOTH",
"143 554 OFFCURVE",
"243 771 OFFCURVE",
"409 924 CURVE",
"592 827 OFFCURVE",
"858 693 OFFCURVE",
"1067 693 CURVE SMOOTH",
"1220 693 OFFCURVE",
"1306 781 OFFCURVE",
"1306 878 CURVE SMOOTH",
"1306 992 OFFCURVE",
"1179 1117 OFFCURVE",
"922 1124 CURVE",
"898 1124 LINE SMOOTH",
"686 1124 OFFCURVE",
"520 1048 OFFCURVE",
"395 936 CURVE",
"204 1032 OFFCURVE",
"-16 1134 OFFCURVE",
"-195 1134 CURVE SMOOTH",
"-497 1134 OFFCURVE",
"-651 950 OFFCURVE",
"-651 807 CURVE SMOOTH",
"-651 753 OFFCURVE",
"-617 683 OFFCURVE",
"-541 683 CURVE SMOOTH",
"-538 683 OFFCURVE",
"-536 684 OFFCURVE",
"-533 684 CURVE",
"-533 687 LINE",
"-538 687 LINE SMOOTH",
"-611 687 OFFCURVE",
"-641 750 OFFCURVE",
"-641 801 CURVE SMOOTH",
"-641 942 OFFCURVE",
"-478 1124 OFFCURVE",
"-178 1124 CURVE SMOOTH",
"-11 1124 OFFCURVE",
"201 1029 OFFCURVE",
"391 932 CURVE",
"239 792 OFFCURVE",
"145 594 OFFCURVE",
"64 419 CURVE SMOOTH",
"0 282 LINE",
"-55 161 LINE SMOOTH",
"-95 72 OFFCURVE",
"-59 4 OFFCURVE",
"-17 0 CURVE SMOOTH",
"52 -7 OFFCURVE",
"132 71 OFFCURVE",
"200 177 CURVE",
"212 171 OFFCURVE",
"227 167 OFFCURVE",
"244 167 CURVE SMOOTH",
"299 167 OFFCURVE",
"347 210 OFFCURVE",
"379 280 CURVE SMOOTH",
"380 282 OFFCURVE",
"378 283 OFFCURVE",
"376 282 CURVE",
"346 215 OFFCURVE",
"300 171 OFFCURVE",
"247 171 CURVE SMOOTH",
"229 171 OFFCURVE",
"215 175 OFFCURVE",
"203 181 CURVE",
"244 246 OFFCURVE",
"280 320 OFFCURVE",
"308 392 CURVE SMOOTH",
"336 461 OFFCURVE",
"340 548 OFFCURVE",
"300 548 CURVE SMOOTH",
"248 548 OFFCURVE",
"165 414 OFFCURVE",
"153 305 CURVE SMOOTH",
"148 257 OFFCURVE",
"154 207 OFFCURVE",
"187 184 CURVE",
"119 69 OFFCURVE",
"51 1 OFFCURVE",
"-16 5 CURVE SMOOTH",
"-55 7 OFFCURVE",
"-83 72 OFFCURVE",
"-46 152 CURVE SMOOTH"
);
},
{
closed = 1;
nodes = (
"922 1119 LINE",
"1174 1114 OFFCURVE",
"1288 993 OFFCURVE",
"1288 882 CURVE SMOOTH",
"1288 787 OFFCURVE",
"1204 701 OFFCURVE",
"1053 701 CURVE SMOOTH",
"853 701 OFFCURVE",
"589 836 OFFCURVE",
"413 927 CURVE",
"539 1040 OFFCURVE",
"698 1119 OFFCURVE",
"905 1119 CURVE SMOOTH"
);
},
{
closed = 1;
nodes = (
"171 412 OFFCURVE",
"253 543 OFFCURVE",
"300 543 CURVE SMOOTH",
"337 543 OFFCURVE",
"319 459 OFFCURVE",
"284 377 CURVE",
"252 306 OFFCURVE",
"221 242 OFFCURVE",
"189 189 CURVE",
"159 211 OFFCURVE",
"154 258 OFFCURVE",
"159 301 CURVE SMOOTH"
);
}
);
width = 376;
},
{
hints = (
{
horizontal = 1;
place = "{1138, -20}";
target = down;
type = TopGhost;
}
);
layerId = "12538090-4C57-4FAF-B923-C9DF6C947DDF";
paths = (
{
closed = 1;
nodes = (
"240 563 OFFCURVE",
"149 385 OFFCURVE",
"149 276 CURVE SMOOTH",
"149 239.597 OFFCURVE",
"158.195 203.203 OFFCURVE",
"182.703 183.504 CURVE",
"118.787 76.802 OFFCURVE",
"49.904 13 OFFCURVE",
"-12 13 CURVE SMOOTH",
"-35 13 OFFCURVE",
"-54 41 OFFCURVE",
"-54 82 CURVE SMOOTH",
"-54 103 OFFCURVE",
"-49 127 OFFCURVE",
"-37 152 CURVE SMOOTH",
"68 377 LINE SMOOTH",
"148 546 OFFCURVE",
"258 761 OFFCURVE",
"410 910 CURVE",
"563 812 OFFCURVE",
"784 677 OFFCURVE",
"965 677 CURVE SMOOTH",
"1101 677 OFFCURVE",
"1202 759 OFFCURVE",
"1202 870 CURVE SMOOTH",
"1202 1011 OFFCURVE",
"1047 1116 OFFCURVE",
"836 1116 CURVE SMOOTH",
"680 1116 OFFCURVE",
"531 1068 OFFCURVE",
"396 932 CURVE",
"228 1026 OFFCURVE",
"36 1126 OFFCURVE",
"-145 1126 CURVE SMOOTH",
"-348 1126 OFFCURVE",
"-526 977 OFFCURVE",
"-526 808 CURVE SMOOTH",
"-526 731 OFFCURVE",
"-486 673 OFFCURVE",
"-431 673 CURVE SMOOTH",
"-425 673 OFFCURVE",
"-421 674 OFFCURVE",
"-415 674 CURVE",
"-411 678 OFFCURVE",
"-411 681 OFFCURVE",
"-415 685 CURVE",
"-423 685 LINE SMOOTH",
"-475 685 OFFCURVE",
"-510 732 OFFCURVE",
"-510 801 CURVE SMOOTH",
"-510 962 OFFCURVE",
"-330 1108 OFFCURVE",
"-132 1108 CURVE SMOOTH",
"38 1108 OFFCURVE",
"222 1016 OFFCURVE",
"386 922 CURVE",
"247 786 OFFCURVE",
"141 589 OFFCURVE",
"63 419 CURVE SMOOTH",
"0 282 LINE",
"-54 165 LINE SMOOTH",
"-67 137 OFFCURVE",
"-71 111 OFFCURVE",
"-71 89 CURVE SMOOTH",
"-71 53 OFFCURVE",
"-53 0 OFFCURVE",
"-9 0 CURVE SMOOTH",
"84 0 OFFCURVE",
"158 103 OFFCURVE",
"202 174 CURVE",
"214 168 OFFCURVE",
"229 165 OFFCURVE",
"245 165 CURVE SMOOTH",
"300 165 OFFCURVE",
"347 207 OFFCURVE",
"380 276 CURVE",
"380 283 OFFCURVE",
"376 284 OFFCURVE",
"370 282 CURVE",
"340 219 OFFCURVE",
"297 177 OFFCURVE",
"247 177 CURVE SMOOTH",
"233 177 OFFCURVE",
"220 179 OFFCURVE",
"210 184 CURVE",
"237 228 OFFCURVE",
"268 282 OFFCURVE",
"291 338 CURVE SMOOTH",
"313 391 OFFCURVE",
"329 447 OFFCURVE",
"329 497 CURVE SMOOTH",
"329 536 OFFCURVE",
"318 563 OFFCURVE",
"296 563 CURVE SMOOTH"
);
},
{
closed = 1;
nodes = (
"549 1047 OFFCURVE",
"686 1103 OFFCURVE",
"844 1103 CURVE SMOOTH",
"1039 1103 OFFCURVE",
"1178 1009 OFFCURVE",
"1178 875 CURVE SMOOTH",
"1178 770 OFFCURVE",
"1085 693 OFFCURVE",
"957 693 CURVE SMOOTH",
"783 693 OFFCURVE",
"566 827 OFFCURVE",
"419 919 CURVE"
);
},
{
closed = 1;
nodes = (
"170 213 OFFCURVE",
"163 243 OFFCURVE",
"163 273 CURVE SMOOTH",
"163 376 OFFCURVE",
"247 550 OFFCURVE",
"296 550 CURVE SMOOTH",
"308 550 OFFCURVE",
"314 534 OFFCURVE",
"314 512 CURVE SMOOTH",
"314 468 OFFCURVE",
"295 409 OFFCURVE",
"270 352 CURVE SMOOTH",
"244 293 OFFCURVE",
"212 235 OFFCURVE",
"189 196 CURVE"
);
}
);
width = 376;
},
{
hints = (
{
horizontal = 1;
place = "{1130, -20}";
target = down;
type = TopGhost;
}
);
layerId = "71F17050-D056-48DB-A6EA-6AFC75FA62B4";
paths = (
{
closed = 1;
nodes = (
"240 563 OFFCURVE",
"150 385 OFFCURVE",
"150 276 CURVE SMOOTH",
"150 239 OFFCURVE",
"160 203 OFFCURVE",
"185 184 CURVE",
"120 74 OFFCURVE",
"52 9 OFFCURVE",
"-11 9 CURVE SMOOTH",
"-42 9 OFFCURVE",
"-58 43 OFFCURVE",
"-58 81 CURVE SMOOTH",
"-58 102 OFFCURVE",
"-53 126 OFFCURVE",
"-41 152 CURVE SMOOTH",
"65 378 LINE SMOOTH",
"146 550 OFFCURVE",
"256 766 OFFCURVE",
"410 917 CURVE",
"564 818 OFFCURVE",
"788 682 OFFCURVE",
"970 682 CURVE SMOOTH",
"1106 682 OFFCURVE",
"1206 763 OFFCURVE",
"1206 874 CURVE SMOOTH",
"1206 1015 OFFCURVE",
"1051 1120 OFFCURVE",
"840 1120 CURVE SMOOTH",
"683 1120 OFFCURVE",
"533 1071 OFFCURVE",
"397 934 CURVE",
"228 1029 OFFCURVE",
"34 1130 OFFCURVE",
"-148 1130 CURVE SMOOTH",
"-351 1130 OFFCURVE",
"-530 981 OFFCURVE",
"-530 812 CURVE SMOOTH",
"-530 735 OFFCURVE",
"-490 678 OFFCURVE",
"-436 678 CURVE SMOOTH",
"-430 678 OFFCURVE",
"-426 679 OFFCURVE",
"-422 679 CURVE",
"-419 681 OFFCURVE",
"-419 684 OFFCURVE",
"-422 686 CURVE",
"-428 686 LINE SMOOTH",
"-481 686 OFFCURVE",
"-517 734 OFFCURVE",
"-517 804 CURVE SMOOTH",
"-517 968 OFFCURVE",
"-335 1116 OFFCURVE",
"-135 1116 CURVE SMOOTH",
"38 1116 OFFCURVE",
"224 1022 OFFCURVE",
"390 927 CURVE",
"248 789 OFFCURVE",
"143 591 OFFCURVE",
"63 419 CURVE SMOOTH",
"0 282 LINE",
"-54 163 LINE SMOOTH",
"-67 135 OFFCURVE",
"-71 110 OFFCURVE",
"-71 88 CURVE SMOOTH",
"-71 51 OFFCURVE",
"-54 0 OFFCURVE",
"-10 0 CURVE SMOOTH",
"71 0 OFFCURVE",
"146 89 OFFCURVE",
"201 175 CURVE",
"213 169 OFFCURVE",
"228 166 OFFCURVE",
"245 166 CURVE SMOOTH",
"300 166 OFFCURVE",
"347 208 OFFCURVE",
"380 278 CURVE",
"380 283 OFFCURVE",
"377 284 OFFCURVE",
"373 282 CURVE",
"343 217 OFFCURVE",
"298 174 OFFCURVE",
"247 174 CURVE SMOOTH",
"231 174 OFFCURVE",
"218 177 OFFCURVE",
"207 183 CURVE",
"240 237 OFFCURVE",
"274 301 OFFCURVE",
"293 349 CURVE SMOOTH",
"314 401 OFFCURVE",
"328 454 OFFCURVE",
"328 498 CURVE SMOOTH",
"328 537 OFFCURVE",
"317 563 OFFCURVE",
"296 563 CURVE"
);
},
{
closed = 1;
nodes = (
"549 1054 OFFCURVE",
"687 1111 OFFCURVE",
"848 1111 CURVE SMOOTH",
"1045 1111 OFFCURVE",
"1186 1015 OFFCURVE",
"1186 879 CURVE SMOOTH",
"1186 772 OFFCURVE",
"1092 694 OFFCURVE",
"962 694 CURVE SMOOTH",
"785 694 OFFCURVE",
"565 830 OFFCURVE",
"417 923 CURVE"
);
},
{
closed = 1;
nodes = (
"168 210 OFFCURVE",
"160 241 OFFCURVE",
"160 273 CURVE SMOOTH",
"160 377 OFFCURVE",
"246 554 OFFCURVE",
"296 554 CURVE SMOOTH",
"309 554 OFFCURVE",
"316 537 OFFCURVE",
"316 513 CURVE SMOOTH",
"316 473 OFFCURVE",
"300 417 OFFCURVE",
"277 364 CURVE SMOOTH",
"248 299 OFFCURVE",
"216 238 OFFCURVE",
"189 193 CURVE"
);
}
);
width = 373;
},
{
hints = (
{
horizontal = 1;
place = "{1134, -20}";
target = down;
type = TopGhost;
}
);
layerId = "16A2D4D5-7122-496F-87E2-41E3467D9F6F";
paths = (
{
closed = 1;
nodes = (
"241 563 OFFCURVE",
"151 384 OFFCURVE",
"151 276 CURVE SMOOTH",
"151 238 OFFCURVE",
"161 202 OFFCURVE",
"187 184 CURVE",
"121 72 OFFCURVE",
"55 5 OFFCURVE",
"-10 5 CURVE SMOOTH",
"-50 5 OFFCURVE",
"-63 46 OFFCURVE",
"-63 79 CURVE SMOOTH",
"-63 100 OFFCURVE",
"-58 125 OFFCURVE",
"-46 152 CURVE SMOOTH",
"61 380 LINE SMOOTH",
"143 554 OFFCURVE",
"254 771 OFFCURVE",
"411 924 CURVE",
"566 825 OFFCURVE",
"792 687 OFFCURVE",
"975 687 CURVE SMOOTH",
"1111 687 OFFCURVE",
"1211 768 OFFCURVE",
"1211 878 CURVE SMOOTH",
"1211 1020 OFFCURVE",
"1056 1124 OFFCURVE",
"844 1124 CURVE SMOOTH",
"687 1124 OFFCURVE",
"535 1074 OFFCURVE",
"399 936 CURVE",
"228 1032 OFFCURVE",
"32 1134 OFFCURVE",
"-151 1134 CURVE SMOOTH",
"-355 1134 OFFCURVE",
"-534 985 OFFCURVE",
"-534 816 CURVE SMOOTH",
"-534 739 OFFCURVE",
"-495 683 OFFCURVE",
"-441 683 CURVE SMOOTH",
"-436 683 OFFCURVE",
"-431 684 OFFCURVE",
"-429 684 CURVE",
"-427 684 OFFCURVE",
"-427 687 OFFCURVE",
"-429 687 CURVE",
"-433 687 LINE SMOOTH",
"-488 687 OFFCURVE",
"-525 736 OFFCURVE",
"-525 808 CURVE SMOOTH",
"-525 974 OFFCURVE",
"-341 1124 OFFCURVE",
"-138 1124 CURVE SMOOTH",
"37 1124 OFFCURVE",
"226 1029 OFFCURVE",
"395 932 CURVE",
"250 792 OFFCURVE",
"145 594 OFFCURVE",
"64 419 CURVE SMOOTH",
"0 282 LINE",
"-55 161 LINE SMOOTH",
"-67 133 OFFCURVE",
"-72 108 OFFCURVE",
"-72 86 CURVE SMOOTH",
"-72 49 OFFCURVE",
"-55 0 OFFCURVE",
"-11 0 CURVE SMOOTH",
"57 0 OFFCURVE",
"134 74 OFFCURVE",
"200 177 CURVE",
"212 171 OFFCURVE",
"227 167 OFFCURVE",
"244 167 CURVE SMOOTH",
"299 167 OFFCURVE",
"347 210 OFFCURVE",
"379 280 CURVE SMOOTH",
"380 282 OFFCURVE",
"378 283 OFFCURVE",
"376 282 CURVE",
"346 215 OFFCURVE",
"300 171 OFFCURVE",
"247 171 CURVE SMOOTH",
"229 171 OFFCURVE",
"215 175 OFFCURVE",
"203 181 CURVE",
"244 246 OFFCURVE",
"280 320 OFFCURVE",
"296 361 CURVE SMOOTH",
"316 412 OFFCURVE",
"326 462 OFFCURVE",
"326 500 CURVE SMOOTH",
"326 538 OFFCURVE",
"316 564 OFFCURVE",
"296 563 CURVE SMOOTH"
);
},
{
closed = 1;
nodes = (
"548 1061 OFFCURVE",
"689 1119 OFFCURVE",
"852 1119 CURVE SMOOTH",
"1052 1119 OFFCURVE",
"1195 1021 OFFCURVE",
"1195 884 CURVE SMOOTH",
"1195 775 OFFCURVE",
"1099 695 OFFCURVE",
"967 695 CURVE SMOOTH",
"788 695 OFFCURVE",
"564 834 OFFCURVE",
"415 927 CURVE"
);
},
{
closed = 1;
nodes = (
"165 206 OFFCURVE",
"157 239 OFFCURVE",
"157 273 CURVE SMOOTH",
"157 378 OFFCURVE",
"245 558 OFFCURVE",
"296 558 CURVE SMOOTH",
"311 558 OFFCURVE",
"318 541 OFFCURVE",
"318 515 CURVE SMOOTH",
"318 479 OFFCURVE",
"305 425 OFFCURVE",
"284 377 CURVE SMOOTH",
"253 306 OFFCURVE",
"221 242 OFFCURVE",
"189 189 CURVE"
);
}
);
width = 376;
}
);
},
{
color = (255,153,254,255);
glyphname = b.7.baja;
layers = (
{
hints = (
{
horizontal = 1;
place = "{995, -20}";
target = down;
type = TopGhost;
}
);
layerId = "12538090-4C57-4FAF-B923-C9DF6C947DDF";
paths = (
{
closed = 1;
nodes = (
"123 83 OFFCURVE",
"58 13 OFFCURVE",
"-1 13 CURVE SMOOTH",
"-40 13 OFFCURVE",
"-54 47 OFFCURVE",
"-54 82 CURVE SMOOTH",
"-54 103 OFFCURVE",
"-49 127 OFFCURVE",
"-37 152 CURVE SMOOTH",
"68 377 LINE SMOOTH",
"135 526 OFFCURVE",
"216 704 OFFCURVE",
"336 818 CURVE",
"485 744 OFFCURVE",
"653 643 OFFCURVE",
"822 643 CURVE SMOOTH",
"938 643 OFFCURVE",
"1001 713 OFFCURVE",
"1001 789 CURVE SMOOTH",
"1001 879 OFFCURVE",
"906 985 OFFCURVE",
"687 985 CURVE SMOOTH",
"567 985 OFFCURVE",
"434 947 OFFCURVE",
"324 839 CURVE",
"214 891 OFFCURVE",
"104 937 OFFCURVE",
"-7 937 CURVE SMOOTH",
"-212 937 OFFCURVE",
"-296 813 OFFCURVE",
"-296 721 CURVE SMOOTH",
"-296 677 OFFCURVE",
"-269 621 OFFCURVE",
"-212 621 CURVE SMOOTH",
"-208 621 OFFCURVE",
"-202 622 OFFCURVE",
"-197 622 CURVE",
"-194 625 OFFCURVE",
"-194 629 OFFCURVE",
"-197 632 CURVE",
"-210 632 LINE SMOOTH",
"-260 632 OFFCURVE",
"-280 678 OFFCURVE",
"-280 716 CURVE SMOOTH",
"-280 802 OFFCURVE",
"-192 922 OFFCURVE",
"6 922 CURVE SMOOTH",
"108 922 OFFCURVE",
"211 879 OFFCURVE",
"315 829 CURVE",
"202 723 OFFCURVE",
"139 585 OFFCURVE",
"63 419 CURVE SMOOTH",
"0 282 LINE",
"-54 165 LINE SMOOTH",
"-67 137 OFFCURVE",
"-71 111 OFFCURVE",
"-71 89 CURVE SMOOTH",
"-71 44 OFFCURVE",
"-51 0 OFFCURVE",
"0 0 CURVE SMOOTH",
"87 0 OFFCURVE",
"160 106 OFFCURVE",
"202 174 CURVE",
"214 168 OFFCURVE",
"229 165 OFFCURVE",
"245 165 CURVE SMOOTH",
"300 165 OFFCURVE",
"347 207 OFFCURVE",
"380 276 CURVE",
"380 283 OFFCURVE",
"376 284 OFFCURVE",
"370 282 CURVE",
"340 219 OFFCURVE",
"297 177 OFFCURVE",
"247 177 CURVE SMOOTH",
"233 177 OFFCURVE",
"220 179 OFFCURVE",
"210 184 CURVE",
"237 226 OFFCURVE",
"274 293 OFFCURVE",
"300 359 CURVE SMOOTH",
"319 406 OFFCURVE",
"332 453 OFFCURVE",
"332 491 CURVE SMOOTH",
"332 524 OFFCURVE",
"322 548 OFFCURVE",
"300 548 CURVE SMOOTH",
"247 548 OFFCURVE",
"163 414 OFFCURVE",
"151 305 CURVE SMOOTH",
"146 264 OFFCURVE",
"148 212 OFFCURVE",
"183 184 CURVE"
);
},
{
closed = 1;
nodes = (
"452 930 OFFCURVE",
"570 971 OFFCURVE",
"696 971 CURVE SMOOTH",
"895 971 OFFCURVE",
"978 876 OFFCURVE",
"978 794 CURVE SMOOTH",
"978 723 OFFCURVE",
"917 659 OFFCURVE",
"810 659 CURVE SMOOTH",
"654 659 OFFCURVE",
"487 761 OFFCURVE",
"347 828 CURVE"
);
},
{
closed = 1;
nodes = (
"161 222 OFFCURVE",
"161 266 OFFCURVE",
"165 301 CURVE SMOOTH",
"177 408 OFFCURVE",
"254 535 OFFCURVE",
"300 535 CURVE SMOOTH",
"312 535 OFFCURVE",
"316 524 OFFCURVE",
"316 506 CURVE SMOOTH",
"316 473 OFFCURVE",
"299 423 OFFCURVE",
"277 371 CURVE SMOOTH",
"248 303 OFFCURVE",
"211 233 OFFCURVE",
"189 196 CURVE"
);
}
);
width = 376;
},
{
hints = (
{
horizontal = 1;
place = "{988, -20}";
target = down;
type = TopGhost;
}
);
layerId = "71F17050-D056-48DB-A6EA-6AFC75FA62B4";
paths = (
{
closed = 1;
nodes = (
"122 78 OFFCURVE",
"57 9 OFFCURVE",
"-5 9 CURVE SMOOTH",
"-45 9 OFFCURVE",
"-58 47 OFFCURVE",
"-58 81 CURVE SMOOTH",
"-58 102 OFFCURVE",
"-53 126 OFFCURVE",
"-41 152 CURVE SMOOTH",
"65 378 LINE SMOOTH",
"137 537 OFFCURVE",
"216 710 OFFCURVE",
"336 824 CURVE",
"491 747 OFFCURVE",
"657 647 OFFCURVE",
"826 647 CURVE SMOOTH",
"941 647 OFFCURVE",
"1004 717 OFFCURVE",
"1004 792 CURVE SMOOTH",
"1004 882 OFFCURVE",
"909 988 OFFCURVE",
"690 988 CURVE SMOOTH",
"569 988 OFFCURVE",
"435 949 OFFCURVE",
"325 840 CURVE",
"214 893 OFFCURVE",
"103 939 OFFCURVE",
"-9 939 CURVE SMOOTH",
"-214 939 OFFCURVE",
"-298 816 OFFCURVE",
"-298 724 CURVE SMOOTH",
"-298 681 OFFCURVE",
"-271 625 OFFCURVE",
"-215 625 CURVE SMOOTH",
"-213 625 OFFCURVE",
"-208 626 OFFCURVE",
"-204 626 CURVE",
"-202 628 OFFCURVE",
"-202 631 OFFCURVE",
"-204 632 CURVE",
"-213 632 LINE SMOOTH",
"-265 632 OFFCURVE",
"-286 680 OFFCURVE",
"-286 719 CURVE SMOOTH",
"-286 807 OFFCURVE",
"-197 928 OFFCURVE",
"4 928 CURVE SMOOTH",
"108 928 OFFCURVE",
"212 885 OFFCURVE",
"318 833 CURVE",
"204 726 OFFCURVE",
"141 588 OFFCURVE",
"63 419 CURVE SMOOTH",
"0 282 LINE",
"-54 163 LINE SMOOTH",
"-67 135 OFFCURVE",
"-71 110 OFFCURVE",
"-71 88 CURVE SMOOTH",
"-71 46 OFFCURVE",
"-53 0 OFFCURVE",
"-5 0 CURVE SMOOTH",
"72 0 OFFCURVE",
"147 90 OFFCURVE",
"201 175 CURVE",
"213 169 OFFCURVE",
"228 166 OFFCURVE",
"245 166 CURVE SMOOTH",
"300 166 OFFCURVE",
"347 208 OFFCURVE",
"380 278 CURVE",
"380 283 OFFCURVE",
"377 284 OFFCURVE",
"373 282 CURVE",
"343 217 OFFCURVE",
"298 174 OFFCURVE",
"247 174 CURVE SMOOTH",
"231 174 OFFCURVE",
"218 177 OFFCURVE",
"207 183 CURVE",
"240 236 OFFCURVE",
"276 306 OFFCURVE",
"304 375 CURVE SMOOTH",
"320 416 OFFCURVE",
"331 458 OFFCURVE",
"331 492 CURVE SMOOTH",
"331 524 OFFCURVE",
"321 548 OFFCURVE",
"300 548 CURVE SMOOTH",
"247 548 OFFCURVE",
"164 414 OFFCURVE",
"152 305 CURVE SMOOTH",
"147 261 OFFCURVE",
"151 210 OFFCURVE",
"185 184 CURVE"
);
},
{
closed = 1;
nodes = (
"451 936 OFFCURVE",
"570 978 OFFCURVE",
"699 978 CURVE SMOOTH",
"901 978 OFFCURVE",
"985 881 OFFCURVE",
"985 797 CURVE SMOOTH",
"985 725 OFFCURVE",
"923 659 OFFCURVE",
"814 659 CURVE SMOOTH",
"659 659 OFFCURVE",
"495 758 OFFCURVE",
"344 831 CURVE"
);
},
{
closed = 1;
nodes = (
"160 217 OFFCURVE",
"158 262 OFFCURVE",
"162 301 CURVE SMOOTH",
"174 410 OFFCURVE",
"254 539 OFFCURVE",
"300 539 CURVE SMOOTH",
"313 539 OFFCURVE",
"318 527 OFFCURVE",
"318 507 CURVE SMOOTH",
"318 475 OFFCURVE",
"302 424 OFFCURVE",
"280 374 CURVE SMOOTH",
"250 304 OFFCURVE",
"216 237 OFFCURVE",
"189 193 CURVE"
);
}
);
width = 373;
},
{
hints = (
{
horizontal = 1;
place = "{991, -20}";
target = down;
type = TopGhost;
}
);
layerId = "16A2D4D5-7122-496F-87E2-41E3467D9F6F";
paths = (
{
closed = 1;
nodes = (
"121 72 OFFCURVE",
"55 5 OFFCURVE",
"-10 5 CURVE SMOOTH",
"-50 5 OFFCURVE",
"-63 46 OFFCURVE",
"-63 79 CURVE SMOOTH",
"-63 100 OFFCURVE",
"-58 125 OFFCURVE",
"-46 152 CURVE SMOOTH",
"61 380 LINE SMOOTH",
"140 548 OFFCURVE",
"215 716 OFFCURVE",
"336 831 CURVE",
"498 750 OFFCURVE",
"661 652 OFFCURVE",
"830 652 CURVE SMOOTH",
"944 652 OFFCURVE",
"1007 721 OFFCURVE",
"1007 796 CURVE SMOOTH",
"1007 886 OFFCURVE",
"912 991 OFFCURVE",
"693 991 CURVE SMOOTH",
"572 991 OFFCURVE",
"436 952 OFFCURVE",
"326 842 CURVE",
"213 896 OFFCURVE",
"101 942 OFFCURVE",
"-11 942 CURVE SMOOTH",
"-216 942 OFFCURVE",
"-300 819 OFFCURVE",
"-300 727 CURVE SMOOTH",
"-300 685 OFFCURVE",
"-274 630 OFFCURVE",
"-219 630 CURVE SMOOTH",
"-218 630 OFFCURVE",
"-215 630 OFFCURVE",
"-212 631 CURVE",
"-210 632 OFFCURVE",
"-210 633 OFFCURVE",
"-212 633 CURVE",
"-217 633 LINE SMOOTH",
"-271 633 OFFCURVE",
"-292 682 OFFCURVE",
"-292 722 CURVE SMOOTH",
"-292 812 OFFCURVE",
"-202 935 OFFCURVE",
"2 935 CURVE SMOOTH",
"108 935 OFFCURVE",
"214 891 OFFCURVE",
"322 838 CURVE",
"206 729 OFFCURVE",
"144 591 OFFCURVE",
"64 419 CURVE SMOOTH",
"0 282 LINE",
"-55 161 LINE SMOOTH",
"-67 133 OFFCURVE",
"-72 108 OFFCURVE",
"-72 86 CURVE SMOOTH",
"-72 49 OFFCURVE",
"-55 0 OFFCURVE",
"-11 0 CURVE SMOOTH",
"57 0 OFFCURVE",
"134 74 OFFCURVE",
"200 177 CURVE",
"212 171 OFFCURVE",
"227 167 OFFCURVE",
"244 167 CURVE SMOOTH",
"299 167 OFFCURVE",
"347 210 OFFCURVE",
"379 280 CURVE SMOOTH",
"380 282 OFFCURVE",
"378 283 OFFCURVE",
"376 282 CURVE",
"346 215 OFFCURVE",
"300 171 OFFCURVE",
"247 171 CURVE SMOOTH",
"229 171 OFFCURVE",
"215 175 OFFCURVE",
"203 181 CURVE",
"244 246 OFFCURVE",
"279 320 OFFCURVE",
"308 392 CURVE SMOOTH",
"321 426 OFFCURVE",
"329 464 OFFCURVE",
"329 494 CURVE SMOOTH",
"329 525 OFFCURVE",
"320 548 OFFCURVE",
"300 548 CURVE SMOOTH",
"248 548 OFFCURVE",
"165 414 OFFCURVE",
"153 305 CURVE SMOOTH",
"148 257 OFFCURVE",
"154 207 OFFCURVE",
"187 184 CURVE"
);
},
{
closed = 1;
nodes = (
"449 943 OFFCURVE",
"570 985 OFFCURVE",
"702 985 CURVE SMOOTH",
"907 985 OFFCURVE",
"992 887 OFFCURVE",
"992 801 CURVE SMOOTH",
"992 727 OFFCURVE",
"929 660 OFFCURVE",
"818 660 CURVE SMOOTH",
"665 660 OFFCURVE",
"503 755 OFFCURVE",
"341 835 CURVE"
);
},
{
closed = 1;
nodes = (
"159 211 OFFCURVE",
"154 258 OFFCURVE",
"159 301 CURVE SMOOTH",
"171 412 OFFCURVE",
"253 543 OFFCURVE",
"300 543 CURVE SMOOTH",
"315 543 OFFCURVE",
"321 530 OFFCURVE",
"321 509 CURVE SMOOTH",
"321 477 OFFCURVE",
"306 426 OFFCURVE",
"284 377 CURVE SMOOTH",
"253 306 OFFCURVE",
"221 242 OFFCURVE",
"189 189 CURVE"
);
}
);
width = 376;
}
);
},
{
color = (153,255,154,255);
glyphname = c;
layers = (
{
anchors = (
{
name = top;
position = "{292, 638}";
}
);
hints = (
{
horizontal = 1;
place = "{-16, 29}";
type = Stem;
},
{
horizontal = 1;
place = "{331, 236}";
type = Stem;
}
);
layerId = "12538090-4C57-4FAF-B923-C9DF6C947DDF";
paths = (
{
closed = 1;
nodes = (
"173.558 562.949 OFFCURVE",
"57.233 428.88 OFFCURVE",
"0.057 281.996 CURVE SMOOTH",
"-21.631 227.777 OFFCURVE",
"-34.446 171.586 OFFCURVE",
"-34.446 119.339 CURVE SMOOTH",
"-34.446 44.418 OFFCURVE",
"6.957 0.057 OFFCURVE",
"71.034 0.057 CURVE SMOOTH",
"176.515 0.057 OFFCURVE",
"275.095 122.296 OFFCURVE",
"339.172 276.081 CURVE",
"339.172 281.996 OFFCURVE",
"335.229 282.981 OFFCURVE",
"329.314 281.996 CURVE",
"268.194 134.126 OFFCURVE",
"171.586 13.858 OFFCURVE",
"71.034 13.858 CURVE SMOOTH",
"20.759 13.858 OFFCURVE",
"-12.759 50.333 OFFCURVE",
"-12.759 113.424 CURVE SMOOTH",
"-12.759 281.01 OFFCURVE",
"150.884 550.133 OFFCURVE",
"263.265 550.133 CURVE SMOOTH",
"291.854 550.133 OFFCURVE",
"306.641 529.431 OFFCURVE",
"306.641 503.801 CURVE SMOOTH",
"306.641 437.752 OFFCURVE",
"258.336 341.144 OFFCURVE",
"199.188 341.144 CURVE SMOOTH",
"176.515 341.144 OFFCURVE",
"169.614 357.902 OFFCURVE",
"169.614 376.632 CURVE SMOOTH",
"169.614 396.348 OFFCURVE",
"178.487 420.993 OFFCURVE",
"188.345 433.809 CURVE",
"188.345 441.695 OFFCURVE",
"185.387 443.667 OFFCURVE",
"177.501 439.724 CURVE",
"162.714 422.965 OFFCURVE",
"152.856 397.334 OFFCURVE",
"152.856 375.647 CURVE SMOOTH",
"152.856 351.002 OFFCURVE",
"165.671 329.314 OFFCURVE",
"199.188 329.314 CURVE SMOOTH",
"263.265 329.314 OFFCURVE",
"326.357 424.937 OFFCURVE",
"326.357 491.971 CURVE SMOOTH",
"326.357 527.46 OFFCURVE",
"303.683 562.949 OFFCURVE",
"260.308 562.949 CURVE SMOOTH"
);
}
);
width = 325;
},
{
anchors = (
{
name = top;
position = "{292, 638}";
}
);
layerId = "71F17050-D056-48DB-A6EA-6AFC75FA62B4";
paths = (
{
closed = 1;
nodes = (
"173.754 562.932 OFFCURVE",
"56.604 428.904 OFFCURVE",
"0.014 281.97 CURVE SMOOTH",
"-21.827 227.366 OFFCURVE",
"-34.734 170.776 OFFCURVE",
"-34.734 118.158 CURVE SMOOTH",
"-34.734 43.698 OFFCURVE",
"5.971 0.014 OFFCURVE",
"69.51 0.014 CURVE SMOOTH",
"173.754 0.014 OFFCURVE",
"272.042 123.122 OFFCURVE",
"334.588 277.998 CURVE",
"334.588 281.97 OFFCURVE",
"331.61 282.962 OFFCURVE",
"327.638 281.97 CURVE",
"267.078 132.057 OFFCURVE",
"170.776 9.942 OFFCURVE",
"69.51 9.942 CURVE SMOOTH",
"17.885 9.942 OFFCURVE",
"-16.863 47.669 OFFCURVE",
"-16.863 112.201 CURVE SMOOTH",
"-16.863 281.97 OFFCURVE",
"148.934 553.997 OFFCURVE",
"263.106 553.997 CURVE SMOOTH",
"292.89 553.997 OFFCURVE",
"308.775 532.155 OFFCURVE",
"308.775 505.35 CURVE SMOOTH",
"308.775 437.839 OFFCURVE",
"259.135 339.552 OFFCURVE",
"198.574 339.552 CURVE SMOOTH",
"174.747 339.552 OFFCURVE",
"166.805 357.422 OFFCURVE",
"166.805 377.278 CURVE SMOOTH",
"166.805 397.134 OFFCURVE",
"175.74 421.954 OFFCURVE",
"184.675 434.861 CURVE",
"184.675 439.825 OFFCURVE",
"182.69 440.818 OFFCURVE",
"176.733 438.832 CURVE",
"162.834 422.947 OFFCURVE",
"153.898 398.127 OFFCURVE",
"153.898 376.286 CURVE SMOOTH",
"153.898 352.458 OFFCURVE",
"165.812 331.61 OFFCURVE",
"198.574 331.61 CURVE SMOOTH",
"262.114 331.61 OFFCURVE",
"324.66 426.918 OFFCURVE",
"324.66 493.436 CURVE SMOOTH",
"324.66 528.184 OFFCURVE",
"302.818 562.932 OFFCURVE",
"260.128 562.932 CURVE SMOOTH"
);
}
);
width = 328;
},
{
anchors = (
{
name = top;
position = "{292, 638}";
}
);
hints = (
{
horizontal = 1;
place = "{-12, 21}";
type = Stem;
},
{
horizontal = 1;
place = "{335, 228}";
type = Stem;
}
);
layerId = "16A2D4D5-7122-496F-87E2-41E3467D9F6F";
paths = (
{
closed = 1;
nodes = (
"174 563 OFFCURVE",
"57 429 OFFCURVE",
"0 282 CURVE SMOOTH",
"-22 227 OFFCURVE",
"-35 169 OFFCURVE",
"-35 117 CURVE SMOOTH",
"-35 44 OFFCURVE",
"5 0 OFFCURVE",
"68 0 CURVE SMOOTH",
"170 0 OFFCURVE",
"266 124 OFFCURVE",
"328 280 CURVE",
"328 282 OFFCURVE",
"327 283 OFFCURVE",
"325 282 CURVE",
"265 129 OFFCURVE",
"169 6 OFFCURVE",
"68 6 CURVE SMOOTH",
"15 6 OFFCURVE",
"-21 44 OFFCURVE",
"-21 111 CURVE SMOOTH",
"-21 283 OFFCURVE",
"147 558 OFFCURVE",
"263 558 CURVE SMOOTH",
"295 558 OFFCURVE",
"311 535 OFFCURVE",
"311 507 CURVE SMOOTH",
"311 438 OFFCURVE",
"260 338 OFFCURVE",
"198 338 CURVE SMOOTH",
"172 338 OFFCURVE",
"164 357 OFFCURVE",
"164 378 CURVE SMOOTH",
"164 399 OFFCURVE",
"172 423 OFFCURVE",
"181 435 CURVE",
"181 437 OFFCURVE",
"179 438 OFFCURVE",
"177 437 CURVE",
"164 422 OFFCURVE",
"155 398 OFFCURVE",
"155 377 CURVE SMOOTH",
"155 354 OFFCURVE",
"167 334 OFFCURVE",
"198 334 CURVE SMOOTH",
"261 334 OFFCURVE",
"323 429 OFFCURVE",
"323 495 CURVE SMOOTH",
"323 529 OFFCURVE",
"301 563 OFFCURVE",
"260 563 CURVE SMOOTH"
);
}
);
width = 325;
}
);
unicode = 0063;
},
{
color = (255,153,254,255);
glyphname = c.5;
layers = (
{
hints = (
{
horizontal = 1;
place = "{-132, 29}";
type = Stem;
},
{
horizontal = 1;
place = "{181, 162}";
type = Stem;
},
{
horizontal = 1;
place = "{331, 236}";
type = Stem;
}
);
layerId = "12538090-4C57-4FAF-B923-C9DF6C947DDF";
paths = (
{
closed = 1;
nodes = (
"237 177 OFFCURVE",
"252 182 OFFCURVE",
"265 182 CURVE SMOOTH",
"311 182 OFFCURVE",
"354 143 OFFCURVE",
"354 81 CURVE SMOOTH",
"354 -3 OFFCURVE",
"281 -114 OFFCURVE",
"158 -114 CURVE SMOOTH",
"37 -114 OFFCURVE",
"-15 -9 OFFCURVE",
"-15 107 CURVE SMOOTH",
"-15 158 OFFCURVE",
"0 215 OFFCURVE",
"16 254 CURVE SMOOTH",
"78 412 OFFCURVE",
"194 550 OFFCURVE",
"266 550 CURVE SMOOTH",
"299 550 OFFCURVE",
"314 527 OFFCURVE",
"314 497 CURVE SMOOTH",
"314 431 OFFCURVE",
"263 341 OFFCURVE",
"206 341 CURVE SMOOTH",
"184 341 OFFCURVE",
"177 358 OFFCURVE",
"177 377 CURVE SMOOTH",
"177 396 OFFCURVE",
"185 421 OFFCURVE",
"195 434 CURVE",
"195 442 OFFCURVE",
"192 444 OFFCURVE",
"185 440 CURVE",
"170 423 OFFCURVE",
"160 397 OFFCURVE",
"160 376 CURVE SMOOTH",
"160 351 OFFCURVE",
"173 329 OFFCURVE",
"206 329 CURVE SMOOTH",
"270 329 OFFCURVE",
"333 425 OFFCURVE",
"333 492 CURVE SMOOTH",
"333 527 OFFCURVE",
"311 563 OFFCURVE",
"267 563 CURVE SMOOTH",
"193 563 OFFCURVE",
"69 434 OFFCURVE",
"0 282 CURVE SMOOTH",
"-23 232 OFFCURVE",
"-32 167 OFFCURVE",
"-32 113 CURVE SMOOTH",
"-32 -8 OFFCURVE",
"24 -126 OFFCURVE",
"158 -126 CURVE SMOOTH",
"289 -126 OFFCURVE",
"368 -15 OFFCURVE",
"368 75 CURVE SMOOTH",
"368 144 OFFCURVE",
"316 194 OFFCURVE",
"265 194 CURVE SMOOTH",
"248 194 OFFCURVE",
"232 188 OFFCURVE",
"218 177 CURVE",
"215 171 OFFCURVE",
"217 167 OFFCURVE",
"224 167 CURVE"
);
}
);
width = 330;
},
{
hints = (
{
horizontal = 1;
place = "{183, 157}";
type = Stem;
},
{
horizontal = 1;
place = "{332, 231}";
type = Stem;
}
);
layerId = "71F17050-D056-48DB-A6EA-6AFC75FA62B4";
paths = (
{
closed = 1;
nodes = (
"237 178 OFFCURVE",
"252 183 OFFCURVE",
"265 183 CURVE SMOOTH",
"312 183 OFFCURVE",
"356 143 OFFCURVE",
"356 79 CURVE SMOOTH",
"356 -6 OFFCURVE",
"282 -119 OFFCURVE",
"157 -119 CURVE SMOOTH",
"34 -119 OFFCURVE",
"-19 -12 OFFCURVE",
"-19 105 CURVE SMOOTH",
"-19 157 OFFCURVE",
"-4 215 OFFCURVE",
"12 254 CURVE SMOOTH",
"75 414 OFFCURVE",
"193 554 OFFCURVE",
"266 554 CURVE SMOOTH",
"299 554 OFFCURVE",
"314 530 OFFCURVE",
"314 500 CURVE SMOOTH",
"314 438 OFFCURVE",
"261 340 OFFCURVE",
"204 340 CURVE SMOOTH",
"181 340 OFFCURVE",
"172 358 OFFCURVE",
"172 379 CURVE SMOOTH",
"172 397 OFFCURVE",
"179 419 OFFCURVE",
"190 434 CURVE",
"190 440 OFFCURVE",
"188 442 OFFCURVE",
"183 439 CURVE",
"167 420 OFFCURVE",
"159 396 OFFCURVE",
"159 377 CURVE SMOOTH",
"159 352 OFFCURVE",
"173 332 OFFCURVE",
"202 332 CURVE SMOOTH",
"266 332 OFFCURVE",
"330 432 OFFCURVE",
"330 494 CURVE SMOOTH",
"330 528 OFFCURVE",
"308 563 OFFCURVE",
"267 563 CURVE SMOOTH",
"193 563 OFFCURVE",
"68 436 OFFCURVE",
"0 282 CURVE",
"-24 232 OFFCURVE",
"-32 166 OFFCURVE",
"-32 112 CURVE SMOOTH",
"-32 -9 OFFCURVE",
"24 -127 OFFCURVE",
"157 -127 CURVE SMOOTH",
"288 -127 OFFCURVE",
"367 -16 OFFCURVE",
"367 73 CURVE SMOOTH",
"367 142 OFFCURVE",
"316 191 OFFCURVE",
"265 191 CURVE SMOOTH",
"248 191 OFFCURVE",
"233 186 OFFCURVE",
"220 176 CURVE",
"217 172 OFFCURVE",
"219 168 OFFCURVE",
"224 168 CURVE"
);
}
);
width = 332;
},
{
hints = (
{
horizontal = 1;
place = "{-128, 21}";
type = Stem;
},
{
horizontal = 1;
place = "{185, 154}";
type = Stem;
},
{
horizontal = 1;
place = "{335, 228}";
type = Stem;
}
);
layerId = "16A2D4D5-7122-496F-87E2-41E3467D9F6F";
paths = (
{
closed = 1;
nodes = (
"236 180 OFFCURVE",
"251 185 OFFCURVE",
"265 185 CURVE SMOOTH",
"313 185 OFFCURVE",
"359 144 OFFCURVE",
"359 78 CURVE SMOOTH",
"359 -9 OFFCURVE",
"284 -124 OFFCURVE",
"156 -124 CURVE SMOOTH",
"30 -124 OFFCURVE",
"-23 -15 OFFCURVE",
"-23 104 CURVE SMOOTH",
"-23 157 OFFCURVE",
"-8 215 OFFCURVE",
"8 255 CURVE SMOOTH",
"72 417 OFFCURVE",
"192 558 OFFCURVE",
"266 558 CURVE SMOOTH",
"299 558 OFFCURVE",
"314 533 OFFCURVE",
"314 504 CURVE SMOOTH",
"314 446 OFFCURVE",
"258 339 OFFCURVE",
"202 339 CURVE SMOOTH",
"178 339 OFFCURVE",
"167 358 OFFCURVE",
"167 382 CURVE SMOOTH",
"167 398 OFFCURVE",
"172 417 OFFCURVE",
"184 435 CURVE",
"185 437 OFFCURVE",
"183 439 OFFCURVE",
"180 437 CURVE",
"164 417 OFFCURVE",
"157 396 OFFCURVE",
"157 379 CURVE SMOOTH",
"157 353 OFFCURVE",
"172 335 OFFCURVE",
"198 335 CURVE SMOOTH",
"261 335 OFFCURVE",
"326 439 OFFCURVE",
"326 496 CURVE SMOOTH",
"326 530 OFFCURVE",
"305 563 OFFCURVE",
"267 563 CURVE SMOOTH",
"192 563 OFFCURVE",
"67 439 OFFCURVE",
"0 282 CURVE SMOOTH",
"-25 233 OFFCURVE",
"-33 165 OFFCURVE",
"-33 111 CURVE SMOOTH",
"-33 -10 OFFCURVE",
"23 -128 OFFCURVE",
"156 -128 CURVE SMOOTH",
"286 -128 OFFCURVE",
"365 -17 OFFCURVE",
"365 72 CURVE SMOOTH",
"365 140 OFFCURVE",
"315 189 OFFCURVE",
"265 189 CURVE SMOOTH",
"249 189 OFFCURVE",
"234 184 OFFCURVE",
"222 175 CURVE",
"220 173 OFFCURVE",
"222 169 OFFCURVE",
"224 171 CURVE"
);
}
);
width = 330;
}
);
},
{
color = (255,153,254,255);
glyphname = c.9;
layers = (
{
hints = (
{
place = "{-42, 182}";
type = Stem;
},
{
horizontal = 1;
place = "{-146, 29}";
type = Stem;
},
{
horizontal = 1;
place = "{222, 121}";
type = Stem;
},
{
horizontal = 1;
place = "{331, 236}";
type = Stem;
}
);
layerId = "12538090-4C57-4FAF-B923-C9DF6C947DDF";
paths = (
{
closed = 1;
nodes = (
"194 563 OFFCURVE",
"63 439 OFFCURVE",
"0 282 CURVE SMOOTH",
"-22 227 OFFCURVE",
"-37 155 OFFCURVE",
"-37 97 CURVE SMOOTH",
"-37 -19 OFFCURVE",
"37 -140 OFFCURVE",
"158 -140 CURVE SMOOTH",
"286 -140 OFFCURVE",
"411 -28 OFFCURVE",
"411 106 CURVE SMOOTH",
"411 181 OFFCURVE",
"349 236 OFFCURVE",
"280 236 CURVE SMOOTH",
"192 236 OFFCURVE",
"124 163 OFFCURVE",
"124 90 CURVE SMOOTH",
"124 67 OFFCURVE",
"131 43 OFFCURVE",
"147 19 CURVE",
"154 15 OFFCURVE",
"157 17 OFFCURVE",
"158 25 CURVE",
"144 46 OFFCURVE",
"142 69 OFFCURVE",
"142 87 CURVE SMOOTH",
"142 156 OFFCURVE",
"196 223 OFFCURVE",
"279 223 CURVE SMOOTH",
"337 223 OFFCURVE",
"389 186 OFFCURVE",
"389 107 CURVE SMOOTH",
"389 -20 OFFCURVE",
"278 -128 OFFCURVE",
"164 -128 CURVE SMOOTH",
"42 -128 OFFCURVE",
"-21 -16 OFFCURVE",
"-21 84 CURVE SMOOTH",
"-21 133 OFFCURVE",
"-10 173 OFFCURVE",
"1 208 CURVE SMOOTH",
"51 379 OFFCURVE",
"193 550 OFFCURVE",
"271 550 CURVE SMOOTH",
"300 550 OFFCURVE",
"315 529 OFFCURVE",
"315 504 CURVE SMOOTH",
"315 438 OFFCURVE",
"266 341 OFFCURVE",
"207 341 CURVE SMOOTH",
"185 341 OFFCURVE",
"178 358 OFFCURVE",
"178 377 CURVE SMOOTH",
"178 396 OFFCURVE",
"186 421 OFFCURVE",
"196 434 CURVE",
"196 442 OFFCURVE",
"193 444 OFFCURVE",
"186 440 CURVE",
"171 423 OFFCURVE",
"161 397 OFFCURVE",
"161 376 CURVE SMOOTH",
"161 351 OFFCURVE",
"174 329 OFFCURVE",
"207 329 CURVE SMOOTH",
"271 329 OFFCURVE",
"334 425 OFFCURVE",
"334 492 CURVE SMOOTH",
"334 527 OFFCURVE",
"312 563 OFFCURVE",
"268 563 CURVE SMOOTH"
);
}
);
width = 572;
},
{
hints = (
{
place = "{-37, 177}";
type = Stem;
},
{
horizontal = 1;
place = "{224, 116}";
type = Stem;
},
{
horizontal = 1;
place = "{332, 231}";
type = Stem;
}
);
layerId = "71F17050-D056-48DB-A6EA-6AFC75FA62B4";
paths = (
{
closed = 1;
nodes = (
"194 563 OFFCURVE",
"63 440 OFFCURVE",
"1 282 CURVE SMOOTH",
"-21 226 OFFCURVE",
"-37 154 OFFCURVE",
"-37 95 CURVE SMOOTH",
"-37 -20 OFFCURVE",
"37 -141 OFFCURVE",
"158 -141 CURVE SMOOTH",
"286 -141 OFFCURVE",
"411 -29 OFFCURVE",
"411 104 CURVE SMOOTH",
"411 179 OFFCURVE",
"349 233 OFFCURVE",
"281 233 CURVE SMOOTH",
"193 233 OFFCURVE",
"126 161 OFFCURVE",
"126 88 CURVE SMOOTH",
"126 66 OFFCURVE",
"133 45 OFFCURVE",
"145 23 CURVE",
"150 20 OFFCURVE",
"153 21 OFFCURVE",
"153 27 CURVE",
"142 47 OFFCURVE",
"140 67 OFFCURVE",
"140 85 CURVE SMOOTH",
"140 156 OFFCURVE",
"195 224 OFFCURVE",
"280 224 CURVE SMOOTH",
"339 224 OFFCURVE",
"393 187 OFFCURVE",
"393 105 CURVE SMOOTH",
"393 -23 OFFCURVE",
"280 -133 OFFCURVE",
"164 -133 CURVE SMOOTH",
"40 -133 OFFCURVE",
"-24 -19 OFFCURVE",
"-24 82 CURVE SMOOTH",
"-24 132 OFFCURVE",
"-13 172 OFFCURVE",
"-2 208 CURVE SMOOTH",
"49 381 OFFCURVE",
"191 554 OFFCURVE",
"270 554 CURVE SMOOTH",
"300 554 OFFCURVE",
"316 532 OFFCURVE",
"316 505 CURVE SMOOTH",
"316 444 OFFCURVE",
"270 340 OFFCURVE",
"205 340 CURVE SMOOTH",
"182 340 OFFCURVE",
"174 357 OFFCURVE",
"174 377 CURVE SMOOTH",
"174 397 OFFCURVE",
"182 422 OFFCURVE",
"192 434 CURVE",
"192 440 OFFCURVE",
"189 441 OFFCURVE",
"184 439 CURVE",
"170 422 OFFCURVE",
"160 397 OFFCURVE",
"160 376 CURVE SMOOTH",
"160 352 OFFCURVE",
"172 332 OFFCURVE",
"205 332 CURVE SMOOTH",
"272 332 OFFCURVE",
"332 431 OFFCURVE",
"332 494 CURVE SMOOTH",
"332 528 OFFCURVE",
"310 563 OFFCURVE",
"269 563 CURVE SMOOTH"
);
}
);
width = 573;
},
{
hints = (
{
place = "{-38, 174}";
type = Stem;
},
{
horizontal = 1;
place = "{-142, 21}";
type = Stem;
},
{
horizontal = 1;
place = "{226, 113}";
type = Stem;
},
{
horizontal = 1;
place = "{335, 228}";
type = Stem;
}
);
layerId = "16A2D4D5-7122-496F-87E2-41E3467D9F6F";
paths = (
{
closed = 1;
nodes = (
"193 563 OFFCURVE",
"62 442 OFFCURVE",
"0 282 CURVE SMOOTH",
"-22 226 OFFCURVE",
"-38 153 OFFCURVE",
"-38 94 CURVE SMOOTH",
"-38 -21 OFFCURVE",
"36 -142 OFFCURVE",
"156 -142 CURVE SMOOTH",
"284 -142 OFFCURVE",
"409 -30 OFFCURVE",
"409 103 CURVE SMOOTH",
"409 178 OFFCURVE",
"348 231 OFFCURVE",
"280 231 CURVE SMOOTH",
"193 231 OFFCURVE",
"126 159 OFFCURVE",
"126 87 CURVE SMOOTH",
"126 65 OFFCURVE",
"133 48 OFFCURVE",
"142 28 CURVE",
"144 26 OFFCURVE",
"146 27 OFFCURVE",
"146 30 CURVE",
"139 48 OFFCURVE",
"136 65 OFFCURVE",
"136 84 CURVE SMOOTH",
"136 156 OFFCURVE",
"193 226 OFFCURVE",
"279 226 CURVE SMOOTH",
"340 226 OFFCURVE",
"395 188 OFFCURVE",
"395 104 CURVE SMOOTH",
"395 -26 OFFCURVE",
"280 -138 OFFCURVE",
"162 -138 CURVE SMOOTH",
"36 -138 OFFCURVE",
"-29 -22 OFFCURVE",
"-29 81 CURVE SMOOTH",
"-29 132 OFFCURVE",
"-18 172 OFFCURVE",
"-7 208 CURVE SMOOTH",
"45 383 OFFCURVE",
"187 558 OFFCURVE",
"267 558 CURVE SMOOTH",
"299 558 OFFCURVE",
"315 535 OFFCURVE",
"315 507 CURVE SMOOTH",
"315 451 OFFCURVE",
"272 339 OFFCURVE",
"200 339 CURVE SMOOTH",
"176 339 OFFCURVE",
"168 356 OFFCURVE",
"168 377 CURVE SMOOTH",
"168 398 OFFCURVE",
"176 423 OFFCURVE",
"185 435 CURVE",
"185 437 OFFCURVE",
"183 438 OFFCURVE",
"181 437 CURVE",
"168 422 OFFCURVE",
"158 397 OFFCURVE",
"158 376 CURVE SMOOTH",
"158 354 OFFCURVE",
"169 335 OFFCURVE",
"201 335 CURVE SMOOTH",
"272 335 OFFCURVE",
"327 438 OFFCURVE",
"327 496 CURVE SMOOTH",
"327 530 OFFCURVE",
"306 563 OFFCURVE",
"268 563 CURVE SMOOTH"
);
}
);
width = 572;
}
);
},
{
color = (153,255,154,255);
glyphname = d;
layers = (
{
hints = (
{
horizontal = 1;
place = "{4, -20}";
target = down;
type = TopGhost;
},
{
horizontal = 1;
place = "{-16, 29}";
type = Stem;
},
{
horizontal = 1;
place = "{975, -20}";
target = down;
type = TopGhost;
}
);
layerId = "12538090-4C57-4FAF-B923-C9DF6C947DDF";
paths = (
{
closed = 1;
nodes = (
"295 550 OFFCURVE",
"310 532 OFFCURVE",
"310 502 CURVE SMOOTH",
"310 464 OFFCURVE",
"286 415 OFFCURVE",
"257 387 CURVE SMOOTH",
"253 383 OFFCURVE",
"254 378 OFFCURVE",
"260 375 CURVE",
"293 406 OFFCURVE",
"325 456 OFFCURVE",
"325 501 CURVE SMOOTH",
"325 538 OFFCURVE",
"302 563 OFFCURVE",
"266 563 CURVE SMOOTH",
"177 563 OFFCURVE",
"62 426 OFFCURVE",
"0 282 CURVE SMOOTH",
"-26 221 OFFCURVE",
"-42 163 OFFCURVE",
"-42 108 CURVE SMOOTH",
"-42 43 OFFCURVE",
"-16 0 OFFCURVE",
"25 0 CURVE SMOOTH",
"101 0 OFFCURVE",
"176 98 OFFCURVE",
"222 190 CURVE",
"216 194 LINE",
"190 141 OFFCURVE",
"181 101 OFFCURVE",
"181 70 CURVE SMOOTH",
"181 22 OFFCURVE",
"206 0 OFFCURVE",
"238 0 CURVE SMOOTH",
"307 0 OFFCURVE",
"381 110 OFFCURVE",
"447 276 CURVE",
"447 282 OFFCURVE",
"441 282 OFFCURVE",
"437 282 CURVE",
"374 124 OFFCURVE",
"301 12 OFFCURVE",
"238 12 CURVE SMOOTH",
"213 12 OFFCURVE",
"198 34 OFFCURVE",
"198 67 CURVE SMOOTH",
"198 96 OFFCURVE",
"208 134 OFFCURVE",
"229 177 CURVE SMOOTH",
"595 965 LINE",
"566 965 LINE",
"236 245 LINE SMOOTH",
"185 135 OFFCURVE",
"103 14 OFFCURVE",
"27 14 CURVE SMOOTH",
"-4 14 OFFCURVE",
"-19 44 OFFCURVE",
"-19 94 CURVE SMOOTH",
"-19 269 OFFCURVE",
"154 550 OFFCURVE",
"268 550 CURVE SMOOTH"
);
}
);
width = 436;
},
{
hints = (
{
horizontal = 1;
place = "{0, -20}";
target = down;
type = TopGhost;
},
{
horizontal = 1;
place = "{968, -20}";
target = down;
type = TopGhost;
}
);
layerId = "71F17050-D056-48DB-A6EA-6AFC75FA62B4";
paths = (
{
closed = 1;
nodes = (
"297 554 OFFCURVE",
"314 534 OFFCURVE",
"314 501 CURVE SMOOTH",
"314 462 OFFCURVE",
"290 413 OFFCURVE",
"261 385 CURVE",
"259 382 OFFCURVE",
"260 379 OFFCURVE",
"263 377 CURVE",
"295 406 OFFCURVE",
"326 456 OFFCURVE",
"326 500 CURVE SMOOTH",
"326 538 OFFCURVE",
"302 563 OFFCURVE",
"266 563 CURVE SMOOTH",
"177 563 OFFCURVE",
"62 426 OFFCURVE",
"0 282 CURVE SMOOTH",
"-26 221 OFFCURVE",
"-42 162 OFFCURVE",
"-42 107 CURVE SMOOTH",
"-42 43 OFFCURVE",
"-17 0 OFFCURVE",
"23 0 CURVE SMOOTH",
"99 0 OFFCURVE",
"174 98 OFFCURVE",
"220 190 CURVE",
"217 193 LINE",
"191 140 OFFCURVE",
"182 99 OFFCURVE",
"182 69 CURVE SMOOTH",
"182 22 OFFCURVE",
"206 0 OFFCURVE",
"238 0 CURVE SMOOTH",
"305 0 OFFCURVE",
"379 111 OFFCURVE",
"444 278 CURVE",
"444 284 OFFCURVE",
"440 282 OFFCURVE",
"437 282 CURVE",
"374 122 OFFCURVE",
"301 8 OFFCURVE",
"238 8 CURVE SMOOTH",
"211 8 OFFCURVE",
"196 31 OFFCURVE",
"196 66 CURVE SMOOTH",
"196 95 OFFCURVE",
"206 134 OFFCURVE",
"227 177 CURVE SMOOTH",
"595 968 LINE",
"569 968 LINE",
"237 244 LINE SMOOTH",
"186 132 OFFCURVE",
"103 10 OFFCURVE",
"25 10 CURVE SMOOTH",
"-7 10 OFFCURVE",
"-23 41 OFFCURVE",
"-23 93 CURVE SMOOTH",
"-23 270 OFFCURVE",
"152 554 OFFCURVE",
"268 554 CURVE SMOOTH"
);
}
);
width = 437;
},
{
hints = (
{
horizontal = 1;
place = "{0, -20}";
target = down;
type = TopGhost;
},
{
horizontal = 1;
place = "{-12, 21}";
type = Stem;
},
{
horizontal = 1;
place = "{971, -20}";
target = down;
type = TopGhost;
}
);
layerId = "16A2D4D5-7122-496F-87E2-41E3467D9F6F";
paths = (
{
closed = 1;
nodes = (
"300 558 OFFCURVE",
"319 536 OFFCURVE",
"319 500 CURVE SMOOTH",
"319 460 OFFCURVE",
"295 410 OFFCURVE",
"266 382 CURVE",
"265 381 OFFCURVE",
"266 380 OFFCURVE",
"267 379 CURVE",
"297 407 OFFCURVE",
"327 456 OFFCURVE",
"327 499 CURVE SMOOTH",
"327 538 OFFCURVE",
"303 563 OFFCURVE",
"266 563 CURVE SMOOTH",
"178 563 OFFCURVE",
"62 427 OFFCURVE",
"0 282 CURVE SMOOTH",
"-26 221 OFFCURVE",
"-43 160 OFFCURVE",
"-43 106 CURVE SMOOTH",
"-43 42 OFFCURVE",
"-18 0 OFFCURVE",
"21 0 CURVE SMOOTH",
"96 0 OFFCURVE",
"171 98 OFFCURVE",
"217 191 CURVE",
"219 191 LINE",
"193 138 OFFCURVE",
"184 97 OFFCURVE",
"184 67 CURVE SMOOTH",
"184 21 OFFCURVE",
"207 0 OFFCURVE",
"237 0 CURVE SMOOTH",
"303 0 OFFCURVE",
"375 112 OFFCURVE",
"439 280 CURVE",
"439 282 OFFCURVE",
"439 283 OFFCURVE",
"436 282 CURVE",
"374 120 OFFCURVE",
"301 4 OFFCURVE",
"237 4 CURVE SMOOTH",
"209 4 OFFCURVE",
"193 27 OFFCURVE",
"193 64 CURVE SMOOTH",
"193 94 OFFCURVE",
"203 133 OFFCURVE",
"224 178 CURVE SMOOTH",
"594 971 LINE",
"573 971 LINE",
"239 242 LINE SMOOTH",
"187 129 OFFCURVE",
"103 6 OFFCURVE",
"23 6 CURVE SMOOTH",
"-11 6 OFFCURVE",
"-27 38 OFFCURVE",
"-27 91 CURVE SMOOTH",
"-27 271 OFFCURVE",
"150 558 OFFCURVE",
"268 558 CURVE SMOOTH"
);
}
);
width = 436;
}
);
unicode = 0064;
},
{
color = (255,153,254,255);
glyphname = d.baja;
layers = (
{
hints = (
{
horizontal = 1;
place = "{4, -20}";
target = down;
type = TopGhost;
},
{
horizontal = 1;
place = "{-16, 29}";
type = Stem;
},
{
horizontal = 1;
place = "{843, -20}";
target = down;
type = TopGhost;
}
);
layerId = "12538090-4C57-4FAF-B923-C9DF6C947DDF";
paths = (
{
closed = 1;
nodes = (
"215 194 LINE",
"189 141 OFFCURVE",
"180 101 OFFCURVE",
"180 70 CURVE SMOOTH",
"180 22 OFFCURVE",
"205 0 OFFCURVE",
"237 0 CURVE SMOOTH",
"306 0 OFFCURVE",
"381 110 OFFCURVE",
"447 276 CURVE",
"447 284 OFFCURVE",
"441 285 OFFCURVE",
"437 282 CURVE",
"374 124 OFFCURVE",
"300 12 OFFCURVE",
"237 12 CURVE SMOOTH",
"212 12 OFFCURVE",
"197 34 OFFCURVE",
"197 67 CURVE SMOOTH",
"197 96 OFFCURVE",
"208 134 OFFCURVE",
"228 177 CURVE SMOOTH",
"535 835 LINE",
"506 835 LINE",
"235 245 LINE SMOOTH",
"184 135 OFFCURVE",
"102 14 OFFCURVE",
"26 14 CURVE SMOOTH",
"-5 14 OFFCURVE",
"-20 44 OFFCURVE",
"-20 94 CURVE SMOOTH",
"-20 269 OFFCURVE",
"153 550 OFFCURVE",
"267 550 CURVE SMOOTH",
"294 550 OFFCURVE",
"309 532 OFFCURVE",
"309 502 CURVE SMOOTH",
"309 464 OFFCURVE",
"285 415 OFFCURVE",
"256 387 CURVE SMOOTH",
"252 383 OFFCURVE",
"253 378 OFFCURVE",
"259 375 CURVE",
"292 406 OFFCURVE",
"324 456 OFFCURVE",
"324 501 CURVE SMOOTH",
"324 538 OFFCURVE",
"301 563 OFFCURVE",
"265 563 CURVE SMOOTH",
"176 563 OFFCURVE",
"61 428 OFFCURVE",
"-1 284 CURVE SMOOTH",
"-27 223 OFFCURVE",
"-43 163 OFFCURVE",
"-43 108 CURVE SMOOTH",
"-43 43 OFFCURVE",
"-17 0 OFFCURVE",
"24 0 CURVE SMOOTH",
"100 0 OFFCURVE",
"175 98 OFFCURVE",
"221 190 CURVE"
);
}
);
width = 436;
},
{
hints = (
{
horizontal = 1;
place = "{0, -20}";
target = down;
type = TopGhost;
},
{
horizontal = 1;
place = "{837, -20}";
target = down;
type = TopGhost;
}
);
layerId = "71F17050-D056-48DB-A6EA-6AFC75FA62B4";
paths = (
{
closed = 1;
nodes = (
"217 193 LINE",
"191 140 OFFCURVE",
"182 99 OFFCURVE",
"182 69 CURVE SMOOTH",
"182 22 OFFCURVE",
"206 0 OFFCURVE",
"237 0 CURVE SMOOTH",
"305 0 OFFCURVE",
"379 111 OFFCURVE",
"444 278 CURVE",
"444 283 OFFCURVE",
"440 284 OFFCURVE",
"437 282 CURVE",
"374 122 OFFCURVE",
"300 8 OFFCURVE",
"237 8 CURVE SMOOTH",
"211 8 OFFCURVE",
"195 31 OFFCURVE",
"195 66 CURVE SMOOTH",
"195 95 OFFCURVE",
"206 134 OFFCURVE",
"226 177 CURVE SMOOTH",
"535 837 LINE",
"509 837 LINE",
"237 244 LINE SMOOTH",
"185 132 OFFCURVE",
"102 10 OFFCURVE",
"25 10 CURVE SMOOTH",
"-8 10 OFFCURVE",
"-23 41 OFFCURVE",
"-23 93 CURVE SMOOTH",
"-23 270 OFFCURVE",
"152 554 OFFCURVE",
"267 554 CURVE SMOOTH",
"297 554 OFFCURVE",
"314 534 OFFCURVE",
"314 501 CURVE SMOOTH",
"314 462 OFFCURVE",
"290 413 OFFCURVE",
"261 385 CURVE SMOOTH",
"258 382 OFFCURVE",
"259 378 OFFCURVE",
"263 377 CURVE",
"294 406 OFFCURVE",
"325 456 OFFCURVE",
"325 500 CURVE SMOOTH",
"325 538 OFFCURVE",
"302 563 OFFCURVE",
"265 563 CURVE SMOOTH",
"177 563 OFFCURVE",
"61 428 OFFCURVE",
"-1 283 CURVE SMOOTH",
"-27 222 OFFCURVE",
"-43 162 OFFCURVE",
"-43 107 CURVE SMOOTH",
"-43 43 OFFCURVE",
"-17 0 OFFCURVE",
"23 0 CURVE SMOOTH",
"98 0 OFFCURVE",
"173 98 OFFCURVE",
"219 190 CURVE"
);
}
);
width = 437;
},
{
hints = (
{
horizontal = 1;
place = "{0, -20}";
target = down;
type = TopGhost;
},
{
horizontal = 1;
place = "{-12, 21}";
type = Stem;
},
{
horizontal = 1;
place = "{839, -20}";
target = down;
type = TopGhost;
}
);
layerId = "16A2D4D5-7122-496F-87E2-41E3467D9F6F";
paths = (
{
closed = 1;
nodes = (
"219 191 LINE",
"193 138 OFFCURVE",
"184 97 OFFCURVE",
"184 67 CURVE SMOOTH",
"184 21 OFFCURVE",
"207 0 OFFCURVE",
"237 0 CURVE SMOOTH",
"303 0 OFFCURVE",
"375 112 OFFCURVE",
"439 280 CURVE",
"439 282 OFFCURVE",
"439 283 OFFCURVE",
"436 282 CURVE",
"374 120 OFFCURVE",
"301 4 OFFCURVE",
"237 4 CURVE SMOOTH",
"209 4 OFFCURVE",
"193 27 OFFCURVE",
"193 64 CURVE SMOOTH",
"193 94 OFFCURVE",
"203 133 OFFCURVE",
"224 178 CURVE SMOOTH",
"534 839 LINE",
"513 839 LINE",
"239 242 LINE SMOOTH",
"187 129 OFFCURVE",
"103 6 OFFCURVE",
"23 6 CURVE SMOOTH",
"-11 6 OFFCURVE",
"-27 38 OFFCURVE",
"-27 91 CURVE SMOOTH",
"-27 271 OFFCURVE",
"150 558 OFFCURVE",
"268 558 CURVE SMOOTH",
"300 558 OFFCURVE",
"319 536 OFFCURVE",
"319 500 CURVE SMOOTH",
"319 460 OFFCURVE",
"295 410 OFFCURVE",
"266 382 CURVE",
"264 380 OFFCURVE",
"265 378 OFFCURVE",
"267 379 CURVE",
"297 407 OFFCURVE",
"327 456 OFFCURVE",
"327 499 CURVE SMOOTH",
"327 538 OFFCURVE",
"303 563 OFFCURVE",
"266 563 CURVE SMOOTH",
"178 563 OFFCURVE",
"62 427 OFFCURVE",
"0 282 CURVE SMOOTH",
"-26 221 OFFCURVE",
"-43 160 OFFCURVE",
"-43 106 CURVE SMOOTH",
"-43 42 OFFCURVE",
"-18 0 OFFCURVE",
"21 0 CURVE SMOOTH",
"96 0 OFFCURVE",
"171 98 OFFCURVE",
"217 191 CURVE"
);
}
);
width = 436;
}
);
},
{
color = (255,153,254,255);
glyphname = d.999;
layers = (
{
hints = (
{
horizontal = 1;
place = "{-227, 225}";
type = Stem;
},
{
horizontal = 1;
place = "{975, -20}";
target = down;
type = TopGhost;
}
);
layerId = "12538090-4C57-4FAF-B923-C9DF6C947DDF";
paths = (
{
closed = 1;
nodes = (
"217 194 LINE",
"188 126 OFFCURVE",
"175 79 OFFCURVE",
"175 28 CURVE SMOOTH",
"175 -119 OFFCURVE",
"279 -220 OFFCURVE",
"412 -220 CURVE SMOOTH",
"632 -220 OFFCURVE",
"870 35 OFFCURVE",
"870 252 CURVE SMOOTH",
"870 336 OFFCURVE",
"834 422 OFFCURVE",
"738 422 CURVE SMOOTH",
"597 422 OFFCURVE",
"475 255 OFFCURVE",
"475 124 CURVE SMOOTH",
"475 61 OFFCURVE",
"500 7 OFFCURVE",
"547 -21 CURVE",
"552 -18 OFFCURVE",
"553 -14 OFFCURVE",
"550 -9 CURVE",
"512 16 OFFCURVE",
"490 60 OFFCURVE",
"490 116 CURVE SMOOTH",
"490 241 OFFCURVE",
"604 410 OFFCURVE",
"737 410 CURVE SMOOTH",
"822 410 OFFCURVE",
"850 343 OFFCURVE",
"850 270 CURVE SMOOTH",
"850 55 OFFCURVE",
"636 -208 OFFCURVE",
"412 -208 CURVE SMOOTH",
"299 -208 OFFCURVE",
"191 -120 OFFCURVE",
"191 20 CURVE SMOOTH",
"191 81 OFFCURVE",
"229 179 OFFCURVE",
"251 227 CURVE SMOOTH",
"595 965 LINE",
"566 965 LINE",
"236 245 LINE SMOOTH",
"184 131 OFFCURVE",
"104 14 OFFCURVE",
"27 14 CURVE SMOOTH",
"-4 14 OFFCURVE",
"-19 44 OFFCURVE",
"-19 94 CURVE SMOOTH",
"-19 269 OFFCURVE",
"154 550 OFFCURVE",
"268 550 CURVE SMOOTH",
"295 550 OFFCURVE",
"310 532 OFFCURVE",
"310 502 CURVE SMOOTH",
"310 464 OFFCURVE",
"286 415 OFFCURVE",
"257 387 CURVE SMOOTH",
"253 383 OFFCURVE",
"254 378 OFFCURVE",
"260 375 CURVE",
"293 406 OFFCURVE",
"325 456 OFFCURVE",
"325 501 CURVE SMOOTH",
"325 538 OFFCURVE",
"302 563 OFFCURVE",
"266 563 CURVE SMOOTH",
"177 563 OFFCURVE",
"62 426 OFFCURVE",
"0 282 CURVE SMOOTH",
"-26 221 OFFCURVE",
"-42 163 OFFCURVE",
"-42 108 CURVE SMOOTH",
"-42 43 OFFCURVE",
"-16 0 OFFCURVE",
"25 0 CURVE SMOOTH",
"100 0 OFFCURVE",
"175 96 OFFCURVE",
"221 188 CURVE"
);
}
);
width = 912;
},
{
hints = (
{
horizontal = 1;
place = "{968, -20}";
target = down;
type = TopGhost;
}
);
layerId = "71F17050-D056-48DB-A6EA-6AFC75FA62B4";
paths = (
{
closed = 1;
nodes = (
"218 193 LINE",
"189 125 OFFCURVE",
"176 77 OFFCURVE",
"176 26 CURVE SMOOTH",
"176 -121 OFFCURVE",
"280 -221 OFFCURVE",
"413 -221 CURVE SMOOTH",
"633 -221 OFFCURVE",
"872 34 OFFCURVE",
"872 252 CURVE SMOOTH",
"872 336 OFFCURVE",
"836 421 OFFCURVE",
"741 421 CURVE SMOOTH",
"599 421 OFFCURVE",
"477 256 OFFCURVE",
"477 126 CURVE SMOOTH",
"477 62 OFFCURVE",
"501 7 OFFCURVE",
"547 -20 CURVE",
"552 -19 OFFCURVE",
"553 -15 OFFCURVE",
"550 -12 CURVE",
"512 13 OFFCURVE",
"490 58 OFFCURVE",
"490 115 CURVE SMOOTH",
"490 241 OFFCURVE",
"605 413 OFFCURVE",
"740 413 CURVE SMOOTH",
"827 413 OFFCURVE",
"856 344 OFFCURVE",
"856 270 CURVE SMOOTH",
"856 53 OFFCURVE",
"639 -213 OFFCURVE",
"413 -213 CURVE SMOOTH",
"298 -213 OFFCURVE",
"189 -124 OFFCURVE",
"189 18 CURVE SMOOTH",
"189 80 OFFCURVE",
"227 179 OFFCURVE",
"249 227 CURVE SMOOTH",
"595 968 LINE",
"569 968 LINE",
"237 244 LINE SMOOTH",
"185 129 OFFCURVE",
"104 10 OFFCURVE",
"25 10 CURVE SMOOTH",
"-7 10 OFFCURVE",
"-23 41 OFFCURVE",
"-23 93 CURVE SMOOTH",
"-23 270 OFFCURVE",
"152 554 OFFCURVE",
"268 554 CURVE SMOOTH",
"297 554 OFFCURVE",
"314 534 OFFCURVE",
"314 501 CURVE SMOOTH",
"314 462 OFFCURVE",
"290 413 OFFCURVE",
"261 385 CURVE SMOOTH",
"258 382 OFFCURVE",
"259 378 OFFCURVE",
"263 377 CURVE",
"295 406 OFFCURVE",
"326 456 OFFCURVE",
"326 500 CURVE SMOOTH",
"326 538 OFFCURVE",
"302 563 OFFCURVE",
"266 563 CURVE SMOOTH",
"177 563 OFFCURVE",
"62 426 OFFCURVE",
"0 282 CURVE SMOOTH",
"-26 221 OFFCURVE",
"-42 162 OFFCURVE",
"-42 107 CURVE SMOOTH",
"-42 43 OFFCURVE",
"-17 0 OFFCURVE",
"23 0 CURVE SMOOTH",
"98 0 OFFCURVE",
"173 97 OFFCURVE",
"219 189 CURVE"
);
}
);
width = 910;
},
{
hints = (
{
horizontal = 1;
place = "{-223, 217}";
type = Stem;
},
{
horizontal = 1;
place = "{971, -20}";
target = down;
type = TopGhost;
}
);
layerId = "16A2D4D5-7122-496F-87E2-41E3467D9F6F";
paths = (
{
closed = 1;
nodes = (
"220 191 LINE",
"191 123 OFFCURVE",
"177 75 OFFCURVE",
"177 24 CURVE SMOOTH",
"177 -123 OFFCURVE",
"281 -223 OFFCURVE",
"414 -223 CURVE SMOOTH",
"635 -223 OFFCURVE",
"874 33 OFFCURVE",
"874 252 CURVE SMOOTH",
"874 335 OFFCURVE",
"839 420 OFFCURVE",
"745 420 CURVE SMOOTH",
"602 420 OFFCURVE",
"479 257 OFFCURVE",
"479 129 CURVE SMOOTH",
"479 63 OFFCURVE",
"503 8 OFFCURVE",
"548 -19 CURVE",
"551 -20 OFFCURVE",
"553 -17 OFFCURVE",
"549 -15 CURVE",
"511 10 OFFCURVE",
"489 56 OFFCURVE",
"489 114 CURVE SMOOTH",
"489 242 OFFCURVE",
"607 416 OFFCURVE",
"744 416 CURVE SMOOTH",
"833 416 OFFCURVE",
"862 346 OFFCURVE",
"862 270 CURVE SMOOTH",
"862 50 OFFCURVE",
"643 -219 OFFCURVE",
"414 -219 CURVE SMOOTH",
"297 -219 OFFCURVE",
"186 -129 OFFCURVE",
"186 16 CURVE SMOOTH",
"186 79 OFFCURVE",
"224 179 OFFCURVE",
"247 228 CURVE SMOOTH",
"594 971 LINE",
"573 971 LINE",
"239 242 LINE SMOOTH",
"186 126 OFFCURVE",
"103 6 OFFCURVE",
"23 6 CURVE SMOOTH",
"-11 6 OFFCURVE",
"-27 38 OFFCURVE",
"-27 91 CURVE SMOOTH",
"-27 271 OFFCURVE",
"150 558 OFFCURVE",
"268 558 CURVE SMOOTH",
"300 558 OFFCURVE",
"319 536 OFFCURVE",
"319 500 CURVE SMOOTH",
"319 460 OFFCURVE",
"295 410 OFFCURVE",
"266 382 CURVE",
"264 380 OFFCURVE",
"265 378 OFFCURVE",
"267 379 CURVE",
"297 407 OFFCURVE",
"327 456 OFFCURVE",
"327 499 CURVE SMOOTH",
"327 538 OFFCURVE",
"303 563 OFFCURVE",
"266 563 CURVE SMOOTH",
"178 563 OFFCURVE",
"62 427 OFFCURVE",
"0 282 CURVE SMOOTH",
"-26 221 OFFCURVE",
"-43 160 OFFCURVE",
"-43 106 CURVE SMOOTH",
"-43 42 OFFCURVE",
"-18 0 OFFCURVE",
"21 0 CURVE SMOOTH",
"96 0 OFFCURVE",
"171 98 OFFCURVE",
"217 191 CURVE"
);
}
);
width = 912;
}
);
},
{
color = (255,153,254,255);
glyphname = d.5;
layers = (
{
hints = (
{
horizontal = 1;
place = "{-132, 130}";
type = Stem;
},
{
horizontal = 1;
place = "{975, -20}";
target = down;
type = TopGhost;
}
);
layerId = "12538090-4C57-4FAF-B923-C9DF6C947DDF";
paths = (
{
closed = 1;
nodes = (
"216 193 LINE",
"193 135 OFFCURVE",
"182 97 OFFCURVE",
"182 54 CURVE SMOOTH",
"182 -29 OFFCURVE",
"226 -126 OFFCURVE",
"344 -126 CURVE SMOOTH",
"475 -126 OFFCURVE",
"554 -15 OFFCURVE",
"554 75 CURVE SMOOTH",
"554 144 OFFCURVE",
"503 194 OFFCURVE",
"452 194 CURVE SMOOTH",
"435 194 OFFCURVE",
"418 188 OFFCURVE",
"404 177 CURVE",
"398 170 OFFCURVE",
"404 164 OFFCURVE",
"410 167 CURVE",
"423 177 OFFCURVE",
"439 182 OFFCURVE",
"452 182 CURVE SMOOTH",
"497 182 OFFCURVE",
"540 143 OFFCURVE",
"540 81 CURVE SMOOTH",
"540 -3 OFFCURVE",
"467 -114 OFFCURVE",
"344 -114 CURVE SMOOTH",
"239 -114 OFFCURVE",
"200 -30 OFFCURVE",
"200 39 CURVE SMOOTH",
"200 100 OFFCURVE",
"231 183 OFFCURVE",
"250 227 CURVE",
"594 965 LINE",
"565 965 LINE",
"235 245 LINE SMOOTH",
"183 131 OFFCURVE",
"103 14 OFFCURVE",
"26 14 CURVE SMOOTH",
"-5 14 OFFCURVE",
"-20 44 OFFCURVE",
"-20 94 CURVE SMOOTH",
"-20 269 OFFCURVE",
"153 550 OFFCURVE",
"267 550 CURVE SMOOTH",
"294 550 OFFCURVE",
"309 532 OFFCURVE",
"309 502 CURVE SMOOTH",
"309 464 OFFCURVE",
"285 415 OFFCURVE",
"256 387 CURVE SMOOTH",
"252 383 OFFCURVE",
"252 373 OFFCURVE",
"259 375 CURVE",
"292 406 OFFCURVE",
"324 456 OFFCURVE",
"324 501 CURVE SMOOTH",
"324 538 OFFCURVE",
"301 563 OFFCURVE",
"265 563 CURVE SMOOTH",
"176 563 OFFCURVE",
"61 428 OFFCURVE",
"-1 284 CURVE SMOOTH",
"-27 223 OFFCURVE",
"-43 163 OFFCURVE",
"-43 108 CURVE SMOOTH",
"-43 43 OFFCURVE",
"-17 0 OFFCURVE",
"24 0 CURVE SMOOTH",
"99 0 OFFCURVE",
"174 96 OFFCURVE",
"220 188 CURVE"
);
}
);
width = 409;
},
{
hints = (
{
horizontal = 1;
place = "{968, -20}";
target = down;
type = TopGhost;
}
);
layerId = "71F17050-D056-48DB-A6EA-6AFC75FA62B4";
paths = (
{
closed = 1;
nodes = (
"218 192 LINE",
"195 134 OFFCURVE",
"184 95 OFFCURVE",
"184 53 CURVE SMOOTH",
"184 -30 OFFCURVE",
"227 -127 OFFCURVE",
"345 -127 CURVE SMOOTH",
"475 -127 OFFCURVE",
"554 -16 OFFCURVE",
"554 74 CURVE SMOOTH",
"554 142 OFFCURVE",
"504 192 OFFCURVE",
"453 192 CURVE SMOOTH",
"437 192 OFFCURVE",
"421 186 OFFCURVE",
"408 176 CURVE",
"404 171 OFFCURVE",
"408 167 OFFCURVE",
"412 169 CURVE",
"424 178 OFFCURVE",
"440 183 OFFCURVE",
"453 183 CURVE SMOOTH",
"500 183 OFFCURVE",
"544 143 OFFCURVE",
"544 80 CURVE SMOOTH",
"544 -6 OFFCURVE",
"470 -119 OFFCURVE",
"345 -119 CURVE SMOOTH",
"238 -119 OFFCURVE",
"198 -33 OFFCURVE",
"198 37 CURVE SMOOTH",
"198 99 OFFCURVE",
"229 183 OFFCURVE",
"249 227 CURVE",
"594 968 LINE",
"569 968 LINE",
"237 244 LINE SMOOTH",
"184 129 OFFCURVE",
"103 10 OFFCURVE",
"25 10 CURVE SMOOTH",
"-8 10 OFFCURVE",
"-23 41 OFFCURVE",
"-23 93 CURVE SMOOTH",
"-23 270 OFFCURVE",
"152 554 OFFCURVE",
"267 554 CURVE SMOOTH",
"297 554 OFFCURVE",
"314 534 OFFCURVE",
"314 501 CURVE SMOOTH",
"314 462 OFFCURVE",
"290 413 OFFCURVE",
"261 385 CURVE SMOOTH",
"258 382 OFFCURVE",
"258 375 OFFCURVE",
"263 377 CURVE",
"294 406 OFFCURVE",
"325 456 OFFCURVE",
"325 500 CURVE SMOOTH",
"325 538 OFFCURVE",
"302 563 OFFCURVE",
"265 563 CURVE SMOOTH",
"177 563 OFFCURVE",
"61 428 OFFCURVE",
"-1 283 CURVE SMOOTH",
"-27 222 OFFCURVE",
"-43 162 OFFCURVE",
"-43 107 CURVE SMOOTH",
"-43 43 OFFCURVE",
"-17 0 OFFCURVE",
"23 0 CURVE SMOOTH",
"98 0 OFFCURVE",
"173 97 OFFCURVE",
"219 189 CURVE"
);
}
);
width = 409;
},
{
hints = (
{
horizontal = 1;
place = "{-128, 122}";
type = Stem;
},
{
horizontal = 1;
place = "{971, -20}";
target = down;
type = TopGhost;
}
);
layerId = "16A2D4D5-7122-496F-87E2-41E3467D9F6F";
paths = (
{
closed = 1;
nodes = (
"220 191 LINE",
"197 132 OFFCURVE",
"186 93 OFFCURVE",
"186 51 CURVE SMOOTH",
"186 -31 OFFCURVE",
"229 -128 OFFCURVE",
"346 -128 CURVE SMOOTH",
"476 -128 OFFCURVE",
"555 -17 OFFCURVE",
"555 72 CURVE SMOOTH",
"555 140 OFFCURVE",
"505 189 OFFCURVE",
"455 189 CURVE SMOOTH",
"439 189 OFFCURVE",
"424 184 OFFCURVE",
"412 175 CURVE",
"410 173 OFFCURVE",
"412 170 OFFCURVE",
"414 171 CURVE",
"426 180 OFFCURVE",
"441 185 OFFCURVE",
"455 185 CURVE SMOOTH",
"503 185 OFFCURVE",
"549 144 OFFCURVE",
"549 78 CURVE SMOOTH",
"549 -9 OFFCURVE",
"474 -124 OFFCURVE",
"346 -124 CURVE SMOOTH",
"236 -124 OFFCURVE",
"196 -36 OFFCURVE",
"196 35 CURVE SMOOTH",
"196 98 OFFCURVE",
"227 184 OFFCURVE",
"247 228 CURVE SMOOTH",
"594 971 LINE",
"573 971 LINE",
"239 242 LINE SMOOTH",
"186 126 OFFCURVE",
"103 6 OFFCURVE",
"23 6 CURVE SMOOTH",
"-11 6 OFFCURVE",
"-27 38 OFFCURVE",
"-27 91 CURVE SMOOTH",
"-27 271 OFFCURVE",
"150 558 OFFCURVE",
"268 558 CURVE SMOOTH",
"300 558 OFFCURVE",
"319 536 OFFCURVE",
"319 500 CURVE SMOOTH",
"319 460 OFFCURVE",
"295 410 OFFCURVE",
"266 382 CURVE",
"264 380 OFFCURVE",
"265 378 OFFCURVE",
"267 379 CURVE",
"297 407 OFFCURVE",
"327 456 OFFCURVE",
"327 499 CURVE SMOOTH",
"327 538 OFFCURVE",
"303 563 OFFCURVE",
"266 563 CURVE SMOOTH",
"178 563 OFFCURVE",
"62 427 OFFCURVE",
"0 282 CURVE SMOOTH",
"-26 221 OFFCURVE",
"-43 160 OFFCURVE",
"-43 106 CURVE SMOOTH",
"-43 42 OFFCURVE",
"-18 0 OFFCURVE",
"21 0 CURVE SMOOTH",
"96 0 OFFCURVE",
"171 98 OFFCURVE",
"217 191 CURVE"
);
}
);
width = 409;
}
);
},
{
color = (255,153,254,255);
glyphname = d.9;
layers = (
{
associatedMasterId = "16A2D4D5-7122-496F-87E2-41E3467D9F6F";
layerId = "E2C39D0A-5B42-4E5B-94C5-696579E2657D";
name = public.background;
width = 819;
},
{
hints = (
{
horizontal = 1;
place = "{-273, 29}";
type = Stem;
},
{
horizontal = 1;
place = "{975, -20}";
target = down;
type = TopGhost;
}
);
layerId = "12538090-4C57-4FAF-B923-C9DF6C947DDF";
paths = (
{
closed = 1;
nodes = (
"219 194 LINE",
"183 108 OFFCURVE",
"166 48 OFFCURVE",
"166 -17 CURVE SMOOTH",
"166 -164 OFFCURVE",
"267 -265 OFFCURVE",
"413 -265 CURVE SMOOTH",
"574 -265 OFFCURVE",
"733 -142 OFFCURVE",
"733 36 CURVE SMOOTH",
"733 135 OFFCURVE",
"659 212 OFFCURVE",
"564 212 CURVE SMOOTH",
"503 212 OFFCURVE",
"431 167 OFFCURVE",
"431 107 CURVE SMOOTH",
"431 93 OFFCURVE",
"439 78 OFFCURVE",
"453 69 CURVE",
"457 78 LINE",
"449 84 OFFCURVE",
"447 95 OFFCURVE",
"447 105 CURVE SMOOTH",
"447 163 OFFCURVE",
"508 199 OFFCURVE",
"564 199 CURVE SMOOTH",
"647 199 OFFCURVE",
"711 131 OFFCURVE",
"711 39 CURVE SMOOTH",
"711 -135 OFFCURVE",
"566 -253 OFFCURVE",
"416 -253 CURVE SMOOTH",
"287 -253 OFFCURVE",
"182 -166 OFFCURVE",
"182 -25 CURVE SMOOTH",
"182 50 OFFCURVE",
"226 170 OFFCURVE",
"253 227 CURVE SMOOTH",
"597 965 LINE",
"568 965 LINE",
"238 245 LINE SMOOTH",
"186 131 OFFCURVE",
"106 14 OFFCURVE",
"29 14 CURVE SMOOTH",
"-2 14 OFFCURVE",
"-17 44 OFFCURVE",
"-17 94 CURVE SMOOTH",
"-17 269 OFFCURVE",
"156 550 OFFCURVE",
"270 550 CURVE SMOOTH",
"297 550 OFFCURVE",
"312 532 OFFCURVE",
"312 502 CURVE SMOOTH",
"312 464 OFFCURVE",
"288 415 OFFCURVE",
"259 387 CURVE SMOOTH",
"255 383 OFFCURVE",
"255 375 OFFCURVE",
"262 375 CURVE",
"295 406 OFFCURVE",
"327 456 OFFCURVE",
"327 501 CURVE SMOOTH",
"327 538 OFFCURVE",
"304 563 OFFCURVE",
"268 563 CURVE SMOOTH",
"179 563 OFFCURVE",
"62 426 OFFCURVE",
"0 282 CURVE SMOOTH",
"-26 221 OFFCURVE",
"-40 163 OFFCURVE",
"-40 108 CURVE SMOOTH",
"-40 43 OFFCURVE",
"-14 0 OFFCURVE",
"27 0 CURVE SMOOTH",
"102 0 OFFCURVE",
"177 96 OFFCURVE",
"223 188 CURVE"
);
}
);
width = 819;
},
{
hints = (
{
horizontal = 1;
place = "{968, -20}";
target = down;
type = TopGhost;
}
);
layerId = "71F17050-D056-48DB-A6EA-6AFC75FA62B4";
paths = (
{
closed = 1;
nodes = (
"219 193 LINE",
"183 107 OFFCURVE",
"166 46 OFFCURVE",
"166 -19 CURVE SMOOTH",
"166 -166 OFFCURVE",
"267 -267 OFFCURVE",
"413 -267 CURVE SMOOTH",
"574 -267 OFFCURVE",
"733 -144 OFFCURVE",
"733 34 CURVE SMOOTH",
"733 133 OFFCURVE",
"659 210 OFFCURVE",
"565 210 CURVE SMOOTH",
"504 210 OFFCURVE",
"433 165 OFFCURVE",
"433 106 CURVE SMOOTH",
"433 92 OFFCURVE",
"440 78 OFFCURVE",
"452 70 CURVE",
"455 76 LINE",
"447 82 OFFCURVE",
"445 93 OFFCURVE",
"445 104 CURVE SMOOTH",
"445 163 OFFCURVE",
"508 200 OFFCURVE",
"565 200 CURVE SMOOTH",
"649 200 OFFCURVE",
"715 131 OFFCURVE",
"715 38 CURVE SMOOTH",
"715 -139 OFFCURVE",
"568 -259 OFFCURVE",
"416 -259 CURVE SMOOTH",
"285 -259 OFFCURVE",
"179 -170 OFFCURVE",
"179 -27 CURVE SMOOTH",
"179 49 OFFCURVE",
"223 170 OFFCURVE",
"250 227 CURVE SMOOTH",
"596 968 LINE",
"570 968 LINE",
"238 244 LINE SMOOTH",
"186 129 OFFCURVE",
"105 10 OFFCURVE",
"26 10 CURVE SMOOTH",
"-6 10 OFFCURVE",
"-22 41 OFFCURVE",
"-22 93 CURVE SMOOTH",
"-22 270 OFFCURVE",
"153 554 OFFCURVE",
"269 554 CURVE SMOOTH",
"298 554 OFFCURVE",
"315 534 OFFCURVE",
"315 501 CURVE SMOOTH",
"315 462 OFFCURVE",
"291 413 OFFCURVE",
"262 385 CURVE SMOOTH",
"259 382 OFFCURVE",
"260 376 OFFCURVE",
"264 377 CURVE",
"296 406 OFFCURVE",
"327 456 OFFCURVE",
"327 500 CURVE SMOOTH",
"327 538 OFFCURVE",
"304 563 OFFCURVE",
"267 563 CURVE SMOOTH",
"179 563 OFFCURVE",
"62 426 OFFCURVE",
"0 282 CURVE SMOOTH",
"-26 221 OFFCURVE",
"-41 162 OFFCURVE",
"-41 107 CURVE SMOOTH",
"-41 43 OFFCURVE",
"-16 0 OFFCURVE",
"24 0 CURVE SMOOTH",
"99 0 OFFCURVE",
"174 97 OFFCURVE",
"220 189 CURVE"
);
}
);
width = 819;
},
{
hints = (
{
horizontal = 1;
place = "{-269, 21}";
type = Stem;
},
{
horizontal = 1;
place = "{971, -20}";
target = down;
type = TopGhost;
}
);
layerId = "16A2D4D5-7122-496F-87E2-41E3467D9F6F";
paths = (
{
closed = 1;
nodes = (
"220 191 LINE",
"184 105 OFFCURVE",
"166 44 OFFCURVE",
"166 -21 CURVE SMOOTH",
"166 -168 OFFCURVE",
"267 -269 OFFCURVE",
"413 -269 CURVE SMOOTH",
"574 -269 OFFCURVE",
"733 -146 OFFCURVE",
"733 32 CURVE SMOOTH",
"733 131 OFFCURVE",
"660 207 OFFCURVE",
"566 207 CURVE SMOOTH",
"506 207 OFFCURVE",
"435 163 OFFCURVE",
"435 104 CURVE SMOOTH",
"435 91 OFFCURVE",
"441 79 OFFCURVE",
"451 72 CURVE",
"452 74 LINE",
"445 79 OFFCURVE",
"443 91 OFFCURVE",
"443 102 CURVE SMOOTH",
"443 163 OFFCURVE",
"507 202 OFFCURVE",
"566 202 CURVE SMOOTH",
"652 202 OFFCURVE",
"719 131 OFFCURVE",
"719 36 CURVE SMOOTH",
"719 -143 OFFCURVE",
"570 -265 OFFCURVE",
"416 -265 CURVE SMOOTH",
"283 -265 OFFCURVE",
"175 -174 OFFCURVE",
"175 -29 CURVE SMOOTH",
"175 48 OFFCURVE",
"219 169 OFFCURVE",
"247 228 CURVE SMOOTH",
"594 971 LINE",
"573 971 LINE",
"239 242 LINE SMOOTH",
"186 126 OFFCURVE",
"103 6 OFFCURVE",
"23 6 CURVE SMOOTH",
"-11 6 OFFCURVE",
"-27 38 OFFCURVE",
"-27 91 CURVE SMOOTH",
"-27 271 OFFCURVE",
"150 558 OFFCURVE",
"268 558 CURVE SMOOTH",
"300 558 OFFCURVE",
"319 536 OFFCURVE",
"319 500 CURVE SMOOTH",
"319 460 OFFCURVE",
"295 410 OFFCURVE",
"266 382 CURVE",
"264 380 OFFCURVE",
"265 378 OFFCURVE",
"267 379 CURVE",
"297 407 OFFCURVE",
"327 456 OFFCURVE",
"327 499 CURVE SMOOTH",
"327 538 OFFCURVE",
"303 563 OFFCURVE",
"266 563 CURVE SMOOTH",
"178 563 OFFCURVE",
"62 427 OFFCURVE",
"0 282 CURVE SMOOTH",
"-26 221 OFFCURVE",
"-43 160 OFFCURVE",
"-43 106 CURVE SMOOTH",
"-43 42 OFFCURVE",
"-18 0 OFFCURVE",
"21 0 CURVE SMOOTH",
"96 0 OFFCURVE",
"171 98 OFFCURVE",
"217 191 CURVE"
);
}
);
width = 819;
}
);
},
{
color = (255,153,254,255);
glyphname = d.55;
layers = (
{
associatedMasterId = "16A2D4D5-7122-496F-87E2-41E3467D9F6F";
layerId = "E2C39D0A-5B42-4E5B-94C5-696579E2657D";
name = public.background;
width = 411;
},
{
hints = (
{
horizontal = 1;
place = "{-185, 29}";
type = Stem;
},
{
horizontal = 1;
place = "{975, -20}";
target = down;
type = TopGhost;
}
);
layerId = "12538090-4C57-4FAF-B923-C9DF6C947DDF";
paths = (
{
closed = 1;
nodes = (
"378 -118 LINE",
"366 -154 OFFCURVE",
"320 -164 OFFCURVE",
"293 -164 CURVE SMOOTH",
"235 -164 OFFCURVE",
"182 -104 OFFCURVE",
"182 -2 CURVE SMOOTH",
"182 55 OFFCURVE",
"216 144 OFFCURVE",
"246 210 CURVE SMOOTH",
"596 965 LINE",
"567 965 LINE",
"237 245 LINE SMOOTH",
"185 131 OFFCURVE",
"105 14 OFFCURVE",
"28 14 CURVE SMOOTH",
"-3 14 OFFCURVE",
"-18 44 OFFCURVE",
"-18 94 CURVE SMOOTH",
"-18 269 OFFCURVE",
"155 550 OFFCURVE",
"269 550 CURVE SMOOTH",
"296 550 OFFCURVE",
"311 532 OFFCURVE",
"311 502 CURVE SMOOTH",
"311 464 OFFCURVE",
"287 415 OFFCURVE",
"258 387 CURVE SMOOTH",
"254 383 OFFCURVE",
"255 378 OFFCURVE",
"261 375 CURVE",
"294 406 OFFCURVE",
"326 456 OFFCURVE",
"326 501 CURVE SMOOTH",
"326 538 OFFCURVE",
"303 563 OFFCURVE",
"267 563 CURVE SMOOTH",
"178 563 OFFCURVE",
"61 428 OFFCURVE",
"0 282 CURVE SMOOTH",
"-26 221 OFFCURVE",
"-41 163 OFFCURVE",
"-41 108 CURVE SMOOTH",
"-41 43 OFFCURVE",
"-15 0 OFFCURVE",
"26 0 CURVE SMOOTH",
"101 0 OFFCURVE",
"176 96 OFFCURVE",
"222 188 CURVE",
"218 194 LINE",
"183 123 OFFCURVE",
"170 58 OFFCURVE",
"170 -2 CURVE SMOOTH",
"170 -112 OFFCURVE",
"231 -178 OFFCURVE",
"299 -178 CURVE SMOOTH",
"329 -178 OFFCURVE",
"374 -164 OFFCURVE",
"389 -121 CURVE"
);
}
);
width = 409;
},
{
hints = (
{
horizontal = 1;
place = "{968, -20}";
target = down;
type = TopGhost;
}
);
layerId = "71F17050-D056-48DB-A6EA-6AFC75FA62B4";
paths = (
{
closed = 1;
nodes = (
"379 -123 LINE",
"367 -159 OFFCURVE",
"320 -169 OFFCURVE",
"293 -169 CURVE SMOOTH",
"233 -169 OFFCURVE",
"179 -108 OFFCURVE",
"179 -4 CURVE SMOOTH",
"179 54 OFFCURVE",
"212 144 OFFCURVE",
"243 210 CURVE SMOOTH",
"595 968 LINE",
"570 968 LINE",
"238 244 LINE SMOOTH",
"185 129 OFFCURVE",
"104 10 OFFCURVE",
"26 10 CURVE SMOOTH",
"-7 10 OFFCURVE",
"-22 41 OFFCURVE",
"-22 93 CURVE SMOOTH",
"-22 270 OFFCURVE",
"153 554 OFFCURVE",
"269 554 CURVE SMOOTH",
"298 554 OFFCURVE",
"315 534 OFFCURVE",
"315 501 CURVE SMOOTH",
"315 462 OFFCURVE",
"291 413 OFFCURVE",
"262 385 CURVE SMOOTH",
"259 382 OFFCURVE",
"260 378 OFFCURVE",
"264 377 CURVE",
"295 406 OFFCURVE",
"326 456 OFFCURVE",
"326 500 CURVE SMOOTH",
"326 538 OFFCURVE",
"303 563 OFFCURVE",
"267 563 CURVE SMOOTH",
"178 563 OFFCURVE",
"61 428 OFFCURVE",
"0 282 CURVE SMOOTH",
"-26 221 OFFCURVE",
"-42 162 OFFCURVE",
"-42 107 CURVE SMOOTH",
"-42 43 OFFCURVE",
"-16 0 OFFCURVE",
"24 0 CURVE SMOOTH",
"99 0 OFFCURVE",
"174 97 OFFCURVE",
"220 189 CURVE",
"219 193 LINE",
"184 122 OFFCURVE",
"170 56 OFFCURVE",
"170 -4 CURVE SMOOTH",
"170 -113 OFFCURVE",
"231 -179 OFFCURVE",
"299 -179 CURVE SMOOTH",
"329 -179 OFFCURVE",
"373 -166 OFFCURVE",
"387 -125 CURVE"
);
}
);
width = 410;
},
{
hints = (
{
horizontal = 1;
place = "{-181, 21}";
type = Stem;
},
{
horizontal = 1;
place = "{971, -20}";
target = down;
type = TopGhost;
}
);
layerId = "16A2D4D5-7122-496F-87E2-41E3467D9F6F";
paths = (
{
closed = 1;
nodes = (
"381 -129 LINE",
"369 -164 OFFCURVE",
"321 -174 OFFCURVE",
"292 -174 CURVE SMOOTH",
"231 -174 OFFCURVE",
"176 -113 OFFCURVE",
"176 -6 CURVE SMOOTH",
"176 53 OFFCURVE",
"208 144 OFFCURVE",
"240 211 CURVE SMOOTH",
"594 971 LINE",
"573 971 LINE",
"239 242 LINE SMOOTH",
"186 126 OFFCURVE",
"103 6 OFFCURVE",
"23 6 CURVE SMOOTH",
"-11 6 OFFCURVE",
"-27 38 OFFCURVE",
"-27 91 CURVE SMOOTH",
"-27 271 OFFCURVE",
"150 558 OFFCURVE",
"268 558 CURVE SMOOTH",
"300 558 OFFCURVE",
"319 536 OFFCURVE",
"319 500 CURVE SMOOTH",
"319 460 OFFCURVE",
"295 410 OFFCURVE",
"266 382 CURVE",
"264 380 OFFCURVE",
"265 378 OFFCURVE",
"267 379 CURVE",
"297 407 OFFCURVE",
"327 456 OFFCURVE",
"327 499 CURVE SMOOTH",
"327 538 OFFCURVE",
"303 563 OFFCURVE",
"266 563 CURVE SMOOTH",
"178 563 OFFCURVE",
"62 427 OFFCURVE",
"0 282 CURVE SMOOTH",
"-26 221 OFFCURVE",
"-43 160 OFFCURVE",
"-43 106 CURVE SMOOTH",
"-43 42 OFFCURVE",
"-18 0 OFFCURVE",
"21 0 CURVE SMOOTH",
"96 0 OFFCURVE",
"171 98 OFFCURVE",
"217 191 CURVE",
"220 191 LINE",
"185 120 OFFCURVE",
"171 54 OFFCURVE",
"171 -6 CURVE SMOOTH",
"171 -115 OFFCURVE",
"231 -181 OFFCURVE",
"298 -181 CURVE SMOOTH",
"328 -181 OFFCURVE",
"371 -168 OFFCURVE",
"385 -130 CURVE"
);
}
);
width = 409;
}
);
},
{
color = (255,153,254,255);
glyphname = d.99;
layers = (
{
associatedMasterId = "16A2D4D5-7122-496F-87E2-41E3467D9F6F";
layerId = "E2C39D0A-5B42-4E5B-94C5-696579E2657D";
name = public.background;
paths = (
{
closed = 1;
nodes = (
"312 558 OFFCURVE",
"326 524 OFFCURVE",
"320 485 CURVE SMOOTH",
"315 449 OFFCURVE",
"295 408 OFFCURVE",
"268 382 CURVE",
"269 379 LINE",
"299 407 OFFCURVE",
"323 449 OFFCURVE",
"328 485 CURVE SMOOTH",
"334 527 OFFCURVE",
"314 563 OFFCURVE",
"263 563 CURVE SMOOTH",
"185 563 OFFCURVE",
"67 438 OFFCURVE",
"1 280 CURVE",
"-19 227 OFFCURVE",
"-34 181 OFFCURVE",
"-41 131 CURVE SMOOTH",
"-52 46 OFFCURVE",
"-26 -12 OFFCURVE",
"20 -12 CURVE SMOOTH",
"67 -12 OFFCURVE",
"146 52 OFFCURVE",
"197 140 CURVE",
"151 2 OFFCURVE",
"230 -139 OFFCURVE",
"366 -141 CURVE",
"494 -141 OFFCURVE",
"619 -29 OFFCURVE",
"619 104 CURVE SMOOTH",
"619 179 OFFCURVE",
"558 232 OFFCURVE",
"490 232 CURVE SMOOTH",
"403 232 OFFCURVE",
"336 160 OFFCURVE",
"336 88 CURVE SMOOTH",
"336 71 OFFCURVE",
"344 58 OFFCURVE",
"354 43 CURVE",
"358 45 LINE",
"350 58 OFFCURVE",
"346 71 OFFCURVE",
"346 85 CURVE SMOOTH",
"346 157 OFFCURVE",
"403 227 OFFCURVE",
"489 227 CURVE SMOOTH",
"550 227 OFFCURVE",
"605 189 OFFCURVE",
"605 105 CURVE SMOOTH",
"605 -26 OFFCURVE",
"492 -132 OFFCURVE",
"375 -137 CURVE",
"220 -139 OFFCURVE",
"151 23 OFFCURVE",
"221 168 CURVE SMOOTH",
"264 257 LINE",
"597 971 LINE",
"577 971 LINE",
"249 257 LINE",
"216 185 LINE",
"217 188 LINE",
"159 71 OFFCURVE",
"74 -6 OFFCURVE",
"22 -6 CURVE SMOOTH",
"-21 -6 OFFCURVE",
"-35 45 OFFCURVE",
"-25 123 CURVE SMOOTH",
"-18 174 OFFCURVE",
"-6 220 OFFCURVE",
"16 275 CURVE",
"84 430 OFFCURVE",
"194 558 OFFCURVE",
"263 558 CURVE SMOOTH"
);
}
);
width = 674;
},
{
hints = (
{
horizontal = 1;
place = "{-145, 29}";
type = Stem;
},
{
horizontal = 1;
place = "{975, -20}";
target = down;
type = TopGhost;
}
);
layerId = "12538090-4C57-4FAF-B923-C9DF6C947DDF";
paths = (
{
closed = 1;
nodes = (
"178 563 OFFCURVE",
"62 427 OFFCURVE",
"0 282 CURVE SMOOTH",
"-25 222 OFFCURVE",
"-41 162 OFFCURVE",
"-41 108 CURVE SMOOTH",
"-41 43 OFFCURVE",
"-15 0 OFFCURVE",
"26 0 CURVE SMOOTH",
"101 0 OFFCURVE",
"176 96 OFFCURVE",
"222 188 CURVE",
"218 193 LINE",
"195 135 OFFCURVE",
"184 97 OFFCURVE",
"184 54 CURVE SMOOTH",
"184 -34 OFFCURVE",
"237 -139 OFFCURVE",
"364 -139 CURVE SMOOTH",
"492 -139 OFFCURVE",
"617 -27 OFFCURVE",
"617 107 CURVE SMOOTH",
"617 182 OFFCURVE",
"555 237 OFFCURVE",
"486 237 CURVE SMOOTH",
"398 237 OFFCURVE",
"330 164 OFFCURVE",
"330 91 CURVE SMOOTH",
"330 68 OFFCURVE",
"338 49 OFFCURVE",
"348 27 CURVE",
"353 20 OFFCURVE",
"361 25 OFFCURVE",
"359 33 CURVE",
"351 52 OFFCURVE",
"348 70 OFFCURVE",
"348 88 CURVE SMOOTH",
"348 157 OFFCURVE",
"402 224 OFFCURVE",
"485 224 CURVE SMOOTH",
"543 224 OFFCURVE",
"595 187 OFFCURVE",
"595 108 CURVE SMOOTH",
"595 -20 OFFCURVE",
"486 -127 OFFCURVE",
"367 -127 CURVE SMOOTH",
"258 -127 OFFCURVE",
"202 -35 OFFCURVE",
"202 39 CURVE SMOOTH",
"202 100 OFFCURVE",
"232 184 OFFCURVE",
"252 227 CURVE SMOOTH",
"596 965 LINE",
"567 965 LINE",
"237 245 LINE SMOOTH",
"185 131 OFFCURVE",
"105 14 OFFCURVE",
"28 14 CURVE SMOOTH",
"-3 14 OFFCURVE",
"-18 44 OFFCURVE",
"-18 94 CURVE SMOOTH",
"-18 269 OFFCURVE",
"155 550 OFFCURVE",
"269 550 CURVE SMOOTH",
"296 550 OFFCURVE",
"311 532 OFFCURVE",
"311 502 CURVE SMOOTH",
"311 464 OFFCURVE",
"287 415 OFFCURVE",
"258 387 CURVE SMOOTH",
"254 383 OFFCURVE",
"255 378 OFFCURVE",
"261 375 CURVE",
"294 406 OFFCURVE",
"326 456 OFFCURVE",
"326 501 CURVE SMOOTH",
"326 538 OFFCURVE",
"303 563 OFFCURVE",
"267 563 CURVE SMOOTH"
);
}
);
width = 674;
},
{
hints = (
{
horizontal = 1;
place = "{968, -20}";
target = down;
type = TopGhost;
}
);
layerId = "71F17050-D056-48DB-A6EA-6AFC75FA62B4";
paths = (
{
closed = 1;
nodes = (
"178 563 OFFCURVE",
"62 427 OFFCURVE",
"0 282 CURVE SMOOTH",
"-25 222 OFFCURVE",
"-42 161 OFFCURVE",
"-42 107 CURVE SMOOTH",
"-42 43 OFFCURVE",
"-16 0 OFFCURVE",
"24 0 CURVE SMOOTH",
"99 0 OFFCURVE",
"174 97 OFFCURVE",
"220 189 CURVE",
"219 192 LINE",
"196 134 OFFCURVE",
"185 95 OFFCURVE",
"185 53 CURVE SMOOTH",
"185 -35 OFFCURVE",
"237 -140 OFFCURVE",
"364 -140 CURVE SMOOTH",
"492 -140 OFFCURVE",
"617 -28 OFFCURVE",
"617 106 CURVE SMOOTH",
"617 181 OFFCURVE",
"555 235 OFFCURVE",
"487 235 CURVE SMOOTH",
"399 235 OFFCURVE",
"332 162 OFFCURVE",
"332 90 CURVE SMOOTH",
"332 67 OFFCURVE",
"339 49 OFFCURVE",
"349 28 CURVE",
"353 23 OFFCURVE",
"358 26 OFFCURVE",
"357 32 CURVE",
"349 51 OFFCURVE",
"346 68 OFFCURVE",
"346 87 CURVE SMOOTH",
"346 157 OFFCURVE",
"402 225 OFFCURVE",
"486 225 CURVE SMOOTH",
"545 225 OFFCURVE",
"599 188 OFFCURVE",
"599 107 CURVE SMOOTH",
"599 -23 OFFCURVE",
"488 -132 OFFCURVE",
"367 -132 CURVE SMOOTH",
"256 -132 OFFCURVE",
"199 -38 OFFCURVE",
"199 37 CURVE SMOOTH",
"199 99 OFFCURVE",
"230 184 OFFCURVE",
"250 227 CURVE SMOOTH",
"595 968 LINE",
"570 968 LINE",
"238 244 LINE SMOOTH",
"185 129 OFFCURVE",
"104 10 OFFCURVE",
"26 10 CURVE SMOOTH",
"-7 10 OFFCURVE",
"-22 41 OFFCURVE",
"-22 93 CURVE SMOOTH",
"-22 270 OFFCURVE",
"153 554 OFFCURVE",
"269 554 CURVE SMOOTH",
"298 554 OFFCURVE",
"315 534 OFFCURVE",
"315 501 CURVE SMOOTH",
"315 462 OFFCURVE",
"291 413 OFFCURVE",
"262 385 CURVE SMOOTH",
"259 382 OFFCURVE",
"260 378 OFFCURVE",
"264 377 CURVE",
"295 406 OFFCURVE",
"326 456 OFFCURVE",
"326 500 CURVE SMOOTH",
"326 538 OFFCURVE",
"303 563 OFFCURVE",
"267 563 CURVE SMOOTH"
);
}
);
width = 674;
},
{
hints = (
{
horizontal = 1;
place = "{-141, 21}";
type = Stem;
},
{
horizontal = 1;
place = "{971, -20}";
target = down;
type = TopGhost;
}
);
layerId = "16A2D4D5-7122-496F-87E2-41E3467D9F6F";
paths = (
{
closed = 1;
nodes = (
"178 563 OFFCURVE",
"62 427 OFFCURVE",
"0 282 CURVE SMOOTH",
"-26 221 OFFCURVE",
"-43 160 OFFCURVE",
"-43 106 CURVE SMOOTH",
"-43 42 OFFCURVE",
"-18 0 OFFCURVE",
"21 0 CURVE SMOOTH",
"96 0 OFFCURVE",
"171 98 OFFCURVE",
"217 191 CURVE",
"220 191 LINE",
"197 132 OFFCURVE",
"186 93 OFFCURVE",
"186 51 CURVE SMOOTH",
"186 -37 OFFCURVE",
"238 -141 OFFCURVE",
"364 -141 CURVE SMOOTH",
"492 -141 OFFCURVE",
"617 -29 OFFCURVE",
"617 104 CURVE SMOOTH",
"617 179 OFFCURVE",
"556 232 OFFCURVE",
"488 232 CURVE SMOOTH",
"401 232 OFFCURVE",
"334 160 OFFCURVE",
"334 88 CURVE SMOOTH",
"334 66 OFFCURVE",
"341 49 OFFCURVE",
"350 29 CURVE",
"352 27 OFFCURVE",
"354 28 OFFCURVE",
"354 31 CURVE",
"347 49 OFFCURVE",
"344 66 OFFCURVE",
"344 85 CURVE SMOOTH",
"344 157 OFFCURVE",
"401 227 OFFCURVE",
"487 227 CURVE SMOOTH",
"548 227 OFFCURVE",
"603 189 OFFCURVE",
"603 105 CURVE SMOOTH",
"603 -26 OFFCURVE",
"490 -137 OFFCURVE",
"367 -137 CURVE SMOOTH",
"254 -137 OFFCURVE",
"196 -42 OFFCURVE",
"196 35 CURVE SMOOTH",
"196 98 OFFCURVE",
"227 184 OFFCURVE",
"247 228 CURVE SMOOTH",
"594 971 LINE",
"573 971 LINE",
"239 242 LINE SMOOTH",
"186 126 OFFCURVE",
"103 6 OFFCURVE",
"23 6 CURVE SMOOTH",
"-11 6 OFFCURVE",
"-27 38 OFFCURVE",
"-27 91 CURVE SMOOTH",
"-27 271 OFFCURVE",
"150 558 OFFCURVE",
"268 558 CURVE SMOOTH",
"300 558 OFFCURVE",
"319 536 OFFCURVE",
"319 500 CURVE SMOOTH",
"319 460 OFFCURVE",
"295 410 OFFCURVE",
"266 382 CURVE",
"264 380 OFFCURVE",
"265 378 OFFCURVE",
"267 379 CURVE",
"297 407 OFFCURVE",
"327 456 OFFCURVE",
"327 499 CURVE SMOOTH",
"327 538 OFFCURVE",
"303 563 OFFCURVE",
"266 563 CURVE SMOOTH"
);
}
);
width = 674;
}
);
},
{
color = (255,153,254,255);
glyphname = d.9.7;
layers = (
{
hints = (
{
horizontal = 1;
place = "{-273, 29}";
type = Stem;
},
{
horizontal = 1;
place = "{554, 46}";
type = Stem;
},
{
horizontal = 1;
place = "{895, 223}";
type = Stem;
},
{
horizontal = 1;
place = "{1104, 47}";
type = Stem;
}
);
layerId = "12538090-4C57-4FAF-B923-C9DF6C947DDF";
paths = (
{
closed = 1;
nodes = (
"218 194 LINE",
"182 108 OFFCURVE",
"165 48 OFFCURVE",
"165 -17 CURVE SMOOTH",
"165 -164 OFFCURVE",
"266 -265 OFFCURVE",
"412 -265 CURVE SMOOTH",
"573 -265 OFFCURVE",
"732 -142 OFFCURVE",
"732 36 CURVE SMOOTH",
"732 135 OFFCURVE",
"658 212 OFFCURVE",
"563 212 CURVE SMOOTH",
"502 212 OFFCURVE",
"430 167 OFFCURVE",
"430 107 CURVE SMOOTH",
"430 93 OFFCURVE",
"438 78 OFFCURVE",
"452 69 CURVE",
"456 78 LINE",
"448 84 OFFCURVE",
"446 95 OFFCURVE",
"446 105 CURVE SMOOTH",
"446 163 OFFCURVE",
"507 199 OFFCURVE",
"563 199 CURVE SMOOTH",
"646 199 OFFCURVE",
"710 131 OFFCURVE",
"710 39 CURVE SMOOTH",
"710 -135 OFFCURVE",
"565 -253 OFFCURVE",
"415 -253 CURVE SMOOTH",
"286 -253 OFFCURVE",
"181 -166 OFFCURVE",
"181 -25 CURVE SMOOTH",
"181 50 OFFCURVE",
"225 170 OFFCURVE",
"252 227 CURVE SMOOTH",
"420 582 LINE",
"645 584 OFFCURVE",
"914 808 OFFCURVE",
"914 994 CURVE SMOOTH",
"914 1059 OFFCURVE",
"868 1106 OFFCURVE",
"804 1106 CURVE SMOOTH",
"628 1106 OFFCURVE",
"467 748 OFFCURVE",
"411 622 CURVE SMOOTH",
"399 595 LINE",
"237 603 OFFCURVE",
"116 702 OFFCURVE",
"116 853 CURVE SMOOTH",
"116 1007 OFFCURVE",
"236 1125 OFFCURVE",
"357 1125 CURVE SMOOTH",
"432 1125 OFFCURVE",
"480 1082 OFFCURVE",
"480 1013 CURVE SMOOTH",
"480 954 OFFCURVE",
"424 900 OFFCURVE",
"373 900 CURVE SMOOTH",
"364 900 OFFCURVE",
"351 902 OFFCURVE",
"338 910 CURVE",
"326 904 LINE",
"345 890 OFFCURVE",
"362 886 OFFCURVE",
"377 886 CURVE SMOOTH",
"436 886 OFFCURVE",
"500 946 OFFCURVE",
"500 1011 CURVE SMOOTH",
"500 1084 OFFCURVE",
"437 1139 OFFCURVE",
"351 1139 CURVE SMOOTH",
"220 1139 OFFCURVE",
"95 1019 OFFCURVE",
"95 865 CURVE SMOOTH",
"95 706 OFFCURVE",
"220 590 OFFCURVE",
"393 582 CURVE",
"237 245 LINE SMOOTH",
"184 132 OFFCURVE",
"104 14 OFFCURVE",
"28 14 CURVE SMOOTH",
"-3 14 OFFCURVE",
"-18 44 OFFCURVE",
"-18 94 CURVE SMOOTH",
"-18 269 OFFCURVE",
"155 550 OFFCURVE",
"269 550 CURVE SMOOTH",
"296 550 OFFCURVE",
"311 532 OFFCURVE",
"311 502 CURVE SMOOTH",
"311 464 OFFCURVE",
"287 415 OFFCURVE",
"258 387 CURVE SMOOTH",
"254 383 OFFCURVE",
"254 374 OFFCURVE",
"261 375 CURVE",
"294 406 OFFCURVE",
"326 456 OFFCURVE",
"326 501 CURVE SMOOTH",
"326 538 OFFCURVE",
"303 563 OFFCURVE",
"267 563 CURVE SMOOTH",
"178 563 OFFCURVE",
"62 427 OFFCURVE",
"0 282 CURVE SMOOTH",
"-25 222 OFFCURVE",
"-41 162 OFFCURVE",
"-41 108 CURVE SMOOTH",
"-41 43 OFFCURVE",
"-15 0 OFFCURVE",
"26 0 CURVE SMOOTH",
"101 0 OFFCURVE",
"176 96 OFFCURVE",
"222 188 CURVE"
);
},
{
closed = 1;
nodes = (
"443 631 LINE SMOOTH",
"504 760 OFFCURVE",
"650 1093 OFFCURVE",
"808 1093 CURVE SMOOTH",
"860 1093 OFFCURVE",
"892 1058 OFFCURVE",
"892 1003 CURVE SMOOTH",
"892 821 OFFCURVE",
"638 600 OFFCURVE",
"426 595 CURVE"
);
}
);
width = 810;
},
{
hints = (
{
horizontal = 1;
place = "{554, 42}";
type = Stem;
},
{
horizontal = 1;
place = "{892, 218}";
type = Stem;
}
);
layerId = "71F17050-D056-48DB-A6EA-6AFC75FA62B4";
paths = (
{
closed = 1;
nodes = (
"219 193 LINE",
"183 107 OFFCURVE",
"165 46 OFFCURVE",
"165 -19 CURVE SMOOTH",
"165 -166 OFFCURVE",
"266 -267 OFFCURVE",
"412 -267 CURVE SMOOTH",
"573 -267 OFFCURVE",
"732 -144 OFFCURVE",
"732 34 CURVE SMOOTH",
"732 133 OFFCURVE",
"659 210 OFFCURVE",
"564 210 CURVE SMOOTH",
"504 210 OFFCURVE",
"432 165 OFFCURVE",
"432 106 CURVE SMOOTH",
"432 92 OFFCURVE",
"439 79 OFFCURVE",
"452 71 CURVE",
"454 76 LINE",
"447 82 OFFCURVE",
"445 93 OFFCURVE",
"445 104 CURVE SMOOTH",
"445 163 OFFCURVE",
"507 201 OFFCURVE",
"564 201 CURVE SMOOTH",
"649 201 OFFCURVE",
"714 131 OFFCURVE",
"714 38 CURVE SMOOTH",
"714 -139 OFFCURVE",
"567 -259 OFFCURVE",
"415 -259 CURVE SMOOTH",
"285 -259 OFFCURVE",
"178 -170 OFFCURVE",
"178 -27 CURVE SMOOTH",
"178 49 OFFCURVE",
"222 170 OFFCURVE",
"250 228 CURVE SMOOTH",
"419 586 LINE",
"645 588 OFFCURVE",
"916 812 OFFCURVE",
"916 999 CURVE SMOOTH",
"916 1063 OFFCURVE",
"870 1110 OFFCURVE",
"807 1110 CURVE SMOOTH",
"626 1110 OFFCURVE",
"460 726 OFFCURVE",
"409 613 CURVE SMOOTH",
"401 596 LINE",
"236 603 OFFCURVE",
"113 704 OFFCURVE",
"113 857 CURVE SMOOTH",
"113 1013 OFFCURVE",
"234 1133 OFFCURVE",
"357 1133 CURVE SMOOTH",
"433 1133 OFFCURVE",
"483 1089 OFFCURVE",
"483 1018 CURVE SMOOTH",
"483 958 OFFCURVE",
"425 902 OFFCURVE",
"373 902 CURVE SMOOTH",
"364 902 OFFCURVE",
"351 904 OFFCURVE",
"338 912 CURVE",
"330 908 LINE",
"346 896 OFFCURVE",
"362 892 OFFCURVE",
"377 892 CURVE SMOOTH",
"436 892 OFFCURVE",
"499 952 OFFCURVE",
"499 1016 CURVE SMOOTH",
"499 1089 OFFCURVE",
"437 1143 OFFCURVE",
"351 1143 CURVE SMOOTH",
"220 1143 OFFCURVE",
"95 1023 OFFCURVE",
"95 869 CURVE SMOOTH",
"95 710 OFFCURVE",
"222 593 OFFCURVE",
"396 586 CURVE",
"238 244 LINE SMOOTH",
"184 129 OFFCURVE",
"104 10 OFFCURVE",
"26 10 CURVE SMOOTH",
"-7 10 OFFCURVE",
"-22 41 OFFCURVE",
"-22 93 CURVE SMOOTH",
"-22 270 OFFCURVE",
"153 554 OFFCURVE",
"269 554 CURVE SMOOTH",
"298 554 OFFCURVE",
"315 534 OFFCURVE",
"315 501 CURVE SMOOTH",
"315 462 OFFCURVE",
"291 413 OFFCURVE",
"262 385 CURVE SMOOTH",
"259 382 OFFCURVE",
"259 376 OFFCURVE",
"264 377 CURVE",
"295 407 OFFCURVE",
"326 456 OFFCURVE",
"326 500 CURVE SMOOTH",
"326 538 OFFCURVE",
"303 563 OFFCURVE",
"267 563 CURVE SMOOTH",
"178 563 OFFCURVE",
"62 427 OFFCURVE",
"0 282 CURVE SMOOTH",
"-25 222 OFFCURVE",
"-42 161 OFFCURVE",
"-42 107 CURVE SMOOTH",
"-42 43 OFFCURVE",
"-16 0 OFFCURVE",
"24 0 CURVE SMOOTH",
"99 0 OFFCURVE",
"174 97 OFFCURVE",
"220 190 CURVE"
);
},
{
closed = 1;
nodes = (
"435 620 LINE SMOOTH",
"488 733 OFFCURVE",
"644 1101 OFFCURVE",
"811 1101 CURVE SMOOTH",
"864 1101 OFFCURVE",
"898 1064 OFFCURVE",
"898 1008 CURVE SMOOTH",
"898 823 OFFCURVE",
"638 599 OFFCURVE",
"424 596 CURVE"
);
}
);
width = 808;
},
{
hints = (
{
horizontal = 1;
place = "{-269, 21}";
type = Stem;
},
{
horizontal = 1;
place = "{558, 38}";
type = Stem;
},
{
horizontal = 1;
place = "{899, 215}";
type = Stem;
},
{
horizontal = 1;
place = "{1108, 39}";
type = Stem;
}
);
layerId = "16A2D4D5-7122-496F-87E2-41E3467D9F6F";
paths = (
{
closed = 1;
nodes = (
"220 191 LINE",
"184 105 OFFCURVE",
"166 44 OFFCURVE",
"166 -21 CURVE SMOOTH",
"166 -168 OFFCURVE",
"267 -269 OFFCURVE",
"413 -269 CURVE SMOOTH",
"574 -269 OFFCURVE",
"733 -146 OFFCURVE",
"733 32 CURVE SMOOTH",
"733 131 OFFCURVE",
"660 207 OFFCURVE",
"566 207 CURVE SMOOTH",
"506 207 OFFCURVE",
"435 163 OFFCURVE",
"435 104 CURVE SMOOTH",
"435 91 OFFCURVE",
"441 79 OFFCURVE",
"451 72 CURVE",
"452 74 LINE",
"445 79 OFFCURVE",
"443 91 OFFCURVE",
"443 102 CURVE SMOOTH",
"443 163 OFFCURVE",
"507 202 OFFCURVE",
"566 202 CURVE SMOOTH",
"652 202 OFFCURVE",
"719 131 OFFCURVE",
"719 36 CURVE SMOOTH",
"719 -143 OFFCURVE",
"570 -265 OFFCURVE",
"416 -265 CURVE SMOOTH",
"283 -265 OFFCURVE",
"175 -174 OFFCURVE",
"175 -29 CURVE SMOOTH",
"175 48 OFFCURVE",
"219 169 OFFCURVE",
"247 228 CURVE SMOOTH",
"418 590 LINE",
"645 591 OFFCURVE",
"918 817 OFFCURVE",
"918 1004 CURVE SMOOTH",
"918 1068 OFFCURVE",
"873 1114 OFFCURVE",
"811 1114 CURVE SMOOTH",
"623 1114 OFFCURVE",
"452 704 OFFCURVE",
"406 603 CURVE SMOOTH",
"403 596 LINE",
"235 603 OFFCURVE",
"109 705 OFFCURVE",
"109 861 CURVE SMOOTH",
"109 1019 OFFCURVE",
"232 1141 OFFCURVE",
"357 1141 CURVE SMOOTH",
"435 1141 OFFCURVE",
"486 1096 OFFCURVE",
"486 1024 CURVE SMOOTH",
"486 962 OFFCURVE",
"427 905 OFFCURVE",
"373 905 CURVE SMOOTH",
"363 905 OFFCURVE",
"350 907 OFFCURVE",
"338 914 CURVE",
"334 912 LINE",
"348 902 OFFCURVE",
"363 899 OFFCURVE",
"377 899 CURVE SMOOTH",
"435 899 OFFCURVE",
"498 958 OFFCURVE",
"498 1022 CURVE SMOOTH",
"498 1094 OFFCURVE",
"436 1147 OFFCURVE",
"351 1147 CURVE SMOOTH",
"220 1147 OFFCURVE",
"95 1028 OFFCURVE",
"95 873 CURVE SMOOTH",
"95 713 OFFCURVE",
"225 596 OFFCURVE",
"400 590 CURVE",
"239 242 LINE SMOOTH",
"185 126 OFFCURVE",
"103 6 OFFCURVE",
"23 6 CURVE SMOOTH",
"-11 6 OFFCURVE",
"-27 38 OFFCURVE",
"-27 91 CURVE SMOOTH",
"-27 271 OFFCURVE",
"150 558 OFFCURVE",
"268 558 CURVE SMOOTH",
"300 558 OFFCURVE",
"319 536 OFFCURVE",
"319 500 CURVE SMOOTH",
"319 460 OFFCURVE",
"295 410 OFFCURVE",
"266 382 CURVE",
"264 380 OFFCURVE",
"265 378 OFFCURVE",
"267 379 CURVE",
"297 407 OFFCURVE",
"327 456 OFFCURVE",
"327 499 CURVE SMOOTH",
"327 538 OFFCURVE",
"303 563 OFFCURVE",
"266 563 CURVE SMOOTH",
"178 563 OFFCURVE",
"62 427 OFFCURVE",
"0 282 CURVE SMOOTH",
"-26 221 OFFCURVE",
"-43 160 OFFCURVE",
"-43 106 CURVE SMOOTH",
"-43 42 OFFCURVE",
"-18 0 OFFCURVE",
"21 0 CURVE SMOOTH",
"96 0 OFFCURVE",
"171 98 OFFCURVE",
"217 191 CURVE"
);
},
{
closed = 1;
nodes = (
"426 607 LINE SMOOTH",
"472 706 OFFCURVE",
"637 1109 OFFCURVE",
"815 1109 CURVE SMOOTH",
"869 1109 OFFCURVE",
"904 1071 OFFCURVE",
"904 1013 CURVE SMOOTH",
"904 825 OFFCURVE",
"639 596 OFFCURVE",
"421 596 CURVE"
);
}
);
width = 810;
}
);
},
{
color = (153,255,154,255);
glyphname = e;
layers = (
{
associatedMasterId = "16A2D4D5-7122-496F-87E2-41E3467D9F6F";
layerId = "E2C39D0A-5B42-4E5B-94C5-696579E2657D";
name = public.background;
paths = (
{
closed = 1;
nodes = (
"345 282 LINE",
"280 145 OFFCURVE",
"170 -6 OFFCURVE",
"56 -6 CURVE SMOOTH",
"-1 -6 OFFCURVE",
"-34 57 OFFCURVE",
"-16 167 CURVE SMOOTH",
"-5 230 OFFCURVE",
"19 292 OFFCURVE",
"49 348 CURVE",
"51 325 OFFCURVE",
"77 292 OFFCURVE",
"124 292 CURVE SMOOTH",
"206 292 OFFCURVE",
"311 403 OFFCURVE",
"320 491 CURVE",
"325 525 OFFCURVE",
"306 563 OFFCURVE",
"267 563 CURVE SMOOTH",
"176 563 OFFCURVE",
"3 382 OFFCURVE",
"-30 175 CURVE SMOOTH",
"-50 60 OFFCURVE",
"-12 -12 OFFCURVE",
"56 -12 CURVE SMOOTH",
"171 -12 OFFCURVE",
"281 140 OFFCURVE",
"348 280 CURVE"
);
},
{
closed = 1;
nodes = (
"299 404 OFFCURVE",
"197 297 OFFCURVE",
"119 297 CURVE SMOOTH",
"81 297 OFFCURVE",
"55 330 OFFCURVE",
"51 354 CURVE",
"115 470 OFFCURVE",
"207 558 OFFCURVE",
"266 558 CURVE SMOOTH",
"300 558 OFFCURVE",
"313 530 OFFCURVE",
"310 498 CURVE"
);
}
);
width = 320;
},
{
anchors = (
{
name = top;
position = "{288, 638}";
}
);
hints = (
{
horizontal = 1;
place = "{-16, 29}";
type = Stem;
},
{
horizontal = 1;
place = "{567, -20}";
target = down;
type = TopGhost;
}
);
layerId = "12538090-4C57-4FAF-B923-C9DF6C947DDF";
paths = (
{
closed = 1;
nodes = (
"261.294 132.154 OFFCURVE",
"168.629 13.858 OFFCURVE",
"71.034 13.858 CURVE SMOOTH",
"20.759 13.858 OFFCURVE",
"-12.759 50.333 OFFCURVE",
"-12.759 113.424 CURVE SMOOTH",
"-12.759 281.01 OFFCURVE",
"150.884 550.133 OFFCURVE",
"263.265 550.133 CURVE SMOOTH",
"290.868 550.133 OFFCURVE",
"306.641 532.389 OFFCURVE",
"306.641 501.829 CURVE SMOOTH",
"306.641 421.979 OFFCURVE",
"205.103 311.57 OFFCURVE",
"133.14 311.57 CURVE SMOOTH",
"98.637 311.57 OFFCURVE",
"73.992 334.243 OFFCURVE",
"73.992 364.803 CURVE SMOOTH",
"73.992 373.675 OFFCURVE",
"75.963 383.533 OFFCURVE",
"80.892 395.363 CURVE",
"74.978 399.306 LINE",
"69.063 392.405 LINE",
"63.148 381.561 OFFCURVE",
"61.176 371.703 OFFCURVE",
"61.176 361.845 CURVE SMOOTH",
"61.176 326.357 OFFCURVE",
"92.722 298.754 OFFCURVE",
"135.111 298.754 CURVE SMOOTH",
"221.862 298.754 OFFCURVE",
"324.385 413.107 OFFCURVE",
"324.385 494.928 CURVE SMOOTH",
"324.385 535.346 OFFCURVE",
"298.754 562.949 OFFCURVE",
"260.308 562.949 CURVE SMOOTH",
"173.558 562.949 OFFCURVE",
"57.233 429.866 OFFCURVE",
"0.057 282.981 CURVE SMOOTH",
"-21.631 228.762 OFFCURVE",
"-34.446 171.586 OFFCURVE",
"-34.446 119.339 CURVE SMOOTH",
"-34.446 44.418 OFFCURVE",
"6.957 0.057 OFFCURVE",
"71.034 0.057 CURVE SMOOTH",
"173.558 0.057 OFFCURVE",
"268.194 120.324 OFFCURVE",
"330.3 276.081 CURVE",
"330.3 284.953 OFFCURVE",
"328.328 288.896 OFFCURVE",
"320.442 281.996 CURVE"
);
}
);
width = 325;
},
{
anchors = (
{
name = top;
position = "{288, 638}";
}
);
hints = (
{
horizontal = 1;
place = "{563, -20}";
target = down;
type = TopGhost;
}
);
layerId = "71F17050-D056-48DB-A6EA-6AFC75FA62B4";
paths = (
{
closed = 1;
nodes = (
"263.106 131.064 OFFCURVE",
"168.79 9.942 OFFCURVE",
"69.51 9.942 CURVE SMOOTH",
"17.885 9.942 OFFCURVE",
"-16.863 47.669 OFFCURVE",
"-16.863 112.201 CURVE SMOOTH",
"-16.863 281.97 OFFCURVE",
"148.934 553.997 OFFCURVE",
"263.106 553.997 CURVE SMOOTH",
"291.898 553.997 OFFCURVE",
"308.775 535.134 OFFCURVE",
"308.775 503.364 CURVE SMOOTH",
"308.775 421.954 OFFCURVE",
"205.524 309.768 OFFCURVE",
"132.057 309.768 CURVE SMOOTH",
"96.316 309.768 OFFCURVE",
"70.503 333.595 OFFCURVE",
"70.503 365.365 CURVE SMOOTH",
"70.503 374.3 OFFCURVE",
"72.489 384.228 OFFCURVE",
"77.453 396.142 CURVE",
"73.482 397.134 LINE",
"68.518 392.17 LINE",
"63.554 382.242 OFFCURVE",
"61.568 372.314 OFFCURVE",
"61.568 362.386 CURVE SMOOTH",
"61.568 327.638 OFFCURVE",
"92.345 300.833 OFFCURVE",
"134.042 300.833 CURVE SMOOTH",
"220.416 300.833 OFFCURVE",
"322.674 415.005 OFFCURVE",
"322.674 496.414 CURVE SMOOTH",
"322.674 536.126 OFFCURVE",
"297.854 562.932 OFFCURVE",
"260.128 562.932 CURVE SMOOTH",
"173.754 562.932 OFFCURVE",
"56.604 429.897 OFFCURVE",
"0.014 282.962 CURVE SMOOTH",
"-21.827 228.358 OFFCURVE",
"-34.734 170.776 OFFCURVE",
"-34.734 118.158 CURVE SMOOTH",
"-34.734 43.698 OFFCURVE",
"5.971 0.014 OFFCURVE",
"69.51 0.014 CURVE SMOOTH",
"171.769 0.014 OFFCURVE",
"267.078 122.129 OFFCURVE",
"329.624 277.998 CURVE",
"329.624 283.955 OFFCURVE",
"327.638 285.941 OFFCURVE",
"322.674 281.97 CURVE"
);
}
);
width = 323;
},
{
anchors = (
{
name = top;
position = "{288, 638}";
}
);
hints = (
{
horizontal = 1;
place = "{-12, 21}";
type = Stem;
},
{
horizontal = 1;
place = "{563, -20}";
target = down;
type = TopGhost;
}
);
layerId = "16A2D4D5-7122-496F-87E2-41E3467D9F6F";
paths = (
{
closed = 1;
nodes = (
"265 129 OFFCURVE",
"169 6 OFFCURVE",
"68 6 CURVE SMOOTH",
"15 6 OFFCURVE",
"-21 44 OFFCURVE",
"-21 111 CURVE SMOOTH",
"-21 283 OFFCURVE",
"147 558 OFFCURVE",
"263 558 CURVE SMOOTH",
"294 558 OFFCURVE",
"311 539 OFFCURVE",
"311 505 CURVE SMOOTH",
"311 422 OFFCURVE",
"206 308 OFFCURVE",
"131 308 CURVE SMOOTH",
"94 308 OFFCURVE",
"67 333 OFFCURVE",
"67 366 CURVE SMOOTH",
"67 376 OFFCURVE",
"69 386 OFFCURVE",
"74 397 CURVE",
"72 395 LINE",
"69 392 LINE",
"64 382 OFFCURVE",
"62 372 OFFCURVE",
"62 363 CURVE SMOOTH",
"62 329 OFFCURVE",
"92 303 OFFCURVE",
"133 303 CURVE SMOOTH",
"219 303 OFFCURVE",
"321 417 OFFCURVE",
"321 498 CURVE SMOOTH",
"321 537 OFFCURVE",
"297 563 OFFCURVE",
"260 563 CURVE SMOOTH",
"174 563 OFFCURVE",
"57 429 OFFCURVE",
"0 282 CURVE SMOOTH",
"-22 227 OFFCURVE",
"-35 169 OFFCURVE",
"-35 117 CURVE SMOOTH",
"-35 44 OFFCURVE",
"5 0 OFFCURVE",
"68 0 CURVE SMOOTH",
"170 0 OFFCURVE",
"266 124 OFFCURVE",
"328 280 CURVE",
"328 282 OFFCURVE",
"327 283 OFFCURVE",
"325 282 CURVE"
);
}
);
width = 325;
}
);
unicode = 0065;
},
{
color = (255,153,254,255);
glyphname = e.1;
layers = (
{
hints = (
{
horizontal = 1;
place = "{-207, 29}";
type = Stem;
},
{
horizontal = 1;
place = "{318, 249}";
type = Stem;
}
);
layerId = "12538090-4C57-4FAF-B923-C9DF6C947DDF";
paths = (
{
closed = 1;
nodes = (
"176 0 OFFCURVE",
"271 122 OFFCURVE",
"334 276 CURVE",
"334 284 OFFCURVE",
"329 286 OFFCURVE",
"324 282 CURVE",
"264 134 OFFCURVE",
"171 14 OFFCURVE",
"72 14 CURVE SMOOTH",
"45 14 OFFCURVE",
"17 29 OFFCURVE",
"4 55 CURVE",
"12 165 OFFCURVE",
"48 256 OFFCURVE",
"97 356 CURVE",
"106 341 OFFCURVE",
"127 325 OFFCURVE",
"159 325 CURVE SMOOTH",
"233 325 OFFCURVE",
"326 433 OFFCURVE",
"326 499 CURVE SMOOTH",
"326 531 OFFCURVE",
"307 563 OFFCURVE",
"269 563 CURVE SMOOTH",
"194 563 OFFCURVE",
"60 443 OFFCURVE",
"0 282 CURVE SMOOTH",
"-17 235 OFFCURVE",
"-31 178 OFFCURVE",
"-31 126 CURVE SMOOTH",
"-31 90 OFFCURVE",
"-24 62 OFFCURVE",
"-8 39 CURVE",
"-8 37 OFFCURVE",
"-8 32 OFFCURVE",
"-8 29 CURVE SMOOTH",
"-8 -45 OFFCURVE",
"0 -167 OFFCURVE",
"80 -201 CURVE",
"90 -202 OFFCURVE",
"94 -198 OFFCURVE",
"90 -191 CURVE",
"27 -166 OFFCURVE",
"4 -77 OFFCURVE",
"3 17 CURVE SMOOTH",
"3 20 OFFCURVE",
"3 23 OFFCURVE",
"3 26 CURVE",
"21 8 OFFCURVE",
"47 0 OFFCURVE",
"72 0 CURVE SMOOTH"
);
},
{
closed = 1;
nodes = (
"44 278 OFFCURVE",
"6 187 OFFCURVE",
"-5 82 CURVE",
"-8 95 OFFCURVE",
"-10 108 OFFCURVE",
"-10 122 CURVE SMOOTH",
"-10 135 OFFCURVE",
"-9 151 OFFCURVE",
"-6 168 CURVE SMOOTH",
"30 358 OFFCURVE",
"184 550 OFFCURVE",
"268 550 CURVE SMOOTH",
"295 550 OFFCURVE",
"309 530 OFFCURVE",
"309 505 CURVE SMOOTH",
"309 444 OFFCURVE",
"225 338 OFFCURVE",
"154 338 CURVE SMOOTH",
"123 338 OFFCURVE",
"107 362 OFFCURVE",
"106 374 CURVE",
"106 387 OFFCURVE",
"96 383 OFFCURVE",
"92 376 CURVE SMOOTH"
);
}
);
width = 325;
},
{
layerId = "71F17050-D056-48DB-A6EA-6AFC75FA62B4";
paths = (
{
closed = 1;
nodes = (
"173 0 OFFCURVE",
"269 123 OFFCURVE",
"331 278 CURVE",
"331 283 OFFCURVE",
"328 285 OFFCURVE",
"324 282 CURVE",
"264 132 OFFCURVE",
"170 10 OFFCURVE",
"70 10 CURVE SMOOTH",
"42 10 OFFCURVE",
"13 26 OFFCURVE",
"0 53 CURVE",
"7 165 OFFCURVE",
"45 259 OFFCURVE",
"95 361 CURVE",
"102 345 OFFCURVE",
"124 327 OFFCURVE",
"158 327 CURVE SMOOTH",
"231 327 OFFCURVE",
"324 435 OFFCURVE",
"324 500 CURVE SMOOTH",
"324 532 OFFCURVE",
"305 563 OFFCURVE",
"269 563 CURVE SMOOTH",
"194 563 OFFCURVE",
"60 443 OFFCURVE",
"0 282 CURVE SMOOTH",
"-17 235 OFFCURVE",
"-32 177 OFFCURVE",
"-32 125 CURVE SMOOTH",
"-32 89 OFFCURVE",
"-24 61 OFFCURVE",
"-8 38 CURVE",
"-8 35 OFFCURVE",
"-9 30 OFFCURVE",
"-9 26 CURVE SMOOTH",
"-9 -61 OFFCURVE",
"5 -171 OFFCURVE",
"78 -202 CURVE",
"84 -203 OFFCURVE",
"88 -199 OFFCURVE",
"85 -195 CURVE",
"21 -169 OFFCURVE",
"-1 -77 OFFCURVE",
"-1 19 CURVE",
"-1 22 OFFCURVE",
"-1 26 OFFCURVE",
"-1 29 CURVE",
"16 9 OFFCURVE",
"44 0 OFFCURVE",
"70 0 CURVE SMOOTH"
);
},
{
closed = 1;
nodes = (
"42 274 OFFCURVE",
"3 181 OFFCURVE",
"-6 71 CURVE",
"-11 86 OFFCURVE",
"-14 102 OFFCURVE",
"-14 121 CURVE SMOOTH",
"-14 135 OFFCURVE",
"-13 150 OFFCURVE",
"-10 168 CURVE SMOOTH",
"25 361 OFFCURVE",
"182 554 OFFCURVE",
"268 554 CURVE SMOOTH",
"296 554 OFFCURVE",
"310 533 OFFCURVE",
"310 506 CURVE SMOOTH",
"310 444 OFFCURVE",
"225 337 OFFCURVE",
"153 337 CURVE SMOOTH",
"120 337 OFFCURVE",
"102 362 OFFCURVE",
"102 375 CURVE SMOOTH",
"102 383 OFFCURVE",
"95 381 OFFCURVE",
"92 376 CURVE SMOOTH"
);
}
);
width = 324;
},
{
hints = (
{
horizontal = 1;
place = "{-203, 21}";
type = Stem;
},
{
horizontal = 1;
place = "{322, 241}";
type = Stem;
}
);
layerId = "16A2D4D5-7122-496F-87E2-41E3467D9F6F";
paths = (
{
closed = 1;
nodes = (
"170 0 OFFCURVE",
"266 124 OFFCURVE",
"328 280 CURVE",
"328 282 OFFCURVE",
"327 283 OFFCURVE",
"325 282 CURVE",
"265 129 OFFCURVE",
"169 6 OFFCURVE",
"68 6 CURVE SMOOTH",
"39 6 OFFCURVE",
"8 22 OFFCURVE",
"-5 51 CURVE",
"2 166 OFFCURVE",
"42 262 OFFCURVE",
"93 366 CURVE",
"98 350 OFFCURVE",
"120 330 OFFCURVE",
"156 330 CURVE SMOOTH",
"229 330 OFFCURVE",
"322 437 OFFCURVE",
"322 502 CURVE SMOOTH",
"322 533 OFFCURVE",
"303 563 OFFCURVE",
"268 563 CURVE SMOOTH",
"193 563 OFFCURVE",
"60 442 OFFCURVE",
"0 282 CURVE SMOOTH",
"-18 234 OFFCURVE",
"-33 176 OFFCURVE",
"-33 124 CURVE SMOOTH",
"-33 87 OFFCURVE",
"-25 60 OFFCURVE",
"-9 37 CURVE",
"-9 32 OFFCURVE",
"-10 27 OFFCURVE",
"-10 22 CURVE SMOOTH",
"-10 -78 OFFCURVE",
"11 -176 OFFCURVE",
"75 -203 CURVE",
"78 -204 OFFCURVE",
"81 -201 OFFCURVE",
"79 -199 CURVE",
"15 -173 OFFCURVE",
"-6 -77 OFFCURVE",
"-6 22 CURVE SMOOTH",
"-6 25 OFFCURVE",
"-6 29 OFFCURVE",
"-6 32 CURVE",
"10 11 OFFCURVE",
"41 0 OFFCURVE",
"68 0 CURVE SMOOTH"
);
},
{
closed = 1;
nodes = (
"40 269 OFFCURVE",
"0 174 OFFCURVE",
"-8 59 CURVE",
"-15 77 OFFCURVE",
"-19 96 OFFCURVE",
"-19 120 CURVE SMOOTH",
"-19 134 OFFCURVE",
"-18 149 OFFCURVE",
"-15 167 CURVE SMOOTH",
"19 364 OFFCURVE",
"180 558 OFFCURVE",
"267 558 CURVE SMOOTH",
"297 558 OFFCURVE",
"312 536 OFFCURVE",
"312 508 CURVE SMOOTH",
"312 445 OFFCURVE",
"225 335 OFFCURVE",
"151 335 CURVE SMOOTH",
"116 335 OFFCURVE",
"97 363 OFFCURVE",
"98 376 CURVE",
"97 379 OFFCURVE",
"93 378 OFFCURVE",
"92 375 CURVE"
);
}
);
width = 325;
}
);
},
{
color = (255,153,254,255);
glyphname = e.2;
layers = (
{
hints = (
{
horizontal = 1;
place = "{-16, 29}";
type = Stem;
},
{
horizontal = 1;
place = "{567, -20}";
target = down;
type = TopGhost;
}
);
layerId = "12538090-4C57-4FAF-B923-C9DF6C947DDF";
paths = (
{
closed = 1;
nodes = (
"21 303 OFFCURVE",
"37 348 OFFCURVE",
"48 387 CURVE",
"59 352 OFFCURVE",
"91 299 OFFCURVE",
"158 299 CURVE SMOOTH",
"247 299 OFFCURVE",
"355 405 OFFCURVE",
"355 495 CURVE SMOOTH",
"355 535 OFFCURVE",
"329 563 OFFCURVE",
"291 563 CURVE SMOOTH",
"204 563 OFFCURVE",
"88 430 OFFCURVE",
"31 283 CURVE SMOOTH",
"9 229 OFFCURVE",
"-4 172 OFFCURVE",
"-4 119 CURVE SMOOTH",
"-4 44 OFFCURVE",
"38 0 OFFCURVE",
"102 0 CURVE SMOOTH",
"207 0 OFFCURVE",
"305 122 OFFCURVE",
"369 276 CURVE",
"368 283 OFFCURVE",
"364 285 OFFCURVE",
"359 282 CURVE",
"298 134 OFFCURVE",
"202 14 OFFCURVE",
"102 14 CURVE SMOOTH",
"51 14 OFFCURVE",
"18 50 OFFCURVE",
"18 113 CURVE SMOOTH",
"18 281 OFFCURVE",
"181 550 OFFCURVE",
"294 550 CURVE SMOOTH",
"321 550 OFFCURVE",
"337 532 OFFCURVE",
"337 502 CURVE SMOOTH",
"337 423 OFFCURVE",
"236 312 OFFCURVE",
"155 312 CURVE SMOOTH",
"89 312 OFFCURVE",
"60 374 OFFCURVE",
"55 407 CURVE",
"56 409 OFFCURVE",
"61 420 OFFCURVE",
"61 427 CURVE SMOOTH",
"61 434 OFFCURVE",
"56 438 OFFCURVE",
"52 438 CURVE SMOOTH",
"46 438 OFFCURVE",
"40 433 OFFCURVE",
"40 423 CURVE SMOOTH",
"40 419 OFFCURVE",
"41 410 OFFCURVE",
"42 406 CURVE",
"31 364 OFFCURVE",
"11 310 OFFCURVE",
"0 282 CURVE",
"1 281 OFFCURVE",
"9 277 OFFCURVE",
"10 276 CURVE"
);
}
);
width = 356;
},
{
hints = (
{
horizontal = 1;
place = "{563, -20}";
target = down;
type = TopGhost;
}
);
layerId = "71F17050-D056-48DB-A6EA-6AFC75FA62B4";
paths = (
{
closed = 1;
nodes = (
"18 307 OFFCURVE",
"35 355 OFFCURVE",
"47 395 CURVE",
"55 362 OFFCURVE",
"86 301 OFFCURVE",
"157 301 CURVE SMOOTH",
"246 301 OFFCURVE",
"354 407 OFFCURVE",
"354 496 CURVE SMOOTH",
"354 536 OFFCURVE",
"329 563 OFFCURVE",
"291 563 CURVE SMOOTH",
"204 563 OFFCURVE",
"88 430 OFFCURVE",
"31 283 CURVE SMOOTH",
"9 228 OFFCURVE",
"-4 171 OFFCURVE",
"-4 118 CURVE SMOOTH",
"-4 44 OFFCURVE",
"37 0 OFFCURVE",
"101 0 CURVE SMOOTH",
"204 0 OFFCURVE",
"302 123 OFFCURVE",
"365 278 CURVE",
"365 283 OFFCURVE",
"361 284 OFFCURVE",
"358 282 CURVE",
"297 132 OFFCURVE",
"201 10 OFFCURVE",
"101 10 CURVE SMOOTH",
"49 10 OFFCURVE",
"14 47 OFFCURVE",
"14 112 CURVE SMOOTH",
"14 282 OFFCURVE",
"180 554 OFFCURVE",
"294 554 CURVE SMOOTH",
"323 554 OFFCURVE",
"339 535 OFFCURVE",
"339 503 CURVE SMOOTH",
"339 423 OFFCURVE",
"236 310 OFFCURVE",
"154 310 CURVE SMOOTH",
"86 310 OFFCURVE",
"56 374 OFFCURVE",
"52 408 CURVE",
"53 411 OFFCURVE",
"57 420 OFFCURVE",
"57 426 CURVE",
"59 433 OFFCURVE",
"55 437 OFFCURVE",
"51 437 CURVE SMOOTH",
"46 437 OFFCURVE",
"40 433 OFFCURVE",
"40 424 CURVE SMOOTH",
"40 420 OFFCURVE",
"42 410 OFFCURVE",
"42 407 CURVE",
"31 364 OFFCURVE",
"11 310 OFFCURVE",
"0 282 CURVE",
"1 281 OFFCURVE",
"6 278 OFFCURVE",
"7 278 CURVE"
);
}
);
width = 358;
},
{
hints = (
{
horizontal = 1;
place = "{-12, 21}";
type = Stem;
},
{
horizontal = 1;
place = "{563, -20}";
target = down;
type = TopGhost;
}
);
layerId = "16A2D4D5-7122-496F-87E2-41E3467D9F6F";
paths = (
{
closed = 1;
nodes = (
"15 311 OFFCURVE",
"33 362 OFFCURVE",
"46 404 CURVE",
"51 372 OFFCURVE",
"80 303 OFFCURVE",
"156 303 CURVE SMOOTH",
"245 303 OFFCURVE",
"352 409 OFFCURVE",
"352 498 CURVE SMOOTH",
"352 537 OFFCURVE",
"328 563 OFFCURVE",
"291 563 CURVE SMOOTH",
"205 563 OFFCURVE",
"88 429 OFFCURVE",
"31 282 CURVE SMOOTH",
"9 227 OFFCURVE",
"-4 169 OFFCURVE",
"-4 117 CURVE SMOOTH",
"-4 44 OFFCURVE",
"36 0 OFFCURVE",
"99 0 CURVE SMOOTH",
"201 0 OFFCURVE",
"297 124 OFFCURVE",
"359 280 CURVE",
"359 282 OFFCURVE",
"358 283 OFFCURVE",
"356 282 CURVE",
"296 129 OFFCURVE",
"200 6 OFFCURVE",
"99 6 CURVE SMOOTH",
"46 6 OFFCURVE",
"10 44 OFFCURVE",
"10 111 CURVE SMOOTH",
"10 283 OFFCURVE",
"178 558 OFFCURVE",
"294 558 CURVE SMOOTH",
"325 558 OFFCURVE",
"342 539 OFFCURVE",
"342 505 CURVE SMOOTH",
"342 423 OFFCURVE",
"237 308 OFFCURVE",
"153 308 CURVE SMOOTH",
"82 308 OFFCURVE",
"52 374 OFFCURVE",
"48 409 CURVE",
"49 414 OFFCURVE",
"52 421 OFFCURVE",
"53 425 CURVE SMOOTH",
"56 432 OFFCURVE",
"53 436 OFFCURVE",
"49 436 CURVE SMOOTH",
"46 436 OFFCURVE",
"41 432 OFFCURVE",
"41 425 CURVE SMOOTH",
"41 421 OFFCURVE",
"43 411 OFFCURVE",
"43 408 CURVE",
"31 364 OFFCURVE",
"11 309 OFFCURVE",
"0 282 CURVE",
"1 282 OFFCURVE",
"2 280 OFFCURVE",
"3 280 CURVE"
);
}
);
width = 356;
}
);
},
{
color = (255,153,254,255);
glyphname = e.5;
layers = (
{
associatedMasterId = "16A2D4D5-7122-496F-87E2-41E3467D9F6F";
layerId = "E2C39D0A-5B42-4E5B-94C5-696579E2657D";
name = public.background;
width = 322;
},
{
hints = (
{
horizontal = 1;
place = "{-127, 29}";
type = Stem;
},
{
horizontal = 1;
place = "{186, 115}";
type = Stem;
},
{
horizontal = 1;
place = "{567, -20}";
target = down;
type = TopGhost;
}
);
layerId = "12538090-4C57-4FAF-B923-C9DF6C947DDF";
paths = (
{
closed = 1;
nodes = (
"82 411 OFFCURVE",
"185 550 OFFCURVE",
"264 550 CURVE SMOOTH",
"292 550 OFFCURVE",
"308 532 OFFCURVE",
"308 502 CURVE SMOOTH",
"308 422 OFFCURVE",
"206 312 OFFCURVE",
"134 312 CURVE SMOOTH",
"100 312 OFFCURVE",
"75 334 OFFCURVE",
"75 365 CURVE SMOOTH",
"75 374 OFFCURVE",
"77 384 OFFCURVE",
"82 395 CURVE",
"70 392 LINE",
"64 382 OFFCURVE",
"62 372 OFFCURVE",
"62 362 CURVE SMOOTH",
"62 326 OFFCURVE",
"94 299 OFFCURVE",
"136 299 CURVE SMOOTH",
"223 299 OFFCURVE",
"325 413 OFFCURVE",
"325 495 CURVE SMOOTH",
"325 535 OFFCURVE",
"300 563 OFFCURVE",
"261 563 CURVE SMOOTH",
"175 563 OFFCURVE",
"61 427 OFFCURVE",
"0 282 CURVE SMOOTH",
"-21 231 OFFCURVE",
"-32 172 OFFCURVE",
"-32 112 CURVE SMOOTH",
"-32 -6 OFFCURVE",
"19 -115 OFFCURVE",
"151 -115 CURVE SMOOTH",
"262 -115 OFFCURVE",
"357 -26 OFFCURVE",
"357 78 CURVE SMOOTH",
"357 144 OFFCURVE",
"310 199 OFFCURVE",
"255 199 CURVE SMOOTH",
"238 199 OFFCURVE",
"221 193 OFFCURVE",
"207 182 CURVE",
"205 176 OFFCURVE",
"207 172 OFFCURVE",
"213 172 CURVE",
"227 182 OFFCURVE",
"243 187 OFFCURVE",
"258 187 CURVE SMOOTH",
"305 187 OFFCURVE",
"343 142 OFFCURVE",
"343 85 CURVE SMOOTH",
"343 -16 OFFCURVE",
"253 -103 OFFCURVE",
"149 -103 CURVE SMOOTH",
"33 -103 OFFCURVE",
"-13 -9 OFFCURVE",
"-13 98 CURVE SMOOTH",
"-13 158 OFFCURVE",
"1 221 OFFCURVE",
"24 274 CURVE SMOOTH"
);
}
);
width = 318;
},
{
hints = (
{
horizontal = 1;
place = "{563, -20}";
target = down;
type = TopGhost;
}
);
layerId = "71F17050-D056-48DB-A6EA-6AFC75FA62B4";
paths = (
{
closed = 1;
nodes = (
"78 414 OFFCURVE",
"183 554 OFFCURVE",
"264 554 CURVE SMOOTH",
"293 554 OFFCURVE",
"309 535 OFFCURVE",
"309 503 CURVE SMOOTH",
"309 422 OFFCURVE",
"206 310 OFFCURVE",
"133 310 CURVE SMOOTH",
"97 310 OFFCURVE",
"71 334 OFFCURVE",
"71 365 CURVE SMOOTH",
"71 375 OFFCURVE",
"73 385 OFFCURVE",
"78 396 CURVE",
"70 392 LINE",
"64 382 OFFCURVE",
"62 372 OFFCURVE",
"62 362 CURVE SMOOTH",
"62 327 OFFCURVE",
"93 301 OFFCURVE",
"135 301 CURVE SMOOTH",
"221 301 OFFCURVE",
"323 415 OFFCURVE",
"323 496 CURVE SMOOTH",
"323 536 OFFCURVE",
"299 563 OFFCURVE",
"261 563 CURVE SMOOTH",
"175 563 OFFCURVE",
"61 427 OFFCURVE",
"0 282 CURVE SMOOTH",
"-21 231 OFFCURVE",
"-33 171 OFFCURVE",
"-33 111 CURVE SMOOTH",
"-33 -7 OFFCURVE",
"18 -116 OFFCURVE",
"152 -116 CURVE SMOOTH",
"270 -116 OFFCURVE",
"355 -18 OFFCURVE",
"355 78 CURVE SMOOTH",
"355 144 OFFCURVE",
"307 197 OFFCURVE",
"254 197 CURVE SMOOTH",
"238 197 OFFCURVE",
"221 191 OFFCURVE",
"208 181 CURVE",
"206 176 OFFCURVE",
"208 173 OFFCURVE",
"213 174 CURVE",
"226 183 OFFCURVE",
"241 188 OFFCURVE",
"256 188 CURVE SMOOTH",
"303 188 OFFCURVE",
"345 145 OFFCURVE",
"345 84 CURVE SMOOTH",
"345 -9 OFFCURVE",
"264 -108 OFFCURVE",
"151 -108 CURVE SMOOTH",
"29 -108 OFFCURVE",
"-17 -12 OFFCURVE",
"-17 97 CURVE SMOOTH",
"-17 157 OFFCURVE",
"-3 221 OFFCURVE",
"20 275 CURVE SMOOTH"
);
}
);
width = 320;
},
{
hints = (
{
horizontal = 1;
place = "{-123, 21}";
type = Stem;
},
{
horizontal = 1;
place = "{190, 107}";
type = Stem;
},
{
horizontal = 1;
place = "{563, -20}";
target = down;
type = TopGhost;
}
);
layerId = "16A2D4D5-7122-496F-87E2-41E3467D9F6F";
paths = (
{
closed = 1;
nodes = (
"74 418 OFFCURVE",
"180 558 OFFCURVE",
"263 558 CURVE SMOOTH",
"294 558 OFFCURVE",
"311 539 OFFCURVE",
"311 505 CURVE SMOOTH",
"311 422 OFFCURVE",
"206 308 OFFCURVE",
"131 308 CURVE SMOOTH",
"94 308 OFFCURVE",
"67 333 OFFCURVE",
"67 366 CURVE SMOOTH",
"67 376 OFFCURVE",
"69 386 OFFCURVE",
"74 397 CURVE",
"69 392 LINE",
"64 382 OFFCURVE",
"62 372 OFFCURVE",
"62 363 CURVE SMOOTH",
"62 329 OFFCURVE",
"92 303 OFFCURVE",
"133 303 CURVE SMOOTH",
"219 303 OFFCURVE",
"321 417 OFFCURVE",
"321 498 CURVE SMOOTH",
"321 537 OFFCURVE",
"297 563 OFFCURVE",
"260 563 CURVE SMOOTH",
"174 563 OFFCURVE",
"61 428 OFFCURVE",
"0 282 CURVE SMOOTH",
"-21 230 OFFCURVE",
"-34 169 OFFCURVE",
"-34 110 CURVE SMOOTH",
"-34 -8 OFFCURVE",
"17 -117 OFFCURVE",
"154 -117 CURVE SMOOTH",
"278 -117 OFFCURVE",
"353 -9 OFFCURVE",
"353 77 CURVE SMOOTH",
"353 145 OFFCURVE",
"303 194 OFFCURVE",
"253 194 CURVE SMOOTH",
"237 194 OFFCURVE",
"222 189 OFFCURVE",
"210 180 CURVE SMOOTH",
"207 177 OFFCURVE",
"209 174 OFFCURVE",
"212 176 CURVE SMOOTH",
"224 185 OFFCURVE",
"239 190 OFFCURVE",
"253 190 CURVE SMOOTH",
"301 190 OFFCURVE",
"347 149 OFFCURVE",
"347 83 CURVE SMOOTH",
"347 -1 OFFCURVE",
"276 -113 OFFCURVE",
"154 -113 CURVE SMOOTH",
"25 -113 OFFCURVE",
"-22 -15 OFFCURVE",
"-22 95 CURVE SMOOTH",
"-22 156 OFFCURVE",
"-8 221 OFFCURVE",
"15 276 CURVE SMOOTH"
);
}
);
width = 318;
}
);
},
{
color = (255,153,254,255);
glyphname = e.9;
layers = (
{
hints = (
{
horizontal = 1;
place = "{-146, 29}";
type = Stem;
},
{
horizontal = 1;
place = "{222, 79}";
type = Stem;
},
{
horizontal = 1;
place = "{567, -20}";
target = down;
type = TopGhost;
},
{
place = "{-42, 182}";
type = Stem;
}
);
layerId = "12538090-4C57-4FAF-B923-C9DF6C947DDF";
paths = (
{
closed = 1;
nodes = (
"178 17 OFFCURVE",
"182 19 OFFCURVE",
"182 25 CURVE",
"175 44 OFFCURVE",
"172 62 OFFCURVE",
"172 80 CURVE SMOOTH",
"172 149 OFFCURVE",
"226 216 OFFCURVE",
"309 216 CURVE SMOOTH",
"367 216 OFFCURVE",
"419 179 OFFCURVE",
"419 100 CURVE SMOOTH",
"419 -22 OFFCURVE",
"304 -127 OFFCURVE",
"189 -127 CURVE SMOOTH",
"40 -127 OFFCURVE",
"-13 -26 OFFCURVE",
"-13 90 CURVE SMOOTH",
"-13 152 OFFCURVE",
"1 219 OFFCURVE",
"24 275 CURVE SMOOTH",
"79 412 OFFCURVE",
"185 550 OFFCURVE",
"264 550 CURVE SMOOTH",
"292 550 OFFCURVE",
"308 532 OFFCURVE",
"308 502 CURVE SMOOTH",
"308 422 OFFCURVE",
"206 312 OFFCURVE",
"134 312 CURVE SMOOTH",
"100 312 OFFCURVE",
"75 334 OFFCURVE",
"75 365 CURVE SMOOTH",
"75 374 OFFCURVE",
"77 384 OFFCURVE",
"82 395 CURVE",
"80 394 OFFCURVE",
"72 392 OFFCURVE",
"70 392 CURVE",
"64 382 OFFCURVE",
"62 372 OFFCURVE",
"62 362 CURVE SMOOTH",
"62 326 OFFCURVE",
"94 299 OFFCURVE",
"136 299 CURVE SMOOTH",
"223 299 OFFCURVE",
"325 413 OFFCURVE",
"325 495 CURVE SMOOTH",
"325 535 OFFCURVE",
"300 563 OFFCURVE",
"261 563 CURVE SMOOTH",
"175 563 OFFCURVE",
"60 429 OFFCURVE",
"0 282 CURVE SMOOTH",
"-21 229 OFFCURVE",
"-33 167 OFFCURVE",
"-33 106 CURVE SMOOTH",
"-33 -22 OFFCURVE",
"27 -139 OFFCURVE",
"189 -139 CURVE SMOOTH",
"316 -139 OFFCURVE",
"441 -30 OFFCURVE",
"441 99 CURVE SMOOTH",
"441 175 OFFCURVE",
"379 229 OFFCURVE",
"310 229 CURVE SMOOTH",
"222 229 OFFCURVE",
"154 156 OFFCURVE",
"154 83 CURVE SMOOTH",
"154 60 OFFCURVE",
"162 41 OFFCURVE",
"172 19 CURVE"
);
}
);
width = 509;
},
{
hints = (
{
horizontal = 1;
place = "{563, -20}";
target = down;
type = TopGhost;
}
);
layerId = "71F17050-D056-48DB-A6EA-6AFC75FA62B4";
paths = (
{
closed = 1;
nodes = (
"176 18 OFFCURVE",
"179 19 OFFCURVE",
"179 24 CURVE",
"172 43 OFFCURVE",
"169 60 OFFCURVE",
"169 79 CURVE SMOOTH",
"169 149 OFFCURVE",
"224 217 OFFCURVE",
"309 217 CURVE SMOOTH",
"368 217 OFFCURVE",
"421 180 OFFCURVE",
"421 99 CURVE SMOOTH",
"421 -25 OFFCURVE",
"304 -132 OFFCURVE",
"188 -132 CURVE SMOOTH",
"37 -132 OFFCURVE",
"-17 -29 OFFCURVE",
"-17 89 CURVE SMOOTH",
"-17 152 OFFCURVE",
"-3 219 OFFCURVE",
"20 275 CURVE SMOOTH",
"76 415 OFFCURVE",
"183 554 OFFCURVE",
"264 554 CURVE SMOOTH",
"293 554 OFFCURVE",
"309 535 OFFCURVE",
"309 503 CURVE SMOOTH",
"309 422 OFFCURVE",
"206 310 OFFCURVE",
"133 310 CURVE SMOOTH",
"97 310 OFFCURVE",
"71 334 OFFCURVE",
"71 365 CURVE SMOOTH",
"71 375 OFFCURVE",
"73 385 OFFCURVE",
"78 396 CURVE",
"77 395 OFFCURVE",
"71 392 OFFCURVE",
"70 392 CURVE",
"64 382 OFFCURVE",
"62 372 OFFCURVE",
"62 362 CURVE SMOOTH",
"62 327 OFFCURVE",
"93 301 OFFCURVE",
"135 301 CURVE SMOOTH",
"221 301 OFFCURVE",
"323 415 OFFCURVE",
"323 496 CURVE SMOOTH",
"323 536 OFFCURVE",
"299 563 OFFCURVE",
"261 563 CURVE SMOOTH",
"175 563 OFFCURVE",
"60 429 OFFCURVE",
"0 282 CURVE SMOOTH",
"-21 229 OFFCURVE",
"-34 166 OFFCURVE",
"-34 105 CURVE SMOOTH",
"-34 -23 OFFCURVE",
"26 -140 OFFCURVE",
"188 -140 CURVE SMOOTH",
"315 -140 OFFCURVE",
"440 -31 OFFCURVE",
"440 98 CURVE SMOOTH",
"440 173 OFFCURVE",
"378 227 OFFCURVE",
"310 227 CURVE SMOOTH",
"222 227 OFFCURVE",
"154 154 OFFCURVE",
"154 82 CURVE SMOOTH",
"154 59 OFFCURVE",
"162 41 OFFCURVE",
"172 20 CURVE"
);
}
);
width = 511;
},
{
hints = (
{
horizontal = 1;
place = "{-142, 21}";
type = Stem;
},
{
horizontal = 1;
place = "{226, 71}";
type = Stem;
},
{
horizontal = 1;
place = "{563, -20}";
target = down;
type = TopGhost;
},
{
place = "{-39, 174}";
type = Stem;
}
);
layerId = "16A2D4D5-7122-496F-87E2-41E3467D9F6F";
paths = (
{
closed = 1;
nodes = (
"173 19 OFFCURVE",
"175 20 OFFCURVE",
"175 23 CURVE",
"168 41 OFFCURVE",
"165 58 OFFCURVE",
"165 77 CURVE SMOOTH",
"165 149 OFFCURVE",
"222 219 OFFCURVE",
"308 219 CURVE SMOOTH",
"369 219 OFFCURVE",
"424 181 OFFCURVE",
"424 97 CURVE SMOOTH",
"424 -28 OFFCURVE",
"305 -137 OFFCURVE",
"187 -137 CURVE SMOOTH",
"33 -137 OFFCURVE",
"-22 -32 OFFCURVE",
"-22 87 CURVE SMOOTH",
"-22 151 OFFCURVE",
"-7 219 OFFCURVE",
"15 276 CURVE SMOOTH",
"72 419 OFFCURVE",
"180 558 OFFCURVE",
"263 558 CURVE SMOOTH",
"294 558 OFFCURVE",
"311 539 OFFCURVE",
"311 505 CURVE SMOOTH",
"311 422 OFFCURVE",
"206 308 OFFCURVE",
"131 308 CURVE SMOOTH",
"94 308 OFFCURVE",
"67 333 OFFCURVE",
"67 366 CURVE SMOOTH",
"67 376 OFFCURVE",
"69 386 OFFCURVE",
"74 397 CURVE",
"73 396 OFFCURVE",
"70 393 OFFCURVE",
"69 392 CURVE",
"64 382 OFFCURVE",
"62 372 OFFCURVE",
"62 363 CURVE SMOOTH",
"62 329 OFFCURVE",
"92 303 OFFCURVE",
"133 303 CURVE SMOOTH",
"219 303 OFFCURVE",
"321 417 OFFCURVE",
"321 498 CURVE SMOOTH",
"321 537 OFFCURVE",
"297 563 OFFCURVE",
"260 563 CURVE SMOOTH",
"174 563 OFFCURVE",
"59 429 OFFCURVE",
"0 282 CURVE SMOOTH",
"-22 229 OFFCURVE",
"-35 165 OFFCURVE",
"-35 103 CURVE SMOOTH",
"-35 -24 OFFCURVE",
"25 -141 OFFCURVE",
"187 -141 CURVE SMOOTH",
"313 -141 OFFCURVE",
"438 -32 OFFCURVE",
"438 96 CURVE SMOOTH",
"438 171 OFFCURVE",
"377 224 OFFCURVE",
"309 224 CURVE SMOOTH",
"222 224 OFFCURVE",
"155 152 OFFCURVE",
"155 80 CURVE SMOOTH",
"155 58 OFFCURVE",
"162 41 OFFCURVE",
"171 21 CURVE"
);
}
);
width = 509;
}
);
},
{
color = (153,255,154,255);
glyphname = f;
layers = (
{
associatedMasterId = "16A2D4D5-7122-496F-87E2-41E3467D9F6F";
layerId = "E2C39D0A-5B42-4E5B-94C5-696579E2657D";
name = public.background;
paths = (
{
closed = 1;
nodes = (
"156 564 LINE",
"169 562 OFFCURVE",
"182 562 OFFCURVE",
"196 562 CURVE SMOOTH",
"355 562 OFFCURVE",
"640 725 OFFCURVE",
"638 905 CURVE SMOOTH",
"638 955 OFFCURVE",
"602 996 OFFCURVE",
"542 996 CURVE SMOOTH",
"412 996 OFFCURVE",
"272 799 OFFCURVE",
"148 569 CURVE",
"34 584 OFFCURVE",
"-63 656 OFFCURVE",
"-63 780 CURVE SMOOTH",
"-63 909 OFFCURVE",
"35 1019 OFFCURVE",
"151 1019 CURVE SMOOTH",
"216 1019 OFFCURVE",
"269 972 OFFCURVE",
"269 915 CURVE SMOOTH",
"270 847 OFFCURVE",
"220 788 OFFCURVE",
"151 788 CURVE SMOOTH",
"137 788 OFFCURVE",
"99 788 OFFCURVE",
"84 813 CURVE",
"79 811 LINE",
"97 784 OFFCURVE",
"137 784 OFFCURVE",
"151 784 CURVE SMOOTH",
"222 784 OFFCURVE",
"279 840 OFFCURVE",
"278 913 CURVE SMOOTH",
"278 973 OFFCURVE",
"222 1023 OFFCURVE",
"152 1023 CURVE SMOOTH",
"27 1023 OFFCURVE",
"-78 913 OFFCURVE",
"-78 782 CURVE SMOOTH",
"-78 652 OFFCURVE",
"28 580 OFFCURVE",
"146 565 CURVE"
);
},
{
closed = 1;
nodes = (
"593 992 OFFCURVE",
"629 960 OFFCURVE",
"629 914 CURVE SMOOTH",
"631 735 OFFCURVE",
"356 566 OFFCURVE",
"196 566 CURVE SMOOTH",
"183 566 OFFCURVE",
"170 567 OFFCURVE",
"158 568 CURVE",
"277 797 OFFCURVE",
"415 992 OFFCURVE",
"542 992 CURVE SMOOTH"
);
}
);
width = 215;
},
{
hints = (
{
horizontal = 1;
place = "{479, 91}";
type = Stem;
},
{
horizontal = 1;
place = "{558, 223}";
type = Stem;
},
{
horizontal = 1;
place = "{769, 231}";
type = Stem;
},
{
horizontal = 1;
place = "{988, 39}";
type = Stem;
}
);
layerId = "12538090-4C57-4FAF-B923-C9DF6C947DDF";
paths = (
{
closed = 1;
nodes = (
"572 978 OFFCURVE",
"600 942 OFFCURVE",
"600 903 CURVE SMOOTH",
"600 748 OFFCURVE",
"343 589 OFFCURVE",
"183 589 CURVE SMOOTH",
"58 589 OFFCURVE",
"-69 662 OFFCURVE",
"-69 801 CURVE SMOOTH",
"-69 911 OFFCURVE",
"8 1005 OFFCURVE",
"125 1005 CURVE SMOOTH",
"179 1005 OFFCURVE",
"233 968 OFFCURVE",
"233 905 CURVE SMOOTH",
"233 837 OFFCURVE",
"182 788 OFFCURVE",
"120 788 CURVE SMOOTH",
"107 788 OFFCURVE",
"71 788 OFFCURVE",
"56 813 CURVE",
"50 816 OFFCURVE",
"46 814 OFFCURVE",
"44 807 CURVE",
"66 775 OFFCURVE",
"106 776 OFFCURVE",
"120 776 CURVE SMOOTH",
"188 776 OFFCURVE",
"249 827 OFFCURVE",
"249 903 CURVE SMOOTH",
"249 977 OFFCURVE",
"187 1016 OFFCURVE",
"125 1016 CURVE SMOOTH",
"1 1016 OFFCURVE",
"-91 924 OFFCURVE",
"-91 804 CURVE SMOOTH",
"-91 659 OFFCURVE",
"55 577 OFFCURVE",
"184 577 CURVE SMOOTH",
"347 577 OFFCURVE",
"617 725 OFFCURVE",
"617 895 CURVE SMOOTH",
"617 942 OFFCURVE",
"586 990 OFFCURVE",
"533 990 CURVE SMOOTH",
"392 990 OFFCURVE",
"242 796 OFFCURVE",
"129 565 CURVE SMOOTH",
"96 496 LINE SMOOTH",
"93 490 OFFCURVE",
"90 488 OFFCURVE",
"84 488 CURVE SMOOTH",
"15 488 LINE",
"15 476 LINE",
"82 476 LINE SMOOTH",
"85 476 OFFCURVE",
"86 475 OFFCURVE",
"84 472 CURVE SMOOTH",
"52 410 OFFCURVE",
"29 345 OFFCURVE",
"0 282 CURVE",
"-36 197 LINE SMOOTH",
"-135 -36 OFFCURVE",
"-296 -424 OFFCURVE",
"-505 -424 CURVE SMOOTH",
"-548 -424 OFFCURVE",
"-585 -403 OFFCURVE",
"-585 -356 CURVE SMOOTH",
"-585 -328 OFFCURVE",
"-565 -301 OFFCURVE",
"-543 -299 CURVE",
"-553 -290 LINE",
"-578 -293 OFFCURVE",
"-603 -325 OFFCURVE",
"-603 -354 CURVE SMOOTH",
"-602 -418 OFFCURVE",
"-545 -437 OFFCURVE",
"-493 -437 CURVE SMOOTH",
"-387 -437 OFFCURVE",
"-301 -358 OFFCURVE",
"-231 -255 CURVE SMOOTH",
"-136 -118 OFFCURVE",
"-65 59 OFFCURVE",
"4 230 CURVE SMOOTH",
"37 313 OFFCURVE",
"70 393 OFFCURVE",
"104 468 CURVE",
"106 474 OFFCURVE",
"109 476 OFFCURVE",
"115 476 CURVE SMOOTH",
"254 476 LINE",
"254 488 LINE",
"117 488 LINE SMOOTH",
"114 488 OFFCURVE",
"113 489 OFFCURVE",
"115 492 CURVE",
"123 512 OFFCURVE",
"135 534 OFFCURVE",
"145 555 CURVE",
"256 776 OFFCURVE",
"400 978 OFFCURVE",
"531 978 CURVE SMOOTH"
);
}
);
width = 213;
},
{
hints = (
{
horizontal = 1;
place = "{985, 35}";
type = Stem;
}
);
layerId = "71F17050-D056-48DB-A6EA-6AFC75FA62B4";
paths = (
{
closed = 1;
nodes = (
"575 985 OFFCURVE",
"604 948 OFFCURVE",
"604 908 CURVE SMOOTH",
"604 751 OFFCURVE",
"344 589 OFFCURVE",
"183 589 CURVE SMOOTH",
"56 589 OFFCURVE",
"-73 663 OFFCURVE",
"-73 805 CURVE SMOOTH",
"-73 917 OFFCURVE",
"5 1012 OFFCURVE",
"124 1012 CURVE SMOOTH",
"183 1012 OFFCURVE",
"241 974 OFFCURVE",
"241 907 CURVE SMOOTH",
"241 838 OFFCURVE",
"189 787 OFFCURVE",
"125 787 CURVE SMOOTH",
"112 787 OFFCURVE",
"75 787 OFFCURVE",
"60 812 CURVE",
"56 814 OFFCURVE",
"53 813 OFFCURVE",
"51 808 CURVE",
"71 779 OFFCURVE",
"111 779 OFFCURVE",
"125 779 CURVE SMOOTH",
"193 779 OFFCURVE",
"253 830 OFFCURVE",
"253 905 CURVE SMOOTH",
"253 980 OFFCURVE",
"189 1020 OFFCURVE",
"124 1020 CURVE SMOOTH",
"0 1020 OFFCURVE",
"-91 928 OFFCURVE",
"-91 808 CURVE SMOOTH",
"-91 663 OFFCURVE",
"55 581 OFFCURVE",
"184 581 CURVE SMOOTH",
"347 581 OFFCURVE",
"617 729 OFFCURVE",
"617 900 CURVE SMOOTH",
"617 946 OFFCURVE",
"586 993 OFFCURVE",
"535 993 CURVE SMOOTH",
"394 993 OFFCURVE",
"243 798 OFFCURVE",
"130 566 CURVE SMOOTH",
"96 497 LINE SMOOTH",
"93 490 OFFCURVE",
"90 488 OFFCURVE",
"83 488 CURVE SMOOTH",
"15 488 LINE",
"15 480 LINE",
"81 480 LINE SMOOTH",
"86 480 OFFCURVE",
"87 478 OFFCURVE",
"84 473 CURVE SMOOTH",
"53 409 OFFCURVE",
"28 345 OFFCURVE",
"0 282 CURVE",
"-35 200 LINE SMOOTH",
"-135 -35 OFFCURVE",
"-297 -431 OFFCURVE",
"-510 -431 CURVE SMOOTH",
"-554 -431 OFFCURVE",
"-593 -411 OFFCURVE",
"-593 -362 CURVE SMOOTH",
"-593 -336 OFFCURVE",
"-577 -304 OFFCURVE",
"-553 -301 CURVE",
"-559 -296 LINE",
"-583 -299 OFFCURVE",
"-607 -331 OFFCURVE",
"-607 -359 CURVE",
"-607 -422 OFFCURVE",
"-550 -440 OFFCURVE",
"-498 -440 CURVE SMOOTH",
"-393 -440 OFFCURVE",
"-306 -361 OFFCURVE",
"-236 -258 CURVE SMOOTH",
"-139 -118 OFFCURVE",
"-68 62 OFFCURVE",
"2 236 CURVE SMOOTH",
"35 317 OFFCURVE",
"67 397 OFFCURVE",
"101 471 CURVE",
"103 477 OFFCURVE",
"107 480 OFFCURVE",
"114 480 CURVE SMOOTH",
"252 480 LINE",
"252 488 LINE",
"116 488 LINE SMOOTH",
"111 488 OFFCURVE",
"110 490 OFFCURVE",
"112 495 CURVE SMOOTH",
"122 517 OFFCURVE",
"133 540 OFFCURVE",
"144 562 CURVE SMOOTH",
"257 787 OFFCURVE",
"399 985 OFFCURVE",
"533 985 CURVE SMOOTH"
);
}
);
width = 214;
},
{
hints = (
{
horizontal = 1;
place = "{483, 83}";
type = Stem;
},
{
horizontal = 1;
place = "{562, 215}";
type = Stem;
},
{
horizontal = 1;
place = "{773, 223}";
type = Stem;
},
{
horizontal = 1;
place = "{992, 31}";
type = Stem;
}
);
layerId = "16A2D4D5-7122-496F-87E2-41E3467D9F6F";
paths = (
{
closed = 1;
nodes = (
"578 992 OFFCURVE",
"609 954 OFFCURVE",
"609 912 CURVE SMOOTH",
"609 753 OFFCURVE",
"346 589 OFFCURVE",
"182 589 CURVE SMOOTH",
"53 589 OFFCURVE",
"-78 664 OFFCURVE",
"-78 808 CURVE SMOOTH",
"-78 922 OFFCURVE",
"2 1019 OFFCURVE",
"123 1019 CURVE SMOOTH",
"187 1019 OFFCURVE",
"249 979 OFFCURVE",
"249 909 CURVE SMOOTH",
"249 838 OFFCURVE",
"196 786 OFFCURVE",
"131 786 CURVE SMOOTH",
"117 786 OFFCURVE",
"79 786 OFFCURVE",
"64 811 CURVE",
"62 812 OFFCURVE",
"61 812 OFFCURVE",
"59 809 CURVE",
"77 782 OFFCURVE",
"117 782 OFFCURVE",
"131 782 CURVE SMOOTH",
"198 782 OFFCURVE",
"258 832 OFFCURVE",
"258 907 CURVE SMOOTH",
"258 982 OFFCURVE",
"191 1023 OFFCURVE",
"123 1023 CURVE SMOOTH",
"-1 1023 OFFCURVE",
"-92 931 OFFCURVE",
"-92 812 CURVE SMOOTH",
"-92 667 OFFCURVE",
"54 585 OFFCURVE",
"183 585 CURVE SMOOTH",
"346 585 OFFCURVE",
"618 733 OFFCURVE",
"618 904 CURVE SMOOTH",
"618 950 OFFCURVE",
"587 996 OFFCURVE",
"537 996 CURVE SMOOTH",
"396 996 OFFCURVE",
"244 800 OFFCURVE",
"131 567 CURVE SMOOTH",
"97 497 LINE SMOOTH",
"94 490 OFFCURVE",
"89 487 OFFCURVE",
"81 487 CURVE SMOOTH",
"15 487 LINE",
"15 483 LINE",
"79 483 LINE SMOOTH",
"87 483 OFFCURVE",
"88 480 OFFCURVE",
"85 473 CURVE SMOOTH",
"54 408 OFFCURVE",
"27 344 OFFCURVE",
"0 282 CURVE",
"-34 202 LINE SMOOTH",
"-134 -34 OFFCURVE",
"-299 -438 OFFCURVE",
"-516 -438 CURVE SMOOTH",
"-561 -438 OFFCURVE",
"-601 -419 OFFCURVE",
"-601 -368 CURVE SMOOTH",
"-601 -345 OFFCURVE",
"-590 -307 OFFCURVE",
"-564 -304 CURVE",
"-566 -302 LINE",
"-589 -305 OFFCURVE",
"-612 -337 OFFCURVE",
"-612 -365 CURVE SMOOTH",
"-612 -427 OFFCURVE",
"-555 -443 OFFCURVE",
"-504 -443 CURVE SMOOTH",
"-399 -443 OFFCURVE",
"-312 -364 OFFCURVE",
"-241 -261 CURVE SMOOTH",
"-143 -119 OFFCURVE",
"-71 64 OFFCURVE",
"0 241 CURVE SMOOTH",
"32 321 OFFCURVE",
"64 400 OFFCURVE",
"97 473 CURVE SMOOTH",
"100 480 OFFCURVE",
"105 483 OFFCURVE",
"113 483 CURVE SMOOTH",
"250 483 LINE",
"250 487 LINE",
"115 487 LINE SMOOTH",
"107 487 OFFCURVE",
"106 490 OFFCURVE",
"109 497 CURVE SMOOTH",
"120 521 OFFCURVE",
"131 545 OFFCURVE",
"143 569 CURVE SMOOTH",
"258 798 OFFCURVE",
"398 992 OFFCURVE",
"535 992 CURVE SMOOTH"
);
}
);
width = 213;
}
);
unicode = 0066;
},
{
color = (255,153,254,255);
glyphname = f.ss16;
layers = (
{
associatedMasterId = "16A2D4D5-7122-496F-87E2-41E3467D9F6F";
layerId = "E2C39D0A-5B42-4E5B-94C5-696579E2657D";
name = public.background;
paths = (
{
closed = 1;
nodes = (
"166 483 LINE",
"312 483 LINE",
"312 487 LINE",
"168 487 LINE"
);
},
{
closed = 1;
nodes = (
"157 487 LINE",
"77 487 LINE",
"77 483 LINE",
"155 483 LINE"
);
},
{
closed = 1;
nodes = (
"237 725 OFFCURVE",
"109 352 OFFCURVE",
"13 125 CURVE SMOOTH",
"-42 -5 OFFCURVE",
"-103 -151 OFFCURVE",
"-181 -261 CURVE SMOOTH",
"-261 -375 OFFCURVE",
"-359 -451 OFFCURVE",
"-478 -442 CURVE SMOOTH",
"-530 -438 OFFCURVE",
"-556 -398 OFFCURVE",
"-553 -357 CURVE SMOOTH",
"-551 -338 OFFCURVE",
"-532 -306 OFFCURVE",
"-508 -303 CURVE",
"-505 -304 LINE",
"-530 -307 OFFCURVE",
"-542 -344 OFFCURVE",
"-542 -364 CURVE",
"-547 -403 OFFCURVE",
"-522 -435 OFFCURVE",
"-477 -438 CURVE SMOOTH",
"-258 -455 OFFCURVE",
"-91 -66 OFFCURVE",
"-4 128 CURVE SMOOTH",
"98 358 OFFCURVE",
"231 724 OFFCURVE",
"406 893 CURVE SMOOTH",
"460 945 OFFCURVE",
"550 983 OFFCURVE",
"603 970 CURVE SMOOTH",
"615 967 OFFCURVE",
"611 948 OFFCURVE",
"596 953 CURVE SMOOTH",
"537 972 OFFCURVE",
"459 937 OFFCURVE",
"409 889 CURVE SMOOTH"
);
},
{
closed = 1;
nodes = (
"10 282 LINE",
"60 402 OFFCURVE",
"88 487 OFFCURVE",
"163 487 CURVE SMOOTH",
"312 487 LINE",
"312 483 LINE",
"162 483 LINE SMOOTH",
"91 483 OFFCURVE",
"61 397 OFFCURVE",
"13 280 CURVE"
);
}
);
width = 263;
},
{
layerId = "12538090-4C57-4FAF-B923-C9DF6C947DDF";
paths = (
{
closed = 1;
nodes = (
"505 967 OFFCURVE",
"448 936 OFFCURVE",
"396 889 CURVE SMOOTH",
"279 783 OFFCURVE",
"190 594 OFFCURVE",
"143 491 CURVE SMOOTH",
"142 489 OFFCURVE",
"139 487 OFFCURVE",
"136 486 CURVE SMOOTH",
"66 470 OFFCURVE",
"24 340 OFFCURVE",
"0 282 CURVE",
"10 276 LINE",
"31 324 OFFCURVE",
"66 431 OFFCURVE",
"117 465 CURVE SMOOTH",
"127 472 OFFCURVE",
"132 468 OFFCURVE",
"127 456 CURVE SMOOTH",
"81 348 OFFCURVE",
"36 239 OFFCURVE",
"-13 132 CURVE SMOOTH",
"-97 -57 OFFCURVE",
"-257 -424 OFFCURVE",
"-461 -424 CURVE SMOOTH",
"-499 -424 OFFCURVE",
"-536 -409 OFFCURVE",
"-536 -365 CURVE SMOOTH",
"-536 -342 OFFCURVE",
"-527 -303 OFFCURVE",
"-501 -300 CURVE",
"-496 -296 OFFCURVE",
"-499 -290 OFFCURVE",
"-506 -291 CURVE SMOOTH",
"-535 -294 OFFCURVE",
"-555 -332 OFFCURVE",
"-555 -358 CURVE SMOOTH",
"-555 -411 OFFCURVE",
"-511 -437 OFFCURVE",
"-457 -437 CURVE SMOOTH",
"-348 -437 OFFCURVE",
"-255 -361 OFFCURVE",
"-180 -255 CURVE SMOOTH",
"-105 -149 OFFCURVE",
"-41 0 OFFCURVE",
"12 125 CURVE SMOOTH",
"59 240 OFFCURVE",
"103 356 OFFCURVE",
"155 469 CURVE SMOOTH",
"157 473 OFFCURVE",
"160 476 OFFCURVE",
"165 476 CURVE SMOOTH",
"307 476 LINE",
"307 488 LINE",
"166 488 LINE SMOOTH",
"164 488 OFFCURVE",
"164 490 OFFCURVE",
"164 491 CURVE",
"211 585 OFFCURVE",
"295 777 OFFCURVE",
"405 878 CURVE SMOOTH",
"449 918 OFFCURVE",
"497 944 OFFCURVE",
"548 944 CURVE SMOOTH",
"563 944 OFFCURVE",
"577 941 OFFCURVE",
"588 939 CURVE SMOOTH",
"595 938 OFFCURVE",
"600 945 OFFCURVE",
"600 951 CURVE SMOOTH",
"600 957 OFFCURVE",
"597 961 OFFCURVE",
"592 963 CURVE SMOOTH",
"585 967 OFFCURVE",
"574 967 OFFCURVE",
"567 967 CURVE SMOOTH"
);
}
);
width = 264;
},
{
layerId = "71F17050-D056-48DB-A6EA-6AFC75FA62B4";
paths = (
{
closed = 1;
nodes = (
"511 970 OFFCURVE",
"446 937 OFFCURVE",
"396 891 CURVE SMOOTH",
"289 791 OFFCURVE",
"203 621 OFFCURVE",
"143 491 CURVE SMOOTH",
"142 489 OFFCURVE",
"139 487 OFFCURVE",
"135 486 CURVE SMOOTH",
"69 471 OFFCURVE",
"34 366 OFFCURVE",
"0 282 CURVE",
"7 278 LINE",
"38 355 OFFCURVE",
"70 448 OFFCURVE",
"124 473 CURVE SMOOTH",
"132 477 OFFCURVE",
"135 474 OFFCURVE",
"131 466 CURVE SMOOTH",
"81 350 OFFCURVE",
"33 233 OFFCURVE",
"-13 130 CURVE SMOOTH",
"-99 -61 OFFCURVE",
"-262 -439 OFFCURVE",
"-474 -431 CURVE SMOOTH",
"-515 -429 OFFCURVE",
"-546 -406 OFFCURVE",
"-544 -365 CURVE",
"-544 -343 OFFCURVE",
"-533 -305 OFFCURVE",
"-508 -302 CURVE",
"-506 -300 OFFCURVE",
"-508 -296 OFFCURVE",
"-512 -297 CURVE SMOOTH",
"-538 -300 OFFCURVE",
"-558 -335 OFFCURVE",
"-559 -358 CURVE SMOOTH",
"-560 -405 OFFCURVE",
"-525 -437 OFFCURVE",
"-472 -439 CURVE SMOOTH",
"-358 -444 OFFCURVE",
"-263 -368 OFFCURVE",
"-185 -258 CURVE SMOOTH",
"-109 -150 OFFCURVE",
"-46 -2 OFFCURVE",
"8 125 CURVE SMOOTH",
"52 232 OFFCURVE",
"98 353 OFFCURVE",
"152 471 CURVE SMOOTH",
"154 476 OFFCURVE",
"158 479 OFFCURVE",
"164 479 CURVE SMOOTH",
"305 479 LINE",
"305 488 LINE",
"165 488 LINE SMOOTH",
"160 488 OFFCURVE",
"159 490 OFFCURVE",
"161 493 CURVE",
"218 618 OFFCURVE",
"300 789 OFFCURVE",
"402 883 CURVE SMOOTH",
"445 923 OFFCURVE",
"498 951 OFFCURVE",
"549 951 CURVE SMOOTH",
"563 951 OFFCURVE",
"576 948 OFFCURVE",
"587 946 CURVE SMOOTH",
"595 944 OFFCURVE",
"600 950 OFFCURVE",
"600 956 CURVE SMOOTH",
"600 961 OFFCURVE",
"597 965 OFFCURVE",
"592 966 CURVE",
"585 969 OFFCURVE",
"576 970 OFFCURVE",
"568 970 CURVE SMOOTH"
);
}
);
width = 263;
},
{
layerId = "16A2D4D5-7122-496F-87E2-41E3467D9F6F";
paths = (
{
closed = 1;
nodes = (
"517 973 OFFCURVE",
"443 938 OFFCURVE",
"396 893 CURVE SMOOTH",
"300 800 OFFCURVE",
"217 649 OFFCURVE",
"144 492 CURVE SMOOTH",
"142 488 OFFCURVE",
"139 486 OFFCURVE",
"134 485 CURVE SMOOTH",
"73 472 OFFCURVE",
"45 392 OFFCURVE",
"0 282 CURVE",
"3 280 LINE",
"46 386 OFFCURVE",
"75 466 OFFCURVE",
"132 481 CURVE SMOOTH",
"137 482 OFFCURVE",
"138 480 OFFCURVE",
"136 476 CURVE SMOOTH",
"80 353 OFFCURVE",
"30 227 OFFCURVE",
"-14 128 CURVE SMOOTH",
"-101 -66 OFFCURVE",
"-268 -455 OFFCURVE",
"-487 -438 CURVE SMOOTH",
"-532 -435 OFFCURVE",
"-557 -403 OFFCURVE",
"-552 -364 CURVE",
"-552 -344 OFFCURVE",
"-540 -307 OFFCURVE",
"-515 -304 CURVE",
"-516 -304 OFFCURVE",
"-517 -303 OFFCURVE",
"-518 -303 CURVE",
"-542 -306 OFFCURVE",
"-561 -338 OFFCURVE",
"-563 -357 CURVE SMOOTH",
"-566 -398 OFFCURVE",
"-540 -438 OFFCURVE",
"-488 -442 CURVE SMOOTH",
"-369 -451 OFFCURVE",
"-271 -375 OFFCURVE",
"-191 -261 CURVE SMOOTH",
"-113 -151 OFFCURVE",
"-52 -5 OFFCURVE",
"3 125 CURVE SMOOTH",
"45 224 OFFCURVE",
"93 350 OFFCURVE",
"148 474 CURVE SMOOTH",
"151 480 OFFCURVE",
"155 483 OFFCURVE",
"162 483 CURVE SMOOTH",
"302 483 LINE",
"302 487 LINE",
"163 487 LINE SMOOTH",
"156 487 OFFCURVE",
"154 490 OFFCURVE",
"157 496 CURVE SMOOTH",
"226 651 OFFCURVE",
"306 801 OFFCURVE",
"399 889 CURVE SMOOTH",
"440 928 OFFCURVE",
"499 958 OFFCURVE",
"551 958 CURVE SMOOTH",
"563 958 OFFCURVE",
"575 956 OFFCURVE",
"586 953 CURVE SMOOTH",
"595 950 OFFCURVE",
"600 955 OFFCURVE",
"600 961 CURVE SMOOTH",
"600 965 OFFCURVE",
"598 969 OFFCURVE",
"593 970 CURVE SMOOTH",
"586 972 OFFCURVE",
"578 973 OFFCURVE",
"570 973 CURVE SMOOTH"
);
}
);
width = 264;
}
);
},
{
color = (255,153,254,255);
glyphname = f.baja;
layers = (
{
layerId = "12538090-4C57-4FAF-B923-C9DF6C947DDF";
paths = (
{
closed = 1;
nodes = (
"-61 88 LINE",
"-44 125 LINE",
"35 310 OFFCURVE",
"159 615 OFFCURVE",
"304 750 CURVE SMOOTH",
"338 781 OFFCURVE",
"380 805 OFFCURVE",
"419 805 CURVE SMOOTH",
"429 805 OFFCURVE",
"438 804 OFFCURVE",
"447 802 CURVE SMOOTH",
"456 800 OFFCURVE",
"463 806 OFFCURVE",
"463 813 CURVE SMOOTH",
"463 817 OFFCURVE",
"460 822 OFFCURVE",
"455 824 CURVE SMOOTH",
"448 826 OFFCURVE",
"442 826 OFFCURVE",
"434 826 CURVE SMOOTH",
"391 826 OFFCURVE",
"334 798 OFFCURVE",
"295 760 CURVE SMOOTH",
"159 628 OFFCURVE",
"21 330 OFFCURVE",
"-70 131 CURVE SMOOTH",
"-88 91 LINE",
"-110 97 OFFCURVE",
"-127 109 OFFCURVE",
"-129 133 CURVE",
"-133 137 OFFCURVE",
"-137 137 OFFCURVE",
"-141 133 CURVE",
"-139 104 OFFCURVE",
"-120 86 OFFCURVE",
"-94 78 CURVE",
"-170 -84 OFFCURVE",
"-298 -330 OFFCURVE",
"-452 -330 CURVE SMOOTH",
"-483 -330 OFFCURVE",
"-513 -317 OFFCURVE",
"-513 -283 CURVE SMOOTH",
"-513 -262 OFFCURVE",
"-500 -235 OFFCURVE",
"-473 -230 CURVE",
"-473 -225 OFFCURVE",
"-478 -221 OFFCURVE",
"-486 -220 CURVE",
"-513 -229 OFFCURVE",
"-530 -252 OFFCURVE",
"-530 -276 CURVE SMOOTH",
"-530 -324 OFFCURVE",
"-491 -344 OFFCURVE",
"-449 -344 CURVE SMOOTH",
"-359 -344 OFFCURVE",
"-282 -280 OFFCURVE",
"-219 -198 CURVE SMOOTH",
"-152 -110 OFFCURVE",
"-101 -1 OFFCURVE",
"-66 75 CURVE",
"-60 75 LINE SMOOTH",
"36 75 OFFCURVE",
"125 158 OFFCURVE",
"175 276 CURVE",
"174 282 OFFCURVE",
"170 284 OFFCURVE",
"165 282 CURVE",
"117 171 OFFCURVE",
"30 88 OFFCURVE",
"-60 88 CURVE SMOOTH"
);
}
);
width = 162;
},
{
layerId = "71F17050-D056-48DB-A6EA-6AFC75FA62B4";
paths = (
{
closed = 1;
nodes = (
"-67 85 LINE",
"-49 125 LINE SMOOTH",
"35 322 OFFCURVE",
"159 623 OFFCURVE",
"302 755 CURVE SMOOTH",
"336 786 OFFCURVE",
"379 811 OFFCURVE",
"419 811 CURVE SMOOTH",
"429 811 OFFCURVE",
"438 810 OFFCURVE",
"447 807 CURVE SMOOTH",
"456 805 OFFCURVE",
"462 811 OFFCURVE",
"462 817 CURVE SMOOTH",
"462 820 OFFCURVE",
"459 824 OFFCURVE",
"455 826 CURVE",
"448 827 OFFCURVE",
"442 828 OFFCURVE",
"434 828 CURVE SMOOTH",
"391 828 OFFCURVE",
"334 800 OFFCURVE",
"295 762 CURVE SMOOTH",
"157 629 OFFCURVE",
"21 331 OFFCURVE",
"-71 129 CURVE SMOOTH",
"-90 87 LINE",
"-114 93 OFFCURVE",
"-133 106 OFFCURVE",
"-135 130 CURVE",
"-137 134 OFFCURVE",
"-141 134 OFFCURVE",
"-143 130 CURVE",
"-141 102 OFFCURVE",
"-122 85 OFFCURVE",
"-94 78 CURVE",
"-171 -85 OFFCURVE",
"-301 -336 OFFCURVE",
"-458 -336 CURVE SMOOTH",
"-490 -336 OFFCURVE",
"-521 -323 OFFCURVE",
"-521 -287 CURVE SMOOTH",
"-521 -265 OFFCURVE",
"-509 -237 OFFCURVE",
"-484 -232 CURVE",
"-484 -229 OFFCURVE",
"-487 -226 OFFCURVE",
"-493 -226 CURVE",
"-518 -234 OFFCURVE",
"-535 -257 OFFCURVE",
"-535 -280 CURVE SMOOTH",
"-535 -327 OFFCURVE",
"-496 -346 OFFCURVE",
"-455 -346 CURVE SMOOTH",
"-364 -346 OFFCURVE",
"-287 -283 OFFCURVE",
"-223 -198 CURVE SMOOTH",
"-161 -114 OFFCURVE",
"-110 -10 OFFCURVE",
"-71 75 CURVE",
"-63 75 LINE SMOOTH",
"32 75 OFFCURVE",
"116 161 OFFCURVE",
"171 278 CURVE",
"171 282 OFFCURVE",
"167 284 OFFCURVE",
"164 282 CURVE",
"110 171 OFFCURVE",
"28 85 OFFCURVE",
"-63 85 CURVE SMOOTH"
);
}
);
width = 164;
},
{
layerId = "16A2D4D5-7122-496F-87E2-41E3467D9F6F";
paths = (
{
closed = 1;
nodes = (
"-74 81 LINE",
"-55 125 LINE SMOOTH",
"36 334 OFFCURVE",
"159 631 OFFCURVE",
"299 760 CURVE SMOOTH",
"333 792 OFFCURVE",
"378 817 OFFCURVE",
"419 817 CURVE SMOOTH",
"429 817 OFFCURVE",
"438 816 OFFCURVE",
"448 813 CURVE SMOOTH",
"456 811 OFFCURVE",
"460 816 OFFCURVE",
"460 821 CURVE SMOOTH",
"460 824 OFFCURVE",
"458 827 OFFCURVE",
"454 828 CURVE SMOOTH",
"448 829 OFFCURVE",
"441 830 OFFCURVE",
"434 830 CURVE SMOOTH",
"391 830 OFFCURVE",
"335 802 OFFCURVE",
"296 764 CURVE SMOOTH",
"155 631 OFFCURVE",
"20 332 OFFCURVE",
"-73 127 CURVE SMOOTH",
"-93 83 LINE",
"-119 89 OFFCURVE",
"-139 102 OFFCURVE",
"-141 127 CURVE",
"-141 130 OFFCURVE",
"-145 130 OFFCURVE",
"-145 127 CURVE",
"-143 100 OFFCURVE",
"-124 84 OFFCURVE",
"-95 78 CURVE",
"-173 -87 OFFCURVE",
"-304 -343 OFFCURVE",
"-465 -343 CURVE SMOOTH",
"-498 -343 OFFCURVE",
"-530 -329 OFFCURVE",
"-530 -291 CURVE SMOOTH",
"-530 -269 OFFCURVE",
"-519 -239 OFFCURVE",
"-496 -235 CURVE",
"-495 -233 OFFCURVE",
"-497 -232 OFFCURVE",
"-500 -232 CURVE",
"-524 -240 OFFCURVE",
"-540 -262 OFFCURVE",
"-540 -284 CURVE SMOOTH",
"-540 -330 OFFCURVE",
"-502 -349 OFFCURVE",
"-462 -349 CURVE SMOOTH",
"-370 -349 OFFCURVE",
"-292 -287 OFFCURVE",
"-227 -197 CURVE SMOOTH",
"-170 -119 OFFCURVE",
"-119 -19 OFFCURVE",
"-76 76 CURVE",
"-67 76 LINE SMOOTH",
"28 76 OFFCURVE",
"105 164 OFFCURVE",
"165 280 CURVE SMOOTH",
"166 282 OFFCURVE",
"164 283 OFFCURVE",
"162 282 CURVE",
"103 172 OFFCURVE",
"26 81 OFFCURVE",
"-67 81 CURVE SMOOTH"
);
}
);
width = 162;
}
);
},
{
color = (255,153,254,255);
glyphname = f.7;
layers = (
{
associatedMasterId = "16A2D4D5-7122-496F-87E2-41E3467D9F6F";
layerId = "E2C39D0A-5B42-4E5B-94C5-696579E2657D";
name = public.background;
paths = (
{
closed = 1;
nodes = (
"-19 202 LINE",
"-80 61 OFFCURVE",
"-211 -178 OFFCURVE",
"-410 -349 CURVE",
"-512 -300 LINE SMOOTH",
"-707 -210 OFFCURVE",
"-890 -123 OFFCURVE",
"-1068 -123 CURVE SMOOTH",
"-1221 -123 OFFCURVE",
"-1307 -211 OFFCURVE",
"-1307 -308 CURVE SMOOTH",
"-1307 -425 OFFCURVE",
"-1172 -554 OFFCURVE",
"-899 -554 CURVE SMOOTH",
"-698 -554 OFFCURVE",
"-531 -474 OFFCURVE",
"-397 -361 CURVE",
"-171 -472 OFFCURVE",
"63 -590 OFFCURVE",
"288 -590 CURVE SMOOTH",
"590 -590 OFFCURVE",
"744 -406 OFFCURVE",
"744 -263 CURVE SMOOTH",
"744 -209 OFFCURVE",
"710 -139 OFFCURVE",
"634 -139 CURVE SMOOTH",
"631 -139 OFFCURVE",
"629 -140 OFFCURVE",
"626 -140 CURVE",
"626 -143 LINE",
"631 -143 LINE SMOOTH",
"704 -143 OFFCURVE",
"734 -206 OFFCURVE",
"734 -257 CURVE SMOOTH",
"734 -398 OFFCURVE",
"571 -580 OFFCURVE",
"271 -580 CURVE SMOOTH",
"58 -580 OFFCURVE",
"-168 -469 OFFCURVE",
"-393 -358 CURVE",
"-203 -197 OFFCURVE",
"-76 28 OFFCURVE",
"-10 184 CURVE"
);
},
{
closed = 1;
nodes = (
"-1170 -549 OFFCURVE",
"-1289 -425 OFFCURVE",
"-1289 -312 CURVE SMOOTH",
"-1289 -217 OFFCURVE",
"-1205 -131 OFFCURVE",
"-1054 -131 CURVE SMOOTH",
"-887 -131 OFFCURVE",
"-701 -218 OFFCURVE",
"-515 -305 CURVE SMOOTH",
"-482 -320 OFFCURVE",
"-448 -336 OFFCURVE",
"-414 -353 CURVE",
"-548 -466 OFFCURVE",
"-712 -549 OFFCURVE",
"-906 -549 CURVE SMOOTH"
);
}
);
width = 217;
},
{
hints = (
{
horizontal = 1;
place = "{-594, 29}";
type = Stem;
},
{
horizontal = 1;
place = "{479, 91}";
type = Stem;
},
{
horizontal = 1;
place = "{558, 223}";
type = Stem;
},
{
horizontal = 1;
place = "{769, 231}";
type = Stem;
},
{
horizontal = 1;
place = "{988, 39}";
type = Stem;
}
);
layerId = "12538090-4C57-4FAF-B923-C9DF6C947DDF";
paths = (
{
closed = 1;
nodes = (
"-78 656 OFFCURVE",
"67 577 OFFCURVE",
"193 577 CURVE SMOOTH",
"357 577 OFFCURVE",
"632 726 OFFCURVE",
"632 888 CURVE SMOOTH",
"632 949 OFFCURVE",
"594 990 OFFCURVE",
"536 990 CURVE SMOOTH",
"408 990 OFFCURVE",
"259 794 OFFCURVE",
"138 565 CURVE SMOOTH",
"102 496 LINE SMOOTH",
"99 491 OFFCURVE",
"96 488 OFFCURVE",
"90 488 CURVE SMOOTH",
"21 488 LINE",
"21 476 LINE",
"88 476 LINE SMOOTH",
"91 476 OFFCURVE",
"92 476 OFFCURVE",
"90 472 CURVE SMOOTH",
"61 413 OFFCURVE",
"29 344 OFFCURVE",
"0 282 CURVE SMOOTH",
"-14 251 OFFCURVE",
"-28 218 OFFCURVE",
"-43 187 CURVE SMOOTH",
"-122 17 OFFCURVE",
"-231 -197 OFFCURVE",
"-384 -348 CURVE",
"-537 -250 OFFCURVE",
"-758 -115 OFFCURVE",
"-939 -115 CURVE SMOOTH",
"-1075 -115 OFFCURVE",
"-1176 -197 OFFCURVE",
"-1176 -308 CURVE SMOOTH",
"-1176 -449 OFFCURVE",
"-1021 -554 OFFCURVE",
"-810 -554 CURVE SMOOTH",
"-655 -554 OFFCURVE",
"-506 -506 OFFCURVE",
"-371 -370 CURVE",
"-202 -464 OFFCURVE",
"-10 -564 OFFCURVE",
"171 -564 CURVE SMOOTH",
"374 -564 OFFCURVE",
"552 -415 OFFCURVE",
"552 -246 CURVE SMOOTH",
"552 -169 OFFCURVE",
"512 -111 OFFCURVE",
"456 -111 CURVE SMOOTH",
"451 -111 OFFCURVE",
"447 -111 OFFCURVE",
"441 -112 CURVE",
"436 -116 OFFCURVE",
"436 -119 OFFCURVE",
"441 -123 CURVE",
"449 -123 LINE SMOOTH",
"501 -123 OFFCURVE",
"535 -169 OFFCURVE",
"535 -239 CURVE SMOOTH",
"535 -400 OFFCURVE",
"356 -546 OFFCURVE",
"158 -546 CURVE SMOOTH",
"-12 -546 OFFCURVE",
"-196 -454 OFFCURVE",
"-361 -360 CURVE",
"-210 -212 OFFCURVE",
"-113 -23 OFFCURVE",
"-27 168 CURVE SMOOTH",
"19 268 OFFCURVE",
"60 370 OFFCURVE",
"109 468 CURVE SMOOTH",
"111 472 OFFCURVE",
"115 476 OFFCURVE",
"121 476 CURVE SMOOTH",
"260 476 LINE",
"260 488 LINE",
"126 488 LINE SMOOTH",
"123 488 OFFCURVE",
"120 489 OFFCURVE",
"121 492 CURVE SMOOTH",
"194 639 OFFCURVE",
"374 978 OFFCURVE",
"535 978 CURVE SMOOTH",
"584 978 OFFCURVE",
"615 947 OFFCURVE",
"615 896 CURVE SMOOTH",
"615 749 OFFCURVE",
"353 589 OFFCURVE",
"192 589 CURVE SMOOTH",
"70 589 OFFCURVE",
"-56 659 OFFCURVE",
"-56 797 CURVE SMOOTH",
"-56 909 OFFCURVE",
"23 1005 OFFCURVE",
"142 1005 CURVE SMOOTH",
"200 1005 OFFCURVE",
"260 968 OFFCURVE",
"260 904 CURVE SMOOTH",
"260 834 OFFCURVE",
"208 783 OFFCURVE",
"145 783 CURVE SMOOTH",
"132 783 OFFCURVE",
"96 783 OFFCURVE",
"82 808 CURVE",
"76 810 OFFCURVE",
"71 809 OFFCURVE",
"69 803 CURVE",
"90 771 OFFCURVE",
"130 771 OFFCURVE",
"145 771 CURVE SMOOTH",
"214 771 OFFCURVE",
"277 824 OFFCURVE",
"277 902 CURVE SMOOTH",
"277 976 OFFCURVE",
"208 1016 OFFCURVE",
"142 1016 CURVE SMOOTH",
"17 1016 OFFCURVE",
"-78 922 OFFCURVE",
"-78 801 CURVE SMOOTH"
);
},
{
closed = 1;
nodes = (
"-1013 -541 OFFCURVE",
"-1152 -447 OFFCURVE",
"-1152 -313 CURVE SMOOTH",
"-1152 -208 OFFCURVE",
"-1060 -131 OFFCURVE",
"-932 -131 CURVE SMOOTH",
"-757 -131 OFFCURVE",
"-540 -265 OFFCURVE",
"-393 -357 CURVE",
"-523 -485 OFFCURVE",
"-660 -541 OFFCURVE",
"-818 -541 CURVE SMOOTH"
);
}
);
width = 218;
},
{
hints = (
{
horizontal = 1;
place = "{985, 35}";
type = Stem;
}
);
layerId = "71F17050-D056-48DB-A6EA-6AFC75FA62B4";
paths = (
{
closed = 1;
nodes = (
"-78 660 OFFCURVE",
"67 581 OFFCURVE",
"193 581 CURVE SMOOTH",
"357 581 OFFCURVE",
"632 730 OFFCURVE",
"632 897 CURVE SMOOTH",
"632 953 OFFCURVE",
"596 993 OFFCURVE",
"544 993 CURVE SMOOTH",
"410 993 OFFCURVE",
"260 796 OFFCURVE",
"139 566 CURVE SMOOTH",
"102 497 LINE SMOOTH",
"99 491 OFFCURVE",
"96 488 OFFCURVE",
"89 488 CURVE SMOOTH",
"21 488 LINE",
"21 480 LINE",
"87 480 LINE SMOOTH",
"92 480 OFFCURVE",
"93 478 OFFCURVE",
"90 473 CURVE SMOOTH",
"61 413 OFFCURVE",
"29 345 OFFCURVE",
"0 282 CURVE SMOOTH",
"-15 249 OFFCURVE",
"-29 216 OFFCURVE",
"-43 186 CURVE SMOOTH",
"-123 14 OFFCURVE",
"-233 -203 OFFCURVE",
"-388 -355 CURVE",
"-542 -256 OFFCURVE",
"-766 -120 OFFCURVE",
"-948 -120 CURVE SMOOTH",
"-1084 -120 OFFCURVE",
"-1184 -201 OFFCURVE",
"-1184 -312 CURVE SMOOTH",
"-1184 -453 OFFCURVE",
"-1029 -558 OFFCURVE",
"-818 -558 CURVE SMOOTH",
"-662 -558 OFFCURVE",
"-511 -509 OFFCURVE",
"-376 -372 CURVE",
"-206 -467 OFFCURVE",
"-12 -568 OFFCURVE",
"170 -568 CURVE SMOOTH",
"374 -568 OFFCURVE",
"552 -419 OFFCURVE",
"552 -250 CURVE SMOOTH",
"552 -173 OFFCURVE",
"512 -116 OFFCURVE",
"457 -116 CURVE SMOOTH",
"451 -116 OFFCURVE",
"448 -116 OFFCURVE",
"444 -117 CURVE",
"440 -119 OFFCURVE",
"440 -122 OFFCURVE",
"444 -124 CURVE",
"450 -124 LINE SMOOTH",
"503 -124 OFFCURVE",
"539 -171 OFFCURVE",
"539 -242 CURVE SMOOTH",
"539 -406 OFFCURVE",
"357 -554 OFFCURVE",
"157 -554 CURVE SMOOTH",
"-15 -554 OFFCURVE",
"-202 -460 OFFCURVE",
"-369 -365 CURVE",
"-221 -221 OFFCURVE",
"-119 -28 OFFCURVE",
"-36 156 CURVE SMOOTH",
"9 256 OFFCURVE",
"55 367 OFFCURVE",
"106 471 CURVE SMOOTH",
"109 476 OFFCURVE",
"113 480 OFFCURVE",
"120 480 CURVE SMOOTH",
"258 480 LINE",
"258 488 LINE",
"124 488 LINE SMOOTH",
"118 488 OFFCURVE",
"116 490 OFFCURVE",
"118 495 CURVE SMOOTH",
"192 643 OFFCURVE",
"371 985 OFFCURVE",
"543 985 CURVE SMOOTH",
"586 985 OFFCURVE",
"619 954 OFFCURVE",
"619 905 CURVE SMOOTH",
"619 752 OFFCURVE",
"354 589 OFFCURVE",
"192 589 CURVE SMOOTH",
"68 589 OFFCURVE",
"-60 660 OFFCURVE",
"-60 801 CURVE SMOOTH",
"-60 915 OFFCURVE",
"20 1012 OFFCURVE",
"141 1012 CURVE SMOOTH",
"200 1012 OFFCURVE",
"262 975 OFFCURVE",
"262 909 CURVE SMOOTH",
"262 837 OFFCURVE",
"208 785 OFFCURVE",
"144 785 CURVE SMOOTH",
"131 785 OFFCURVE",
"94 785 OFFCURVE",
"80 810 CURVE",
"76 812 OFFCURVE",
"71 811 OFFCURVE",
"70 806 CURVE",
"90 777 OFFCURVE",
"130 777 OFFCURVE",
"144 777 CURVE SMOOTH",
"213 777 OFFCURVE",
"275 829 OFFCURVE",
"275 907 CURVE SMOOTH",
"275 980 OFFCURVE",
"207 1020 OFFCURVE",
"141 1020 CURVE SMOOTH",
"16 1020 OFFCURVE",
"-78 926 OFFCURVE",
"-78 805 CURVE SMOOTH"
);
},
{
closed = 1;
nodes = (
"-1023 -549 OFFCURVE",
"-1164 -453 OFFCURVE",
"-1164 -317 CURVE SMOOTH",
"-1164 -210 OFFCURVE",
"-1070 -132 OFFCURVE",
"-940 -132 CURVE SMOOTH",
"-763 -132 OFFCURVE",
"-543 -268 OFFCURVE",
"-395 -361 CURVE",
"-526 -492 OFFCURVE",
"-665 -549 OFFCURVE",
"-826 -549 CURVE SMOOTH"
);
}
);
width = 217;
},
{
hints = (
{
horizontal = 1;
place = "{-590, 21}";
type = Stem;
},
{
horizontal = 1;
place = "{483, 83}";
type = Stem;
},
{
horizontal = 1;
place = "{562, 215}";
type = Stem;
},
{
horizontal = 1;
place = "{773, 223}";
type = Stem;
},
{
horizontal = 1;
place = "{992, 31}";
type = Stem;
}
);
layerId = "16A2D4D5-7122-496F-87E2-41E3467D9F6F";
paths = (
{
closed = 1;
nodes = (
"-79 664 OFFCURVE",
"66 585 OFFCURVE",
"192 585 CURVE SMOOTH",
"356 585 OFFCURVE",
"633 734 OFFCURVE",
"633 906 CURVE SMOOTH",
"633 956 OFFCURVE",
"598 996 OFFCURVE",
"553 996 CURVE SMOOTH",
"412 996 OFFCURVE",
"262 798 OFFCURVE",
"140 567 CURVE SMOOTH",
"103 497 LINE SMOOTH",
"99 490 OFFCURVE",
"95 487 OFFCURVE",
"87 487 CURVE SMOOTH",
"21 487 LINE",
"21 483 LINE",
"85 483 LINE SMOOTH",
"93 483 OFFCURVE",
"94 480 OFFCURVE",
"91 473 CURVE SMOOTH",
"61 413 OFFCURVE",
"29 346 OFFCURVE",
"0 282 CURVE SMOOTH",
"-16 247 OFFCURVE",
"-30 214 OFFCURVE",
"-44 184 CURVE SMOOTH",
"-125 10 OFFCURVE",
"-236 -209 OFFCURVE",
"-393 -362 CURVE",
"-548 -263 OFFCURVE",
"-774 -125 OFFCURVE",
"-957 -125 CURVE SMOOTH",
"-1093 -125 OFFCURVE",
"-1193 -206 OFFCURVE",
"-1193 -316 CURVE SMOOTH",
"-1193 -458 OFFCURVE",
"-1038 -562 OFFCURVE",
"-826 -562 CURVE SMOOTH",
"-669 -562 OFFCURVE",
"-517 -512 OFFCURVE",
"-381 -374 CURVE",
"-210 -470 OFFCURVE",
"-14 -572 OFFCURVE",
"169 -572 CURVE SMOOTH",
"373 -572 OFFCURVE",
"552 -423 OFFCURVE",
"552 -254 CURVE SMOOTH",
"552 -177 OFFCURVE",
"513 -121 OFFCURVE",
"459 -121 CURVE SMOOTH",
"451 -121 OFFCURVE",
"449 -121 OFFCURVE",
"447 -122 CURVE SMOOTH",
"445 -123 OFFCURVE",
"445 -125 OFFCURVE",
"447 -125 CURVE",
"451 -125 LINE SMOOTH",
"506 -125 OFFCURVE",
"543 -174 OFFCURVE",
"543 -246 CURVE SMOOTH",
"543 -412 OFFCURVE",
"359 -562 OFFCURVE",
"156 -562 CURVE SMOOTH",
"-19 -562 OFFCURVE",
"-208 -467 OFFCURVE",
"-377 -370 CURVE",
"-232 -230 OFFCURVE",
"-126 -33 OFFCURVE",
"-46 143 CURVE SMOOTH",
"-1 243 OFFCURVE",
"49 364 OFFCURVE",
"103 473 CURVE SMOOTH",
"106 480 OFFCURVE",
"111 483 OFFCURVE",
"119 483 CURVE SMOOTH",
"256 483 LINE",
"256 487 LINE",
"121 487 LINE SMOOTH",
"113 487 OFFCURVE",
"112 490 OFFCURVE",
"115 497 CURVE SMOOTH",
"189 646 OFFCURVE",
"368 992 OFFCURVE",
"551 992 CURVE SMOOTH",
"589 992 OFFCURVE",
"624 960 OFFCURVE",
"624 914 CURVE SMOOTH",
"624 754 OFFCURVE",
"356 589 OFFCURVE",
"191 589 CURVE SMOOTH",
"65 589 OFFCURVE",
"-65 661 OFFCURVE",
"-65 804 CURVE SMOOTH",
"-65 920 OFFCURVE",
"17 1019 OFFCURVE",
"140 1019 CURVE SMOOTH",
"201 1019 OFFCURVE",
"264 981 OFFCURVE",
"264 913 CURVE SMOOTH",
"264 840 OFFCURVE",
"209 786 OFFCURVE",
"143 786 CURVE SMOOTH",
"129 786 OFFCURVE",
"91 786 OFFCURVE",
"77 811 CURVE",
"75 814 OFFCURVE",
"72 812 OFFCURVE",
"72 809 CURVE",
"89 782 OFFCURVE",
"129 782 OFFCURVE",
"143 782 CURVE SMOOTH",
"211 782 OFFCURVE",
"273 834 OFFCURVE",
"273 911 CURVE SMOOTH",
"273 983 OFFCURVE",
"205 1023 OFFCURVE",
"140 1023 CURVE SMOOTH",
"15 1023 OFFCURVE",
"-79 929 OFFCURVE",
"-79 808 CURVE SMOOTH"
);
},
{
closed = 1;
nodes = (
"-1034 -557 OFFCURVE",
"-1177 -459 OFFCURVE",
"-1177 -322 CURVE SMOOTH",
"-1177 -213 OFFCURVE",
"-1081 -133 OFFCURVE",
"-949 -133 CURVE SMOOTH",
"-770 -133 OFFCURVE",
"-546 -272 OFFCURVE",
"-397 -365 CURVE",
"-530 -499 OFFCURVE",
"-671 -557 OFFCURVE",
"-834 -557 CURVE SMOOTH"
);
}
);
width = 218;
}
);
},
